solid OpenSCAD_Model
  facet normal 0 0 1
    outer loop
      vertex 60 60 3
      vertex 57 57 3
      vertex 60 0 3
    endloop
  endfacet
  facet normal 0 0 1
    outer loop
      vertex 60 60 3
      vertex 3 57 3
      vertex 57 57 3
    endloop
  endfacet
  facet normal 0 0 1
    outer loop
      vertex 3 57 3
      vertex 0 60 3
      vertex 3 3 3
    endloop
  endfacet
  facet normal -0 0 1
    outer loop
      vertex 0 60 3
      vertex 3 57 3
      vertex 60 60 3
    endloop
  endfacet
  facet normal -0 0 1
    outer loop
      vertex 57 3 3
      vertex 60 0 3
      vertex 57 57 3
    endloop
  endfacet
  facet normal -0 0 1
    outer loop
      vertex 3 3 3
      vertex 60 0 3
      vertex 57 3 3
    endloop
  endfacet
  facet normal 0 0 1
    outer loop
      vertex 3 3 3
      vertex 0 0 3
      vertex 60 0 3
    endloop
  endfacet
  facet normal 0 0 1
    outer loop
      vertex 0 0 3
      vertex 3 3 3
      vertex 0 60 3
    endloop
  endfacet
  facet normal -1 0 0
    outer loop
      vertex 3 3 3
      vertex 3 57 6
      vertex 3 57 3
    endloop
  endfacet
  facet normal -1 -0 0
    outer loop
      vertex 3 57 6
      vertex 3 3 3
      vertex 3 3 6
    endloop
  endfacet
  facet normal 0 -1 0
    outer loop
      vertex 3 3 3
      vertex 57 3 6
      vertex 3 3 6
    endloop
  endfacet
  facet normal 0 -1 -0
    outer loop
      vertex 57 3 6
      vertex 3 3 3
      vertex 57 3 3
    endloop
  endfacet
  facet normal 1 -0 0
    outer loop
      vertex 57 3 6
      vertex 57 57 3
      vertex 57 57 6
    endloop
  endfacet
  facet normal 1 0 0
    outer loop
      vertex 57 57 3
      vertex 57 3 6
      vertex 57 3 3
    endloop
  endfacet
  facet normal 0 1 -0
    outer loop
      vertex 57 57 3
      vertex 3 57 6
      vertex 57 57 6
    endloop
  endfacet
  facet normal 0 1 0
    outer loop
      vertex 3 57 6
      vertex 57 57 3
      vertex 3 57 3
    endloop
  endfacet
  facet normal 0 0 -1
    outer loop
      vertex 0 0 0
      vertex 60 60 0
      vertex 60 0 0
    endloop
  endfacet
  facet normal -0 0 -1
    outer loop
      vertex 60 60 0
      vertex 0 0 0
      vertex 0 60 0
    endloop
  endfacet
  facet normal -1 0 0
    outer loop
      vertex 0 0 0
      vertex 0 60 3
      vertex 0 60 0
    endloop
  endfacet
  facet normal -1 -0 0
    outer loop
      vertex 0 60 3
      vertex 0 0 0
      vertex 0 0 3
    endloop
  endfacet
  facet normal -0 0 1
    outer loop
      vertex 3 57 6
      vertex 57 3 6
      vertex 57 57 6
    endloop
  endfacet
  facet normal 0 0 1
    outer loop
      vertex 57 3 6
      vertex 3 57 6
      vertex 3 3 6
    endloop
  endfacet
  facet normal 0 1 -0
    outer loop
      vertex 60 60 0
      vertex 0 60 3
      vertex 60 60 3
    endloop
  endfacet
  facet normal 0 1 0
    outer loop
      vertex 0 60 3
      vertex 60 60 0
      vertex 0 60 0
    endloop
  endfacet
  facet normal 1 -0 0
    outer loop
      vertex 60 0 3
      vertex 60 60 0
      vertex 60 60 3
    endloop
  endfacet
  facet normal 1 0 0
    outer loop
      vertex 60 60 0
      vertex 60 0 3
      vertex 60 0 0
    endloop
  endfacet
  facet normal 0 -1 0
    outer loop
      vertex 0 0 0
      vertex 60 0 3
      vertex 0 0 3
    endloop
  endfacet
  facet normal 0 -1 -0
    outer loop
      vertex 60 0 3
      vertex 0 0 0
      vertex 60 0 0
    endloop
  endfacet
endsolid OpenSCAD_Model
