solid OpenSCAD_Model
  facet normal 0 0 1
    outer loop
      vertex 0 25 25
      vertex 45 30 25
      vertex 0 30 25
    endloop
  endfacet
  facet normal 0 0 1
    outer loop
      vertex 0 25 25
      vertex 45 25 25
      vertex 45 30 25
    endloop
  endfacet
  facet normal 0 0.9659258262890683 0.25881904510252074
    outer loop
      vertex 0 25 25
      vertex 0 11.602540378443866 75
      vertex 45 25 25
    endloop
  endfacet
  facet normal 0 0.9659258262890683 0.25881904510252074
    outer loop
      vertex 45 11.602540378443866 75
      vertex 45 25 25
      vertex 0 11.602540378443866 75
    endloop
  endfacet
  facet normal 0.7730104533627367 0 0.6343932841636459
    outer loop
      vertex 18.964466094067262 4.99 8.964466094067262
      vertex 18.342651938487272 0 9.72214883490199
      vertex 18.964466094067262 0 8.964466094067262
    endloop
  endfacet
  facet normal 0.6343932841636448 0 0.7730104533627374
    outer loop
      vertex 19.72214883490199 4.99 8.342651938487274
      vertex 18.964466094067262 0 8.964466094067262
      vertex 19.72214883490199 0 8.342651938487274
    endloop
  endfacet
  facet normal 0.6343932841636448 0 0.7730104533627374
    outer loop
      vertex 18.964466094067262 4.99 8.964466094067262
      vertex 18.964466094067262 0 8.964466094067262
      vertex 19.72214883490199 4.99 8.342651938487274
    endloop
  endfacet
  facet normal 0.4713967368259987 0 0.8819212643483546
    outer loop
      vertex 20.58658283817455 4.99 7.880602337443566
      vertex 19.72214883490199 0 8.342651938487274
      vertex 20.58658283817455 0 7.880602337443566
    endloop
  endfacet
  facet normal 0.2902846772544614 0 0.956940335732209
    outer loop
      vertex 21.52454838991936 4.99 7.596073597983848
      vertex 20.58658283817455 0 7.880602337443566
      vertex 21.52454838991936 0 7.596073597983848
    endloop
  endfacet
  facet normal 0.09801714032956084 0 0.9951847266721968
    outer loop
      vertex 22.5 4.99 7.5
      vertex 21.52454838991936 0 7.596073597983848
      vertex 22.5 0 7.5
    endloop
  endfacet
  facet normal 0.4713967368259987 0 0.8819212643483546
    outer loop
      vertex 19.72214883490199 4.99 8.342651938487274
      vertex 19.72214883490199 0 8.342651938487274
      vertex 20.58658283817455 4.99 7.880602337443566
    endloop
  endfacet
  facet normal 0.2902846772544614 0 0.956940335732209
    outer loop
      vertex 20.58658283817455 4.99 7.880602337443566
      vertex 20.58658283817455 0 7.880602337443566
      vertex 21.52454838991936 4.99 7.596073597983848
    endloop
  endfacet
  facet normal 0.09801714032956084 0 0.9951847266721968
    outer loop
      vertex 21.52454838991936 4.99 7.596073597983848
      vertex 21.52454838991936 0 7.596073597983848
      vertex 22.5 4.99 7.5
    endloop
  endfacet
  facet normal 0.8819212643483553 0 0.4713967368259972
    outer loop
      vertex 18.342651938487272 4.99 9.72214883490199
      vertex 17.880602337443566 0 10.58658283817455
      vertex 18.342651938487272 0 9.72214883490199
    endloop
  endfacet
  facet normal 0.9569403357322085 0 0.29028467725446355
    outer loop
      vertex 17.880602337443566 4.99 10.58658283817455
      vertex 17.596073597983846 0 11.524548389919358
      vertex 17.880602337443566 0 10.58658283817455
    endloop
  endfacet
  facet normal 0.9951847266721972 0 0.0980171403295589
    outer loop
      vertex 17.596073597983846 4.99 11.524548389919358
      vertex 17.5 0 12.5
      vertex 17.596073597983846 0 11.524548389919358
    endloop
  endfacet
  facet normal 0.9951847266721972 0 -0.0980171403295589
    outer loop
      vertex 17.5 4.99 12.5
      vertex 17.596073597983846 0 13.475451610080642
      vertex 17.5 0 12.5
    endloop
  endfacet
  facet normal 0.9569403357322085 0 -0.29028467725446355
    outer loop
      vertex 17.596073597983846 4.99 13.475451610080642
      vertex 17.880602337443566 0 14.41341716182545
      vertex 17.596073597983846 0 13.475451610080642
    endloop
  endfacet
  facet normal 0.8819212643483553 0 -0.4713967368259972
    outer loop
      vertex 17.880602337443566 4.99 14.41341716182545
      vertex 18.342651938487272 0 15.27785116509801
      vertex 17.880602337443566 0 14.41341716182545
    endloop
  endfacet
  facet normal 0.7730104533627367 0 -0.6343932841636459
    outer loop
      vertex 18.342651938487272 4.99 15.27785116509801
      vertex 18.964466094067262 0 16.035533905932738
      vertex 18.342651938487272 0 15.27785116509801
    endloop
  endfacet
  facet normal 0.6343932841636459 0 -0.7730104533627367
    outer loop
      vertex 18.964466094067262 4.99 16.035533905932738
      vertex 19.72214883490199 0 16.657348061512728
      vertex 18.964466094067262 0 16.035533905932738
    endloop
  endfacet
  facet normal 0.8819212643483553 0 0.4713967368259972
    outer loop
      vertex 17.880602337443566 4.99 10.58658283817455
      vertex 17.880602337443566 0 10.58658283817455
      vertex 18.342651938487272 4.99 9.72214883490199
    endloop
  endfacet
  facet normal 0.9569403357322085 0 0.29028467725446355
    outer loop
      vertex 17.596073597983846 4.99 11.524548389919358
      vertex 17.596073597983846 0 11.524548389919358
      vertex 17.880602337443566 4.99 10.58658283817455
    endloop
  endfacet
  facet normal 0.9951847266721972 -9.187646274017196e-19 0.0980171403295589
    outer loop
      vertex 17.596073597983846 4.99 11.524548389919358
      vertex 17.5 4.99 12.5
      vertex 17.5 0 12.5
    endloop
  endfacet
  facet normal 0.9951847266721972 9.187646274017196e-19 -0.0980171403295589
    outer loop
      vertex 17.5 4.99 12.5
      vertex 17.596073597983846 4.99 13.475451610080642
      vertex 17.596073597983846 0 13.475451610080642
    endloop
  endfacet
  facet normal 0.7730104533627367 0 0.6343932841636459
    outer loop
      vertex 18.342651938487272 4.99 9.72214883490199
      vertex 18.342651938487272 0 9.72214883490199
      vertex 18.964466094067262 4.99 8.964466094067262
    endloop
  endfacet
  facet normal 0.9569403357322085 -3.9363150457005966e-18 -0.29028467725446355
    outer loop
      vertex 17.596073597983846 4.99 13.475451610080642
      vertex 17.880602337443566 4.99 14.41341716182545
      vertex 17.880602337443566 0 14.41341716182545
    endloop
  endfacet
  facet normal 0.8819212643483553 -3.15810706313132e-18 -0.4713967368259972
    outer loop
      vertex 17.880602337443566 4.99 14.41341716182545
      vertex 18.342651938487272 4.99 15.27785116509801
      vertex 18.342651938487272 0 15.27785116509801
    endloop
  endfacet
  facet normal 0.7730104533627367 3.535666738804856e-18 -0.6343932841636459
    outer loop
      vertex 18.342651938487272 4.99 15.27785116509801
      vertex 18.964466094067262 4.99 16.035533905932738
      vertex 18.964466094067262 0 16.035533905932738
    endloop
  endfacet
  facet normal 0.6343932841636459 3.535666738804856e-18 -0.7730104533627367
    outer loop
      vertex 18.964466094067262 4.99 16.035533905932738
      vertex 19.72214883490199 4.99 16.657348061512728
      vertex 19.72214883490199 0 16.657348061512728
    endloop
  endfacet
  facet normal 0.4713967368259972 0 -0.8819212643483553
    outer loop
      vertex 19.72214883490199 4.99 16.657348061512728
      vertex 20.58658283817455 0 17.119397662556434
      vertex 19.72214883490199 0 16.657348061512728
    endloop
  endfacet
  facet normal 0.29028467725446305 0 -0.9569403357322086
    outer loop
      vertex 20.58658283817455 4.99 17.119397662556434
      vertex 21.52454838991936 0 17.403926402016154
      vertex 20.58658283817455 0 17.119397662556434
    endloop
  endfacet
  facet normal 0.09801714032955905 0 -0.9951847266721969
    outer loop
      vertex 21.52454838991936 4.99 17.403926402016154
      vertex 22.5 0 17.5
      vertex 21.52454838991936 0 17.403926402016154
    endloop
  endfacet
  facet normal 0.4713967368259972 -3.15810706313132e-18 -0.8819212643483553
    outer loop
      vertex 19.72214883490199 4.99 16.657348061512728
      vertex 20.58658283817455 4.99 17.119397662556434
      vertex 20.58658283817455 0 17.119397662556434
    endloop
  endfacet
  facet normal 0.29028467725446305 -2.74552677941917e-18 -0.9569403357322086
    outer loop
      vertex 20.58658283817455 4.99 17.119397662556434
      vertex 21.52454838991936 4.99 17.403926402016154
      vertex 21.52454838991936 0 17.403926402016154
    endloop
  endfacet
  facet normal 0.09801714032955905 7.486920700886227e-20 -0.9951847266721969
    outer loop
      vertex 21.52454838991936 4.99 17.403926402016154
      vertex 22.5 4.99 17.5
      vertex 22.5 0 17.5
    endloop
  endfacet
  facet normal -0.09801714032956084 0 0.9951847266721968
    outer loop
      vertex 23.47545161008064 4.99 7.596073597983848
      vertex 22.5 0 7.5
      vertex 23.47545161008064 0 7.596073597983848
    endloop
  endfacet
  facet normal -0.2902846772544614 0 0.956940335732209
    outer loop
      vertex 24.41341716182545 4.99 7.880602337443566
      vertex 23.47545161008064 0 7.596073597983848
      vertex 24.41341716182545 0 7.880602337443566
    endloop
  endfacet
  facet normal -0.4713967368259987 0 0.8819212643483546
    outer loop
      vertex 25.27785116509801 4.99 8.342651938487274
      vertex 24.41341716182545 0 7.880602337443566
      vertex 25.27785116509801 0 8.342651938487274
    endloop
  endfacet
  facet normal -0.09801714032956084 0 0.9951847266721968
    outer loop
      vertex 22.5 4.99 7.5
      vertex 22.5 0 7.5
      vertex 23.47545161008064 4.99 7.596073597983848
    endloop
  endfacet
  facet normal -0.2902846772544614 0 0.956940335732209
    outer loop
      vertex 23.47545161008064 4.99 7.596073597983848
      vertex 23.47545161008064 0 7.596073597983848
      vertex 24.41341716182545 4.99 7.880602337443566
    endloop
  endfacet
  facet normal -0.4713967368259987 0 0.8819212643483546
    outer loop
      vertex 24.41341716182545 4.99 7.880602337443566
      vertex 24.41341716182545 0 7.880602337443566
      vertex 25.27785116509801 4.99 8.342651938487274
    endloop
  endfacet
  facet normal -0.6343932841636448 0 0.7730104533627374
    outer loop
      vertex 26.035533905932738 4.99 8.964466094067262
      vertex 25.27785116509801 0 8.342651938487274
      vertex 26.035533905932738 0 8.964466094067262
    endloop
  endfacet
  facet normal -0.6343932841636448 0 0.7730104533627374
    outer loop
      vertex 25.27785116509801 4.99 8.342651938487274
      vertex 25.27785116509801 0 8.342651938487274
      vertex 26.035533905932738 4.99 8.964466094067262
    endloop
  endfacet
  facet normal -0.7730104533627367 0 0.6343932841636459
    outer loop
      vertex 26.035533905932738 4.99 8.964466094067262
      vertex 26.035533905932738 0 8.964466094067262
      vertex 26.657348061512728 4.99 9.72214883490199
    endloop
  endfacet
  facet normal -0.09801714032955905 0 -0.9951847266721969
    outer loop
      vertex 22.5 4.99 17.5
      vertex 23.47545161008064 0 17.403926402016154
      vertex 22.5 0 17.5
    endloop
  endfacet
  facet normal -0.29028467725446305 0 -0.9569403357322086
    outer loop
      vertex 23.47545161008064 4.99 17.403926402016154
      vertex 24.41341716182545 0 17.119397662556434
      vertex 23.47545161008064 0 17.403926402016154
    endloop
  endfacet
  facet normal -0.4713967368259972 0 -0.8819212643483553
    outer loop
      vertex 24.41341716182545 4.99 17.119397662556434
      vertex 25.27785116509801 0 16.657348061512728
      vertex 24.41341716182545 0 17.119397662556434
    endloop
  endfacet
  facet normal -0.09801714032955905 -7.486920700886227e-20 -0.9951847266721969
    outer loop
      vertex 22.5 4.99 17.5
      vertex 23.47545161008064 4.99 17.403926402016154
      vertex 23.47545161008064 0 17.403926402016154
    endloop
  endfacet
  facet normal -0.29028467725446305 2.74552677941917e-18 -0.9569403357322086
    outer loop
      vertex 23.47545161008064 4.99 17.403926402016154
      vertex 24.41341716182545 4.99 17.119397662556434
      vertex 24.41341716182545 0 17.119397662556434
    endloop
  endfacet
  facet normal -0.4713967368259972 0 -0.8819212643483553
    outer loop
      vertex 25.27785116509801 4.99 16.657348061512728
      vertex 25.27785116509801 0 16.657348061512728
      vertex 24.41341716182545 4.99 17.119397662556434
    endloop
  endfacet
  facet normal -0.7730104533627367 0 0.6343932841636459
    outer loop
      vertex 26.657348061512728 4.99 9.72214883490199
      vertex 26.035533905932738 0 8.964466094067262
      vertex 26.657348061512728 0 9.72214883490199
    endloop
  endfacet
  facet normal -0.8819212643483553 0 0.4713967368259972
    outer loop
      vertex 27.119397662556434 4.99 10.58658283817455
      vertex 26.657348061512728 0 9.72214883490199
      vertex 27.119397662556434 0 10.58658283817455
    endloop
  endfacet
  facet normal -0.9569403357322085 0 0.29028467725446355
    outer loop
      vertex 27.403926402016154 4.99 11.524548389919358
      vertex 27.119397662556434 0 10.58658283817455
      vertex 27.403926402016154 0 11.524548389919358
    endloop
  endfacet
  facet normal -0.9951847266721972 0 0.0980171403295589
    outer loop
      vertex 27.5 4.99 12.5
      vertex 27.403926402016154 0 11.524548389919358
      vertex 27.5 0 12.5
    endloop
  endfacet
  facet normal -0.9951847266721972 0 -0.0980171403295589
    outer loop
      vertex 27.403926402016154 4.99 13.475451610080642
      vertex 27.5 0 12.5
      vertex 27.403926402016154 0 13.475451610080642
    endloop
  endfacet
  facet normal -0.7730104533627367 0 -0.6343932841636459
    outer loop
      vertex 26.035533905932738 4.99 16.035533905932738
      vertex 26.657348061512728 0 15.27785116509801
      vertex 26.035533905932738 0 16.035533905932738
    endloop
  endfacet
  facet normal -0.6343932841636459 0 -0.7730104533627367
    outer loop
      vertex 25.27785116509801 4.99 16.657348061512728
      vertex 26.035533905932738 0 16.035533905932738
      vertex 25.27785116509801 0 16.657348061512728
    endloop
  endfacet
  facet normal -0.8819212643483553 0 -0.4713967368259972
    outer loop
      vertex 26.657348061512728 4.99 15.27785116509801
      vertex 27.119397662556434 0 14.41341716182545
      vertex 26.657348061512728 0 15.27785116509801
    endloop
  endfacet
  facet normal -0.9569403357322085 0 -0.29028467725446355
    outer loop
      vertex 27.119397662556434 4.99 14.41341716182545
      vertex 27.403926402016154 0 13.475451610080642
      vertex 27.119397662556434 0 14.41341716182545
    endloop
  endfacet
  facet normal -0.8819212643483553 0 0.4713967368259972
    outer loop
      vertex 26.657348061512728 4.99 9.72214883490199
      vertex 26.657348061512728 0 9.72214883490199
      vertex 27.119397662556434 4.99 10.58658283817455
    endloop
  endfacet
  facet normal -0.9569403357322085 0 0.29028467725446355
    outer loop
      vertex 27.119397662556434 4.99 10.58658283817455
      vertex 27.119397662556434 0 10.58658283817455
      vertex 27.403926402016154 4.99 11.524548389919358
    endloop
  endfacet
  facet normal -0.9569403357322085 3.9363150457005966e-18 -0.29028467725446355
    outer loop
      vertex 27.119397662556434 4.99 14.41341716182545
      vertex 27.403926402016154 4.99 13.475451610080642
      vertex 27.403926402016154 0 13.475451610080642
    endloop
  endfacet
  facet normal -0.9951847266721972 0 0.0980171403295589
    outer loop
      vertex 27.403926402016154 4.99 11.524548389919358
      vertex 27.403926402016154 0 11.524548389919358
      vertex 27.5 4.99 12.5
    endloop
  endfacet
  facet normal -0.9951847266721972 -9.187646274017196e-19 -0.0980171403295589
    outer loop
      vertex 27.403926402016154 4.99 13.475451610080642
      vertex 27.5 4.99 12.5
      vertex 27.5 0 12.5
    endloop
  endfacet
  facet normal -0.6343932841636459 -3.535666738804856e-18 -0.7730104533627367
    outer loop
      vertex 25.27785116509801 4.99 16.657348061512728
      vertex 26.035533905932738 4.99 16.035533905932738
      vertex 26.035533905932738 0 16.035533905932738
    endloop
  endfacet
  facet normal -0.7730104533627367 -3.535666738804856e-18 -0.6343932841636459
    outer loop
      vertex 26.035533905932738 4.99 16.035533905932738
      vertex 26.657348061512728 4.99 15.27785116509801
      vertex 26.657348061512728 0 15.27785116509801
    endloop
  endfacet
  facet normal -0.8819212643483553 3.15810706313132e-18 -0.4713967368259972
    outer loop
      vertex 26.657348061512728 4.99 15.27785116509801
      vertex 27.119397662556434 4.99 14.41341716182545
      vertex 27.119397662556434 0 14.41341716182545
    endloop
  endfacet
  facet normal 0.8819212643483552 0 0.4713967368259972
    outer loop
      vertex 21.044928178470546 7.99 11.527752092215696
      vertex 21.044928178470546 30 11.527752092215696
      vertex 20.883210818105248 7.99 11.830303993361094
    endloop
  endfacet
  facet normal 0.9569403357322082 0 0.29028467725446444
    outer loop
      vertex 20.883210818105248 7.99 11.830303993361094
      vertex 20.883210818105248 30 11.830303993361094
      vertex 20.783625759294345 7.99 12.158591936471776
    endloop
  endfacet
  facet normal 0.9951847266721973 0 0.09801714032955701
    outer loop
      vertex 20.783625759294345 7.99 12.158591936471776
      vertex 20.783625759294345 30 12.158591936471776
      vertex 20.75 7.99 12.5
    endloop
  endfacet
  facet normal 0.9951847266721973 0 -0.09801714032955701
    outer loop
      vertex 20.75 7.99 12.5
      vertex 20.75 30 12.5
      vertex 20.783625759294345 7.99 12.841408063528224
    endloop
  endfacet
  facet normal 0.9569403357322082 0 -0.29028467725446444
    outer loop
      vertex 20.783625759294345 7.99 12.841408063528224
      vertex 20.783625759294345 30 12.841408063528224
      vertex 20.883210818105248 7.99 13.169696006638906
    endloop
  endfacet
  facet normal 0.8819212643483552 0 -0.4713967368259972
    outer loop
      vertex 20.883210818105248 7.99 13.169696006638906
      vertex 20.883210818105248 30 13.169696006638906
      vertex 21.044928178470546 7.99 13.472247907784304
    endloop
  endfacet
  facet normal 0.6343932841636484 0 0.7730104533627347
    outer loop
      vertex 21.527752092215696 7.99 11.044928178470546
      vertex 21.527752092215696 30 11.044928178470546
      vertex 21.262563132923542 7.99 11.262563132923542
    endloop
  endfacet
  facet normal 0.7730104533627347 -3.9318859201858663e-20 0.6343932841636484
    outer loop
      vertex 21.044928178470546 7.99 11.527752092215696
      vertex 21.262563132923542 7.99 11.262563132923542
      vertex 21.262563132923542 30 11.262563132923542
    endloop
  endfacet
  facet normal 0.4713967368259994 4.098731592143428e-19 0.8819212643483542
    outer loop
      vertex 21.527752092215696 7.99 11.044928178470546
      vertex 21.830303993361092 7.99 10.883210818105248
      vertex 21.830303993361092 30 10.883210818105248
    endloop
  endfacet
  facet normal 0.2902846772544583 -9.456110315780768e-20 0.9569403357322102
    outer loop
      vertex 21.830303993361092 7.99 10.883210818105248
      vertex 22.158591936471776 7.99 10.783625759294347
      vertex 22.158591936471776 30 10.783625759294347
    endloop
  endfacet
  facet normal 0.09801714032956212 -1.0728329971448146e-19 0.9951847266721967
    outer loop
      vertex 22.158591936471776 7.99 10.783625759294347
      vertex 22.5 7.99 10.75
      vertex 22.5 30 10.75
    endloop
  endfacet
  facet normal 0.7730104533627347 0 -0.6343932841636484
    outer loop
      vertex 21.044928178470546 7.99 13.472247907784304
      vertex 21.044928178470546 30 13.472247907784304
      vertex 21.262563132923542 7.99 13.737436867076458
    endloop
  endfacet
  facet normal 0.6343932841636484 0 -0.7730104533627347
    outer loop
      vertex 21.262563132923542 7.99 13.737436867076458
      vertex 21.262563132923542 30 13.737436867076458
      vertex 21.527752092215696 7.99 13.955071821529454
    endloop
  endfacet
  facet normal 0.4713967368259994 0 -0.8819212643483542
    outer loop
      vertex 21.527752092215696 7.99 13.955071821529454
      vertex 21.527752092215696 30 13.955071821529454
      vertex 21.830303993361092 7.99 14.116789181894752
    endloop
  endfacet
  facet normal 0.2902846772544583 0 -0.9569403357322102
    outer loop
      vertex 21.830303993361092 7.99 14.116789181894752
      vertex 21.830303993361092 30 14.116789181894752
      vertex 22.158591936471776 7.99 14.216374240705653
    endloop
  endfacet
  facet normal 0.09801714032956212 0 -0.9951847266721967
    outer loop
      vertex 22.158591936471776 7.99 14.216374240705653
      vertex 22.158591936471776 30 14.216374240705653
      vertex 22.5 7.99 14.25
    endloop
  endfacet
  facet normal 0.9569403357322082 0 0.29028467725446444
    outer loop
      vertex 20.783625759294345 7.99 12.158591936471776
      vertex 20.883210818105248 30 11.830303993361094
      vertex 20.783625759294345 30 12.158591936471776
    endloop
  endfacet
  facet normal 0.8819212643483552 0 0.4713967368259972
    outer loop
      vertex 20.883210818105248 7.99 11.830303993361094
      vertex 21.044928178470546 30 11.527752092215696
      vertex 20.883210818105248 30 11.830303993361094
    endloop
  endfacet
  facet normal 0.9951847266721973 0 0.09801714032955701
    outer loop
      vertex 20.75 7.99 12.5
      vertex 20.783625759294345 30 12.158591936471776
      vertex 20.75 30 12.5
    endloop
  endfacet
  facet normal 0.9951847266721973 0 -0.09801714032955701
    outer loop
      vertex 20.783625759294345 7.99 12.841408063528224
      vertex 20.75 30 12.5
      vertex 20.783625759294345 30 12.841408063528224
    endloop
  endfacet
  facet normal 0.9569403357322082 0 -0.29028467725446444
    outer loop
      vertex 20.883210818105248 7.99 13.169696006638906
      vertex 20.783625759294345 30 12.841408063528224
      vertex 20.883210818105248 30 13.169696006638906
    endloop
  endfacet
  facet normal 0.8819212643483552 0 -0.4713967368259972
    outer loop
      vertex 21.044928178470546 7.99 13.472247907784304
      vertex 20.883210818105248 30 13.169696006638906
      vertex 21.044928178470546 30 13.472247907784304
    endloop
  endfacet
  facet normal 0.7730104533627347 0 0.6343932841636484
    outer loop
      vertex 21.044928178470546 7.99 11.527752092215696
      vertex 21.262563132923542 30 11.262563132923542
      vertex 21.044928178470546 30 11.527752092215696
    endloop
  endfacet
  facet normal 0.6343932841636484 0 0.7730104533627347
    outer loop
      vertex 21.262563132923542 7.99 11.262563132923542
      vertex 21.527752092215696 30 11.044928178470546
      vertex 21.262563132923542 30 11.262563132923542
    endloop
  endfacet
  facet normal 0.4713967368259994 0 0.8819212643483542
    outer loop
      vertex 21.527752092215696 7.99 11.044928178470546
      vertex 21.830303993361092 30 10.883210818105248
      vertex 21.527752092215696 30 11.044928178470546
    endloop
  endfacet
  facet normal 0.2902846772544583 0 0.9569403357322102
    outer loop
      vertex 21.830303993361092 7.99 10.883210818105248
      vertex 22.158591936471776 30 10.783625759294347
      vertex 21.830303993361092 30 10.883210818105248
    endloop
  endfacet
  facet normal 0.09801714032956212 0 0.9951847266721967
    outer loop
      vertex 22.158591936471776 7.99 10.783625759294347
      vertex 22.5 30 10.75
      vertex 22.158591936471776 30 10.783625759294347
    endloop
  endfacet
  facet normal 0.7730104533627347 0 -0.6343932841636484
    outer loop
      vertex 21.262563132923542 7.99 13.737436867076458
      vertex 21.044928178470546 30 13.472247907784304
      vertex 21.262563132923542 30 13.737436867076458
    endloop
  endfacet
  facet normal 0.6343932841636484 0 -0.7730104533627347
    outer loop
      vertex 21.527752092215696 7.99 13.955071821529454
      vertex 21.262563132923542 30 13.737436867076458
      vertex 21.527752092215696 30 13.955071821529454
    endloop
  endfacet
  facet normal 0.4713967368259994 0 -0.8819212643483542
    outer loop
      vertex 21.830303993361092 7.99 14.116789181894752
      vertex 21.527752092215696 30 13.955071821529454
      vertex 21.830303993361092 30 14.116789181894752
    endloop
  endfacet
  facet normal 0.2902846772544583 0 -0.9569403357322102
    outer loop
      vertex 22.158591936471776 7.99 14.216374240705653
      vertex 21.830303993361092 30 14.116789181894752
      vertex 22.158591936471776 30 14.216374240705653
    endloop
  endfacet
  facet normal 0.09801714032956212 0 -0.9951847266721967
    outer loop
      vertex 22.5 7.99 14.25
      vertex 22.158591936471776 30 14.216374240705653
      vertex 22.5 30 14.25
    endloop
  endfacet
  facet normal -0.09801714032956212 1.0728329971448146e-19 0.9951847266721967
    outer loop
      vertex 22.5 7.99 10.75
      vertex 22.841408063528224 7.99 10.783625759294347
      vertex 22.841408063528224 30 10.783625759294347
    endloop
  endfacet
  facet normal -0.2902846772544583 9.456110315780768e-20 0.9569403357322102
    outer loop
      vertex 22.841408063528224 7.99 10.783625759294347
      vertex 23.169696006638908 7.99 10.883210818105248
      vertex 23.169696006638908 30 10.883210818105248
    endloop
  endfacet
  facet normal -0.4713967368259994 -4.098731592143428e-19 0.8819212643483542
    outer loop
      vertex 23.169696006638908 7.99 10.883210818105248
      vertex 23.472247907784304 7.99 11.044928178470546
      vertex 23.472247907784304 30 11.044928178470546
    endloop
  endfacet
  facet normal -0.6343932841636484 3.9318859201858663e-20 0.7730104533627347
    outer loop
      vertex 23.472247907784304 7.99 11.044928178470546
      vertex 23.737436867076458 7.99 11.262563132923542
      vertex 23.737436867076458 30 11.262563132923542
    endloop
  endfacet
  facet normal -0.7730104533627347 3.9318859201858663e-20 0.6343932841636484
    outer loop
      vertex 23.737436867076458 7.99 11.262563132923542
      vertex 23.955071821529454 7.99 11.527752092215696
      vertex 23.955071821529454 30 11.527752092215696
    endloop
  endfacet
  facet normal -0.6343932841636484 0 -0.7730104533627347
    outer loop
      vertex 23.472247907784304 7.99 13.955071821529454
      vertex 23.472247907784304 30 13.955071821529454
      vertex 23.737436867076458 7.99 13.737436867076458
    endloop
  endfacet
  facet normal -0.7730104533627347 0 -0.6343932841636484
    outer loop
      vertex 23.737436867076458 7.99 13.737436867076458
      vertex 23.737436867076458 30 13.737436867076458
      vertex 23.955071821529454 7.99 13.472247907784304
    endloop
  endfacet
  facet normal -0.8819212643483552 -4.261309556376087e-20 0.4713967368259972
    outer loop
      vertex 23.955071821529454 7.99 11.527752092215696
      vertex 24.116789181894752 7.99 11.830303993361094
      vertex 24.116789181894752 30 11.830303993361094
    endloop
  endfacet
  facet normal -0.9569403357322082 -3.208688138273751e-19 0.29028467725446444
    outer loop
      vertex 24.116789181894752 7.99 11.830303993361094
      vertex 24.216374240705655 7.99 12.158591936471776
      vertex 24.216374240705655 30 12.158591936471776
    endloop
  endfacet
  facet normal -0.9951847266721973 -3.0988461741042534e-20 0.09801714032955701
    outer loop
      vertex 24.216374240705655 7.99 12.158591936471776
      vertex 24.25 7.99 12.5
      vertex 24.25 30 12.5
    endloop
  endfacet
  facet normal -0.9951847266721973 3.0988461741042534e-20 -0.09801714032955701
    outer loop
      vertex 24.25 7.99 12.5
      vertex 24.216374240705655 7.99 12.841408063528224
      vertex 24.216374240705655 30 12.841408063528224
    endloop
  endfacet
  facet normal -0.8819212643483552 4.261309556376087e-20 -0.4713967368259972
    outer loop
      vertex 24.116789181894752 7.99 13.169696006638906
      vertex 23.955071821529454 7.99 13.472247907784304
      vertex 23.955071821529454 30 13.472247907784304
    endloop
  endfacet
  facet normal -0.9569403357322082 0 -0.29028467725446444
    outer loop
      vertex 24.116789181894752 7.99 13.169696006638906
      vertex 24.116789181894752 30 13.169696006638906
      vertex 24.216374240705655 7.99 12.841408063528224
    endloop
  endfacet
  facet normal -0.09801714032956212 0 -0.9951847266721967
    outer loop
      vertex 22.5 7.99 14.25
      vertex 22.5 30 14.25
      vertex 22.841408063528224 7.99 14.216374240705653
    endloop
  endfacet
  facet normal -0.2902846772544583 0 -0.9569403357322102
    outer loop
      vertex 22.841408063528224 7.99 14.216374240705653
      vertex 22.841408063528224 30 14.216374240705653
      vertex 23.169696006638908 7.99 14.116789181894752
    endloop
  endfacet
  facet normal -0.4713967368259994 0 -0.8819212643483542
    outer loop
      vertex 23.169696006638908 7.99 14.116789181894752
      vertex 23.169696006638908 30 14.116789181894752
      vertex 23.472247907784304 7.99 13.955071821529454
    endloop
  endfacet
  facet normal -0.09801714032956212 0 0.9951847266721967
    outer loop
      vertex 22.5 7.99 10.75
      vertex 22.841408063528224 30 10.783625759294347
      vertex 22.5 30 10.75
    endloop
  endfacet
  facet normal -0.2902846772544583 0 0.9569403357322102
    outer loop
      vertex 22.841408063528224 7.99 10.783625759294347
      vertex 23.169696006638908 30 10.883210818105248
      vertex 22.841408063528224 30 10.783625759294347
    endloop
  endfacet
  facet normal -0.4713967368259994 0 0.8819212643483542
    outer loop
      vertex 23.169696006638908 7.99 10.883210818105248
      vertex 23.472247907784304 30 11.044928178470546
      vertex 23.169696006638908 30 10.883210818105248
    endloop
  endfacet
  facet normal -0.6343932841636484 0 0.7730104533627347
    outer loop
      vertex 23.472247907784304 7.99 11.044928178470546
      vertex 23.737436867076458 30 11.262563132923542
      vertex 23.472247907784304 30 11.044928178470546
    endloop
  endfacet
  facet normal -0.7730104533627347 0 0.6343932841636484
    outer loop
      vertex 23.737436867076458 7.99 11.262563132923542
      vertex 23.955071821529454 30 11.527752092215696
      vertex 23.737436867076458 30 11.262563132923542
    endloop
  endfacet
  facet normal -0.4713967368259994 0 -0.8819212643483542
    outer loop
      vertex 23.472247907784304 7.99 13.955071821529454
      vertex 23.169696006638908 30 14.116789181894752
      vertex 23.472247907784304 30 13.955071821529454
    endloop
  endfacet
  facet normal -0.6343932841636484 0 -0.7730104533627347
    outer loop
      vertex 23.737436867076458 7.99 13.737436867076458
      vertex 23.472247907784304 30 13.955071821529454
      vertex 23.737436867076458 30 13.737436867076458
    endloop
  endfacet
  facet normal -0.7730104533627347 0 -0.6343932841636484
    outer loop
      vertex 23.955071821529454 7.99 13.472247907784304
      vertex 23.737436867076458 30 13.737436867076458
      vertex 23.955071821529454 30 13.472247907784304
    endloop
  endfacet
  facet normal -0.8819212643483552 0 0.4713967368259972
    outer loop
      vertex 23.955071821529454 7.99 11.527752092215696
      vertex 24.116789181894752 30 11.830303993361094
      vertex 23.955071821529454 30 11.527752092215696
    endloop
  endfacet
  facet normal -0.9569403357322082 0 0.29028467725446444
    outer loop
      vertex 24.116789181894752 7.99 11.830303993361094
      vertex 24.216374240705655 30 12.158591936471776
      vertex 24.116789181894752 30 11.830303993361094
    endloop
  endfacet
  facet normal -0.9951847266721973 0 0.09801714032955701
    outer loop
      vertex 24.216374240705655 7.99 12.158591936471776
      vertex 24.25 30 12.5
      vertex 24.216374240705655 30 12.158591936471776
    endloop
  endfacet
  facet normal -0.9951847266721973 0 -0.09801714032955701
    outer loop
      vertex 24.25 7.99 12.5
      vertex 24.216374240705655 30 12.841408063528224
      vertex 24.25 30 12.5
    endloop
  endfacet
  facet normal -0.8819212643483552 0 -0.4713967368259972
    outer loop
      vertex 24.116789181894752 7.99 13.169696006638906
      vertex 23.955071821529454 30 13.472247907784304
      vertex 24.116789181894752 30 13.169696006638906
    endloop
  endfacet
  facet normal -0.9569403357322082 0 -0.29028467725446444
    outer loop
      vertex 24.216374240705655 7.99 12.841408063528224
      vertex 24.116789181894752 30 13.169696006638906
      vertex 24.216374240705655 30 12.841408063528224
    endloop
  endfacet
  facet normal -0.09801714032956212 0 -0.9951847266721967
    outer loop
      vertex 22.841408063528224 7.99 14.216374240705653
      vertex 22.5 30 14.25
      vertex 22.841408063528224 30 14.216374240705653
    endloop
  endfacet
  facet normal -0.2902846772544583 0 -0.9569403357322102
    outer loop
      vertex 23.169696006638908 7.99 14.116789181894752
      vertex 22.841408063528224 30 14.216374240705653
      vertex 23.169696006638908 30 14.116789181894752
    endloop
  endfacet
  facet normal 0.3205715682887242 -0.7331692442489723 0.5997472208291578
    outer loop
      vertex 19.72214883490199 4.99 8.342651938487274
      vertex 20.58658283817455 4.99 7.880602337443566
      vertex 21.527752092215696 7.99 11.044928178470546
    endloop
  endfacet
  facet normal 0.19740699705352005 -0.7331692442489723 0.6507636566386465
    outer loop
      vertex 20.58658283817455 4.99 7.880602337443566
      vertex 21.52454838991936 4.99 7.596073597983848
      vertex 21.830303993361092 7.99 10.883210818105248
    endloop
  endfacet
  facet normal 0.06665618562867046 -0.7331692442489725 0.6767716100759745
    outer loop
      vertex 21.52454838991936 4.99 7.596073597983848
      vertex 22.5 4.99 7.5
      vertex 22.158591936471776 7.99 10.783625759294347
    endloop
  endfacet
  facet normal 0.6507636566386462 -0.7331692442489726 0.19740699705352152
    outer loop
      vertex 17.596073597983846 4.99 11.524548389919358
      vertex 17.880602337443566 4.99 10.58658283817455
      vertex 20.783625759294345 7.99 12.158591936471776
    endloop
  endfacet
  facet normal 0.5256828356653214 -0.7331692442489725 0.4314167539331978
    outer loop
      vertex 18.342651938487272 4.99 9.72214883490199
      vertex 18.964466094067262 4.99 8.964466094067262
      vertex 21.044928178470546 7.99 11.527752092215696
    endloop
  endfacet
  facet normal 0.5997472208291581 -0.7331692442489725 0.3205715682887232
    outer loop
      vertex 17.880602337443566 4.99 10.58658283817455
      vertex 18.342651938487272 4.99 9.72214883490199
      vertex 20.883210818105248 7.99 11.830303993361094
    endloop
  endfacet
  facet normal 0.6767716100759746 -0.7331692442489726 0.06665618562866911
    outer loop
      vertex 17.596073597983846 4.99 11.524548389919358
      vertex 20.75 7.99 12.5
      vertex 17.5 4.99 12.5
    endloop
  endfacet
  facet normal 0.6767716100759746 -0.7331692442489726 -0.06665618562866911
    outer loop
      vertex 17.5 4.99 12.5
      vertex 20.75 7.99 12.5
      vertex 17.596073597983846 4.99 13.475451610080642
    endloop
  endfacet
  facet normal 0.6507636566386462 -0.7331692442489726 -0.19740699705352152
    outer loop
      vertex 17.596073597983846 4.99 13.475451610080642
      vertex 20.783625759294345 7.99 12.841408063528224
      vertex 17.880602337443566 4.99 14.41341716182545
    endloop
  endfacet
  facet normal 0.5997472208291581 -0.7331692442489725 -0.3205715682887232
    outer loop
      vertex 17.880602337443566 4.99 14.41341716182545
      vertex 20.883210818105248 7.99 13.169696006638906
      vertex 18.342651938487272 4.99 15.27785116509801
    endloop
  endfacet
  facet normal 0.5256828356653214 -0.7331692442489723 -0.4314167539331978
    outer loop
      vertex 18.342651938487272 4.99 15.27785116509801
      vertex 21.044928178470546 7.99 13.472247907784304
      vertex 18.964466094067262 4.99 16.035533905932738
    endloop
  endfacet
  facet normal 0.431416753933197 -0.7331692442489725 0.5256828356653219
    outer loop
      vertex 18.964466094067262 4.99 8.964466094067262
      vertex 19.72214883490199 4.99 8.342651938487274
      vertex 21.262563132923542 7.99 11.262563132923542
    endloop
  endfacet
  facet normal 0.6507636566386459 -0.7331692442489725 0.19740699705352208
    outer loop
      vertex 17.880602337443566 4.99 10.58658283817455
      vertex 20.883210818105248 7.99 11.830303993361094
      vertex 20.783625759294345 7.99 12.158591936471776
    endloop
  endfacet
  facet normal 0.5997472208291583 -0.7331692442489725 0.3205715682887233
    outer loop
      vertex 18.342651938487272 4.99 9.72214883490199
      vertex 21.044928178470546 7.99 11.527752092215696
      vertex 20.883210818105248 7.99 11.830303993361094
    endloop
  endfacet
  facet normal 0.4314167539331997 -0.733169244248972 0.5256828356653204
    outer loop
      vertex 19.72214883490199 4.99 8.342651938487274
      vertex 21.527752092215696 7.99 11.044928178470546
      vertex 21.262563132923542 7.99 11.262563132923542
    endloop
  endfacet
  facet normal 0.5256828356653199 -0.7331692442489727 0.43141675393319934
    outer loop
      vertex 18.964466094067262 4.99 8.964466094067262
      vertex 21.262563132923542 7.99 11.262563132923542
      vertex 21.044928178470546 7.99 11.527752092215696
    endloop
  endfacet
  facet normal 0.6767716100759749 -0.7331692442489723 0.06665618562866786
    outer loop
      vertex 17.596073597983846 4.99 11.524548389919358
      vertex 20.783625759294345 7.99 12.158591936471776
      vertex 20.75 7.99 12.5
    endloop
  endfacet
  facet normal 0.6767716100759747 -0.7331692442489725 -0.06665618562866785
    outer loop
      vertex 17.596073597983846 4.99 13.475451610080642
      vertex 20.75 7.99 12.5
      vertex 20.783625759294345 7.99 12.841408063528224
    endloop
  endfacet
  facet normal 0.6507636566386459 -0.7331692442489726 -0.19740699705352205
    outer loop
      vertex 17.880602337443566 4.99 14.41341716182545
      vertex 20.783625759294345 7.99 12.841408063528224
      vertex 20.883210818105248 7.99 13.169696006638906
    endloop
  endfacet
  facet normal 0.5997472208291582 -0.7331692442489725 -0.3205715682887233
    outer loop
      vertex 18.342651938487272 4.99 15.27785116509801
      vertex 20.883210818105248 7.99 13.169696006638906
      vertex 21.044928178470546 7.99 13.472247907784304
    endloop
  endfacet
  facet normal 0.3205715682887248 -0.7331692442489723 0.5997472208291575
    outer loop
      vertex 20.58658283817455 4.99 7.880602337443566
      vertex 21.830303993361092 7.99 10.883210818105248
      vertex 21.527752092215696 7.99 11.044928178470546
    endloop
  endfacet
  facet normal 0.1974069970535178 -0.7331692442489726 0.650763656638647
    outer loop
      vertex 21.52454838991936 4.99 7.596073597983848
      vertex 22.158591936471776 7.99 10.783625759294347
      vertex 21.830303993361092 7.99 10.883210818105248
    endloop
  endfacet
  facet normal 0.06665618562867134 -0.7331692442489723 0.6767716100759745
    outer loop
      vertex 22.5 4.99 7.5
      vertex 22.5 7.99 10.75
      vertex 22.158591936471776 7.99 10.783625759294347
    endloop
  endfacet
  facet normal 0.4314167539331978 -0.7331692442489727 -0.5256828356653214
    outer loop
      vertex 18.964466094067262 4.99 16.035533905932738
      vertex 21.262563132923542 7.99 13.737436867076458
      vertex 19.72214883490199 4.99 16.657348061512728
    endloop
  endfacet
  facet normal 0.32057156828872324 -0.7331692442489726 -0.5997472208291582
    outer loop
      vertex 19.72214883490199 4.99 16.657348061512728
      vertex 21.527752092215696 7.99 13.955071821529454
      vertex 20.58658283817455 4.99 17.119397662556434
    endloop
  endfacet
  facet normal 0.5256828356653198 -0.7331692442489728 -0.4314167539331993
    outer loop
      vertex 18.964466094067262 4.99 16.035533905932738
      vertex 21.044928178470546 7.99 13.472247907784304
      vertex 21.262563132923542 7.99 13.737436867076458
    endloop
  endfacet
  facet normal 0.43141675393319956 -0.7331692442489721 -0.5256828356653203
    outer loop
      vertex 19.72214883490199 4.99 16.657348061512728
      vertex 21.262563132923542 7.99 13.737436867076458
      vertex 21.527752092215696 7.99 13.955071821529454
    endloop
  endfacet
  facet normal 0.19740699705352116 -0.7331692442489725 -0.6507636566386462
    outer loop
      vertex 20.58658283817455 4.99 17.119397662556434
      vertex 21.830303993361092 7.99 14.116789181894752
      vertex 21.52454838991936 4.99 17.403926402016154
    endloop
  endfacet
  facet normal 0.06665618562866922 -0.7331692442489726 -0.6767716100759745
    outer loop
      vertex 21.52454838991936 4.99 17.403926402016154
      vertex 22.158591936471776 7.99 14.216374240705653
      vertex 22.5 4.99 17.5
    endloop
  endfacet
  facet normal 0.32057156828872485 -0.7331692442489723 -0.5997472208291577
    outer loop
      vertex 20.58658283817455 4.99 17.119397662556434
      vertex 21.527752092215696 7.99 13.955071821529454
      vertex 21.830303993361092 7.99 14.116789181894752
    endloop
  endfacet
  facet normal 0.19740699705351777 -0.7331692442489728 -0.6507636566386469
    outer loop
      vertex 21.52454838991936 4.99 17.403926402016154
      vertex 21.830303993361092 7.99 14.116789181894752
      vertex 22.158591936471776 7.99 14.216374240705653
    endloop
  endfacet
  facet normal 0.06665618562867134 -0.7331692442489723 -0.6767716100759745
    outer loop
      vertex 22.5 4.99 17.5
      vertex 22.158591936471776 7.99 14.216374240705653
      vertex 22.5 7.99 14.25
    endloop
  endfacet
  facet normal -0.06665618562867046 -0.7331692442489725 0.6767716100759745
    outer loop
      vertex 22.5 4.99 7.5
      vertex 23.47545161008064 4.99 7.596073597983848
      vertex 22.841408063528224 7.99 10.783625759294347
    endloop
  endfacet
  facet normal -0.19740699705352005 -0.7331692442489723 0.6507636566386465
    outer loop
      vertex 23.47545161008064 4.99 7.596073597983848
      vertex 24.41341716182545 4.99 7.880602337443566
      vertex 23.169696006638908 7.99 10.883210818105248
    endloop
  endfacet
  facet normal -0.3205715682887242 -0.7331692442489723 0.5997472208291578
    outer loop
      vertex 24.41341716182545 4.99 7.880602337443566
      vertex 25.27785116509801 4.99 8.342651938487274
      vertex 23.472247907784304 7.99 11.044928178470546
    endloop
  endfacet
  facet normal -0.06665618562867134 -0.7331692442489723 0.6767716100759745
    outer loop
      vertex 22.5 4.99 7.5
      vertex 22.841408063528224 7.99 10.783625759294347
      vertex 22.5 7.99 10.75
    endloop
  endfacet
  facet normal -0.19740699705351783 -0.7331692442489726 0.6507636566386471
    outer loop
      vertex 23.47545161008064 4.99 7.596073597983848
      vertex 23.169696006638908 7.99 10.883210818105248
      vertex 22.841408063528224 7.99 10.783625759294347
    endloop
  endfacet
  facet normal -0.32057156828872485 -0.7331692442489723 0.5997472208291577
    outer loop
      vertex 24.41341716182545 4.99 7.880602337443566
      vertex 23.472247907784304 7.99 11.044928178470546
      vertex 23.169696006638908 7.99 10.883210818105248
    endloop
  endfacet
  facet normal -0.431416753933197 -0.7331692442489725 0.5256828356653219
    outer loop
      vertex 25.27785116509801 4.99 8.342651938487274
      vertex 26.035533905932738 4.99 8.964466094067262
      vertex 23.737436867076458 7.99 11.262563132923542
    endloop
  endfacet
  facet normal -0.4314167539331995 -0.7331692442489723 0.5256828356653201
    outer loop
      vertex 25.27785116509801 4.99 8.342651938487274
      vertex 23.737436867076458 7.99 11.262563132923542
      vertex 23.472247907784304 7.99 11.044928178470546
    endloop
  endfacet
  facet normal -0.5256828356653198 -0.7331692442489728 0.4314167539331993
    outer loop
      vertex 26.035533905932738 4.99 8.964466094067262
      vertex 23.955071821529454 7.99 11.527752092215696
      vertex 23.737436867076458 7.99 11.262563132923542
    endloop
  endfacet
  facet normal -0.5997472208291582 -0.7331692442489725 0.3205715682887233
    outer loop
      vertex 26.657348061512728 4.99 9.72214883490199
      vertex 24.116789181894752 7.99 11.830303993361094
      vertex 23.955071821529454 7.99 11.527752092215696
    endloop
  endfacet
  facet normal -0.6507636566386459 -0.7331692442489726 0.19740699705352205
    outer loop
      vertex 27.119397662556434 4.99 10.58658283817455
      vertex 24.216374240705655 7.99 12.158591936471776
      vertex 24.116789181894752 7.99 11.830303993361094
    endloop
  endfacet
  facet normal -0.6767716100759747 -0.7331692442489725 0.06665618562866785
    outer loop
      vertex 27.403926402016154 4.99 11.524548389919358
      vertex 24.25 7.99 12.5
      vertex 24.216374240705655 7.99 12.158591936471776
    endloop
  endfacet
  facet normal -0.5997472208291583 -0.7331692442489725 -0.3205715682887233
    outer loop
      vertex 26.657348061512728 4.99 15.27785116509801
      vertex 23.955071821529454 7.99 13.472247907784304
      vertex 24.116789181894752 7.99 13.169696006638906
    endloop
  endfacet
  facet normal -0.6767716100759749 -0.7331692442489723 -0.06665618562866786
    outer loop
      vertex 27.403926402016154 4.99 13.475451610080642
      vertex 24.216374240705655 7.99 12.841408063528224
      vertex 24.25 7.99 12.5
    endloop
  endfacet
  facet normal -0.6507636566386459 -0.7331692442489725 -0.19740699705352208
    outer loop
      vertex 27.119397662556434 4.99 14.41341716182545
      vertex 24.116789181894752 7.99 13.169696006638906
      vertex 24.216374240705655 7.99 12.841408063528224
    endloop
  endfacet
  facet normal -0.06665618562866923 -0.7331692442489726 -0.6767716100759746
    outer loop
      vertex 22.5 4.99 17.5
      vertex 22.5 7.99 14.25
      vertex 23.47545161008064 4.99 17.403926402016154
    endloop
  endfacet
  facet normal -0.19740699705352116 -0.7331692442489725 -0.6507636566386462
    outer loop
      vertex 23.47545161008064 4.99 17.403926402016154
      vertex 23.169696006638908 7.99 14.116789181894752
      vertex 24.41341716182545 4.99 17.119397662556434
    endloop
  endfacet
  facet normal -0.0666561856286713 -0.7331692442489727 -0.6767716100759741
    outer loop
      vertex 22.5 7.99 14.25
      vertex 22.841408063528224 7.99 14.216374240705653
      vertex 23.47545161008064 4.99 17.403926402016154
    endloop
  endfacet
  facet normal -0.19740699705351777 -0.7331692442489728 -0.6507636566386469
    outer loop
      vertex 23.47545161008064 4.99 17.403926402016154
      vertex 22.841408063528224 7.99 14.216374240705653
      vertex 23.169696006638908 7.99 14.116789181894752
    endloop
  endfacet
  facet normal -0.3205715682887248 -0.7331692442489723 -0.5997472208291575
    outer loop
      vertex 24.41341716182545 4.99 17.119397662556434
      vertex 23.169696006638908 7.99 14.116789181894752
      vertex 23.472247907784304 7.99 13.955071821529454
    endloop
  endfacet
  facet normal -0.32057156828872324 -0.7331692442489726 -0.5997472208291582
    outer loop
      vertex 25.27785116509801 4.99 16.657348061512728
      vertex 24.41341716182545 4.99 17.119397662556434
      vertex 23.472247907784304 7.99 13.955071821529454
    endloop
  endfacet
  facet normal -0.4314167539331978 -0.7331692442489727 -0.5256828356653214
    outer loop
      vertex 25.27785116509801 4.99 16.657348061512728
      vertex 23.737436867076458 7.99 13.737436867076458
      vertex 26.035533905932738 4.99 16.035533905932738
    endloop
  endfacet
  facet normal -0.4314167539331995 -0.7331692442489723 -0.5256828356653201
    outer loop
      vertex 25.27785116509801 4.99 16.657348061512728
      vertex 23.472247907784304 7.99 13.955071821529454
      vertex 23.737436867076458 7.99 13.737436867076458
    endloop
  endfacet
  facet normal -0.5256828356653199 -0.7331692442489727 -0.43141675393319934
    outer loop
      vertex 26.035533905932738 4.99 16.035533905932738
      vertex 23.737436867076458 7.99 13.737436867076458
      vertex 23.955071821529454 7.99 13.472247907784304
    endloop
  endfacet
  facet normal -0.5256828356653214 -0.7331692442489725 0.4314167539331978
    outer loop
      vertex 26.035533905932738 4.99 8.964466094067262
      vertex 26.657348061512728 4.99 9.72214883490199
      vertex 23.955071821529454 7.99 11.527752092215696
    endloop
  endfacet
  facet normal -0.5997472208291581 -0.7331692442489725 0.3205715682887232
    outer loop
      vertex 26.657348061512728 4.99 9.72214883490199
      vertex 27.119397662556434 4.99 10.58658283817455
      vertex 24.116789181894752 7.99 11.830303993361094
    endloop
  endfacet
  facet normal -0.6507636566386462 -0.7331692442489726 0.19740699705352152
    outer loop
      vertex 27.119397662556434 4.99 10.58658283817455
      vertex 27.403926402016154 4.99 11.524548389919358
      vertex 24.216374240705655 7.99 12.158591936471776
    endloop
  endfacet
  facet normal -0.6767716100759746 -0.7331692442489726 0.06665618562866911
    outer loop
      vertex 27.403926402016154 4.99 11.524548389919358
      vertex 27.5 4.99 12.5
      vertex 24.25 7.99 12.5
    endloop
  endfacet
  facet normal -0.6767716100759746 -0.7331692442489726 -0.06665618562866911
    outer loop
      vertex 27.403926402016154 4.99 13.475451610080642
      vertex 24.25 7.99 12.5
      vertex 27.5 4.99 12.5
    endloop
  endfacet
  facet normal -0.6507636566386462 -0.7331692442489726 -0.19740699705352152
    outer loop
      vertex 27.119397662556434 4.99 14.41341716182545
      vertex 24.216374240705655 7.99 12.841408063528224
      vertex 27.403926402016154 4.99 13.475451610080642
    endloop
  endfacet
  facet normal -0.5256828356653214 -0.7331692442489723 -0.4314167539331978
    outer loop
      vertex 26.035533905932738 4.99 16.035533905932738
      vertex 23.955071821529454 7.99 13.472247907784304
      vertex 26.657348061512728 4.99 15.27785116509801
    endloop
  endfacet
  facet normal -0.5997472208291582 -0.7331692442489725 -0.32057156828872324
    outer loop
      vertex 26.657348061512728 4.99 15.27785116509801
      vertex 24.116789181894752 7.99 13.169696006638906
      vertex 27.119397662556434 4.99 14.41341716182545
    endloop
  endfacet
  facet normal 0 -1 0
    outer loop
      vertex 0 0 0
      vertex 8.357864376269049 0 38.35786437626905
      vertex 5.870607753949095 0 41.38859533960796
    endloop
  endfacet
  facet normal 0 -1 0
    outer loop
      vertex 0 0 0
      vertex 4.022409349774264 0 44.8463313526982
      vertex 2.8842943919353914 0 48.59819355967743
    endloop
  endfacet
  facet normal 0 -1 0
    outer loop
      vertex 0 0 0
      vertex 5.870607753949095 0 41.38859533960796
      vertex 4.022409349774264 0 44.8463313526982
    endloop
  endfacet
  facet normal 0 -1 0
    outer loop
      vertex 0 0 0
      vertex 11.388595339607956 0 35.870607753949095
      vertex 8.357864376269049 0 38.35786437626905
    endloop
  endfacet
  facet normal 0 -1 0
    outer loop
      vertex 0 0 0
      vertex 14.846331352698204 0 34.022409349774264
      vertex 11.388595339607956 0 35.870607753949095
    endloop
  endfacet
  facet normal 0 -1 0
    outer loop
      vertex 0 0 0
      vertex 18.598193559677433 0 32.88429439193539
      vertex 14.846331352698204 0 34.022409349774264
    endloop
  endfacet
  facet normal -1 0 0
    outer loop
      vertex 0 0 0
      vertex 0 0 75
      vertex 0 25 25
    endloop
  endfacet
  facet normal 0 -1 0
    outer loop
      vertex 0 0 0
      vertex 18.342651938487272 0 9.72214883490199
      vertex 17.880602337443566 0 10.58658283817455
    endloop
  endfacet
  facet normal 0 -1 0
    outer loop
      vertex 0 0 0
      vertex 18.964466094067262 0 8.964466094067262
      vertex 18.342651938487272 0 9.72214883490199
    endloop
  endfacet
  facet normal 0 -1 0
    outer loop
      vertex 0 0 0
      vertex 17.880602337443566 0 10.58658283817455
      vertex 17.596073597983846 0 11.524548389919358
    endloop
  endfacet
  facet normal 0 -1 0
    outer loop
      vertex 0 0 0
      vertex 17.596073597983846 0 11.524548389919358
      vertex 17.5 0 12.5
    endloop
  endfacet
  facet normal 0 -1 0
    outer loop
      vertex 0 0 0
      vertex 17.5 0 12.5
      vertex 17.596073597983846 0 13.475451610080642
    endloop
  endfacet
  facet normal 0 -1 0
    outer loop
      vertex 0 0 0
      vertex 19.72214883490199 0 8.342651938487274
      vertex 18.964466094067262 0 8.964466094067262
    endloop
  endfacet
  facet normal 0 -1 0
    outer loop
      vertex 0 0 0
      vertex 20.58658283817455 0 7.880602337443566
      vertex 19.72214883490199 0 8.342651938487274
    endloop
  endfacet
  facet normal 0 -1 0
    outer loop
      vertex 0 0 0
      vertex 21.52454838991936 0 7.596073597983848
      vertex 20.58658283817455 0 7.880602337443566
    endloop
  endfacet
  facet normal 0 -1 0
    outer loop
      vertex 0 0 0
      vertex 22.5 0 7.5
      vertex 21.52454838991936 0 7.596073597983848
    endloop
  endfacet
  facet normal 0 -1 0
    outer loop
      vertex 0 0 0
      vertex 17.596073597983846 0 13.475451610080642
      vertex 18.598193559677433 0 32.88429439193539
    endloop
  endfacet
  facet normal 0 -1 0
    outer loop
      vertex 18.598193559677433 0 32.88429439193539
      vertex 17.596073597983846 0 13.475451610080642
      vertex 17.880602337443566 0 14.41341716182545
    endloop
  endfacet
  facet normal 0 -1 0
    outer loop
      vertex 18.598193559677433 0 32.88429439193539
      vertex 17.880602337443566 0 14.41341716182545
      vertex 18.342651938487272 0 15.27785116509801
    endloop
  endfacet
  facet normal 0 -1 0
    outer loop
      vertex 18.598193559677433 0 32.88429439193539
      vertex 18.342651938487272 0 15.27785116509801
      vertex 18.964466094067262 0 16.035533905932738
    endloop
  endfacet
  facet normal 0 -1 0
    outer loop
      vertex 18.598193559677433 0 32.88429439193539
      vertex 18.964466094067262 0 16.035533905932738
      vertex 19.72214883490199 0 16.657348061512728
    endloop
  endfacet
  facet normal 0 -1 0
    outer loop
      vertex 18.598193559677433 0 32.88429439193539
      vertex 19.72214883490199 0 16.657348061512728
      vertex 20.58658283817455 0 17.119397662556434
    endloop
  endfacet
  facet normal 0 -1 0
    outer loop
      vertex 18.598193559677433 0 32.88429439193539
      vertex 20.58658283817455 0 17.119397662556434
      vertex 21.52454838991936 0 17.403926402016154
    endloop
  endfacet
  facet normal 0 -1 0
    outer loop
      vertex 18.598193559677433 0 32.88429439193539
      vertex 21.52454838991936 0 17.403926402016154
      vertex 22.5 0 17.5
    endloop
  endfacet
  facet normal 0 -1 0
    outer loop
      vertex 18.598193559677433 0 32.88429439193539
      vertex 22.5 0 17.5
      vertex 22.5 0 32.5
    endloop
  endfacet
  facet normal 0 -1 0
    outer loop
      vertex 0 0 0
      vertex 2.8842943919353914 0 48.59819355967743
      vertex 0 0 75
    endloop
  endfacet
  facet normal 0 -1 0
    outer loop
      vertex 0 0 75
      vertex 2.8842943919353914 0 48.59819355967743
      vertex 2.5 0 52.5
    endloop
  endfacet
  facet normal 0 -1 0
    outer loop
      vertex 0 0 75
      vertex 2.5 0 52.5
      vertex 2.8842943919353914 0 56.40180644032257
    endloop
  endfacet
  facet normal 0 -1 0
    outer loop
      vertex 0 0 75
      vertex 2.8842943919353914 0 56.40180644032257
      vertex 4.022409349774264 0 60.1536686473018
    endloop
  endfacet
  facet normal 0 -1 0
    outer loop
      vertex 0 0 75
      vertex 4.022409349774264 0 60.1536686473018
      vertex 5.870607753949095 0 63.61140466039204
    endloop
  endfacet
  facet normal 0 -1 0
    outer loop
      vertex 0 0 75
      vertex 5.870607753949095 0 63.61140466039204
      vertex 8.357864376269049 0 66.64213562373095
    endloop
  endfacet
  facet normal 0 -1 0
    outer loop
      vertex 0 0 75
      vertex 8.357864376269049 0 66.64213562373095
      vertex 11.388595339607956 0 69.12939224605091
    endloop
  endfacet
  facet normal 0 -1 0
    outer loop
      vertex 0 0 75
      vertex 11.388595339607956 0 69.12939224605091
      vertex 14.846331352698204 0 70.97759065022574
    endloop
  endfacet
  facet normal 0 -1 0
    outer loop
      vertex 0 0 75
      vertex 14.846331352698204 0 70.97759065022574
      vertex 18.598193559677433 0 72.11570560806462
    endloop
  endfacet
  facet normal -1 0 0
    outer loop
      vertex 0 0 75
      vertex 0 11.602540378443866 75
      vertex 0 25 25
    endloop
  endfacet
  facet normal 0 -1 0
    outer loop
      vertex 0 0 75
      vertex 18.598193559677433 0 72.11570560806462
      vertex 22.5 0 72.5
    endloop
  endfacet
  facet normal 0 -1 0
    outer loop
      vertex 0 0 75
      vertex 22.5 0 72.5
      vertex 26.401806440322567 0 72.11570560806462
    endloop
  endfacet
  facet normal 0 0 1
    outer loop
      vertex 0 0 75
      vertex 45 0 75
      vertex 0 11.602540378443866 75
    endloop
  endfacet
  facet normal -1 0 0
    outer loop
      vertex 0 0 0
      vertex 0 25 25
      vertex 0 30 25
    endloop
  endfacet
  facet normal -1 0 0
    outer loop
      vertex 0 0 0
      vertex 0 30 25
      vertex 0 30 0
    endloop
  endfacet
  facet normal 0 1 0
    outer loop
      vertex 0 30 0
      vertex 0 30 25
      vertex 20.883210818105248 30 13.169696006638906
    endloop
  endfacet
  facet normal 0 0 -1
    outer loop
      vertex 0 0 0
      vertex 0 30 0
      vertex 45 30 0
    endloop
  endfacet
  facet normal 0 1 0
    outer loop
      vertex 0 30 0
      vertex 20.883210818105248 30 11.830303993361094
      vertex 21.044928178470546 30 11.527752092215696
    endloop
  endfacet
  facet normal 0 1 0
    outer loop
      vertex 0 30 0
      vertex 20.783625759294345 30 12.158591936471776
      vertex 20.883210818105248 30 11.830303993361094
    endloop
  endfacet
  facet normal 0 1 0
    outer loop
      vertex 0 30 0
      vertex 20.75 30 12.5
      vertex 20.783625759294345 30 12.158591936471776
    endloop
  endfacet
  facet normal 0 1 0
    outer loop
      vertex 0 30 0
      vertex 20.783625759294345 30 12.841408063528224
      vertex 20.75 30 12.5
    endloop
  endfacet
  facet normal 0 1 0
    outer loop
      vertex 0 30 0
      vertex 20.883210818105248 30 13.169696006638906
      vertex 20.783625759294345 30 12.841408063528224
    endloop
  endfacet
  facet normal 0 1 0
    outer loop
      vertex 0 30 0
      vertex 21.044928178470546 30 11.527752092215696
      vertex 21.262563132923542 30 11.262563132923542
    endloop
  endfacet
  facet normal 0 1 0
    outer loop
      vertex 0 30 0
      vertex 21.262563132923542 30 11.262563132923542
      vertex 21.527752092215696 30 11.044928178470546
    endloop
  endfacet
  facet normal 0 1 0
    outer loop
      vertex 0 30 0
      vertex 21.527752092215696 30 11.044928178470546
      vertex 21.830303993361092 30 10.883210818105248
    endloop
  endfacet
  facet normal 0 1 0
    outer loop
      vertex 0 30 25
      vertex 21.044928178470546 30 13.472247907784304
      vertex 20.883210818105248 30 13.169696006638906
    endloop
  endfacet
  facet normal 0 1 0
    outer loop
      vertex 0 30 25
      vertex 21.262563132923542 30 13.737436867076458
      vertex 21.044928178470546 30 13.472247907784304
    endloop
  endfacet
  facet normal 0 1 0
    outer loop
      vertex 0 30 25
      vertex 21.527752092215696 30 13.955071821529454
      vertex 21.262563132923542 30 13.737436867076458
    endloop
  endfacet
  facet normal 0 1 0
    outer loop
      vertex 0 30 25
      vertex 21.830303993361092 30 14.116789181894752
      vertex 21.527752092215696 30 13.955071821529454
    endloop
  endfacet
  facet normal 0 1 0
    outer loop
      vertex 0 30 25
      vertex 22.158591936471776 30 14.216374240705653
      vertex 21.830303993361092 30 14.116789181894752
    endloop
  endfacet
  facet normal 0 1 0
    outer loop
      vertex 0 30 25
      vertex 22.5 30 14.25
      vertex 22.158591936471776 30 14.216374240705653
    endloop
  endfacet
  facet normal 0 1 0
    outer loop
      vertex 0 30 0
      vertex 21.830303993361092 30 10.883210818105248
      vertex 45 30 0
    endloop
  endfacet
  facet normal 0 -1 0
    outer loop
      vertex 0 0 0
      vertex 45 0 0
      vertex 22.5 0 7.5
    endloop
  endfacet
  facet normal 0 -1 0
    outer loop
      vertex 45 0 0
      vertex 23.47545161008064 0 7.596073597983848
      vertex 22.5 0 7.5
    endloop
  endfacet
  facet normal 0 -1 0
    outer loop
      vertex 45 0 0
      vertex 24.41341716182545 0 7.880602337443566
      vertex 23.47545161008064 0 7.596073597983848
    endloop
  endfacet
  facet normal 0 -1 0
    outer loop
      vertex 45 0 0
      vertex 25.27785116509801 0 8.342651938487274
      vertex 24.41341716182545 0 7.880602337443566
    endloop
  endfacet
  facet normal 0 -1 0
    outer loop
      vertex 45 0 0
      vertex 26.035533905932738 0 8.964466094067262
      vertex 25.27785116509801 0 8.342651938487274
    endloop
  endfacet
  facet normal 0 -1 0
    outer loop
      vertex 45 0 0
      vertex 26.657348061512728 0 9.72214883490199
      vertex 26.035533905932738 0 8.964466094067262
    endloop
  endfacet
  facet normal 0 -1 0
    outer loop
      vertex 45 0 0
      vertex 27.119397662556434 0 10.58658283817455
      vertex 26.657348061512728 0 9.72214883490199
    endloop
  endfacet
  facet normal 0 -1 0
    outer loop
      vertex 45 0 0
      vertex 27.403926402016154 0 11.524548389919358
      vertex 27.119397662556434 0 10.58658283817455
    endloop
  endfacet
  facet normal 0 -1 0
    outer loop
      vertex 45 0 0
      vertex 27.5 0 12.5
      vertex 27.403926402016154 0 11.524548389919358
    endloop
  endfacet
  facet normal 0 -1 0
    outer loop
      vertex 45 0 0
      vertex 27.403926402016154 0 13.475451610080642
      vertex 27.5 0 12.5
    endloop
  endfacet
  facet normal 0 -1 0
    outer loop
      vertex 45 0 0
      vertex 27.119397662556434 0 14.41341716182545
      vertex 27.403926402016154 0 13.475451610080642
    endloop
  endfacet
  facet normal 0 -1 0
    outer loop
      vertex 22.5 0 17.5
      vertex 23.47545161008064 0 17.403926402016154
      vertex 22.5 0 32.5
    endloop
  endfacet
  facet normal 0 -1 0
    outer loop
      vertex 23.47545161008064 0 17.403926402016154
      vertex 24.41341716182545 0 17.119397662556434
      vertex 26.401806440322567 0 32.88429439193539
    endloop
  endfacet
  facet normal 0 -1 0
    outer loop
      vertex 23.47545161008064 0 17.403926402016154
      vertex 26.401806440322567 0 32.88429439193539
      vertex 22.5 0 32.5
    endloop
  endfacet
  facet normal 0 -1 0
    outer loop
      vertex 25.27785116509801 0 16.657348061512728
      vertex 26.401806440322567 0 32.88429439193539
      vertex 24.41341716182545 0 17.119397662556434
    endloop
  endfacet
  facet normal 0 -1 0
    outer loop
      vertex 25.27785116509801 0 16.657348061512728
      vertex 26.035533905932738 0 16.035533905932738
      vertex 30.153668647301796 0 34.022409349774264
    endloop
  endfacet
  facet normal 0 -1 0
    outer loop
      vertex 26.035533905932738 0 16.035533905932738
      vertex 26.657348061512728 0 15.27785116509801
      vertex 30.153668647301796 0 34.022409349774264
    endloop
  endfacet
  facet normal 0 -1 0
    outer loop
      vertex 25.27785116509801 0 16.657348061512728
      vertex 30.153668647301796 0 34.022409349774264
      vertex 26.401806440322567 0 32.88429439193539
    endloop
  endfacet
  facet normal 0 -1 0
    outer loop
      vertex 27.119397662556434 0 14.41341716182545
      vertex 33.61140466039204 0 35.870607753949095
      vertex 26.657348061512728 0 15.27785116509801
    endloop
  endfacet
  facet normal 0 -1 0
    outer loop
      vertex 26.657348061512728 0 15.27785116509801
      vertex 33.61140466039204 0 35.870607753949095
      vertex 30.153668647301796 0 34.022409349774264
    endloop
  endfacet
  facet normal 0 0 -1
    outer loop
      vertex 0 0 0
      vertex 45 30 0
      vertex 45 0 0
    endloop
  endfacet
  facet normal 0 -1 0
    outer loop
      vertex 45 0 0
      vertex 33.61140466039204 0 35.870607753949095
      vertex 27.119397662556434 0 14.41341716182545
    endloop
  endfacet
  facet normal 0 -1 0
    outer loop
      vertex 45 0 0
      vertex 36.64213562373095 0 38.35786437626905
      vertex 33.61140466039204 0 35.870607753949095
    endloop
  endfacet
  facet normal 0 -1 0
    outer loop
      vertex 45 0 0
      vertex 39.129392246050905 0 41.38859533960796
      vertex 36.64213562373095 0 38.35786437626905
    endloop
  endfacet
  facet normal 0 -1 0
    outer loop
      vertex 45 0 0
      vertex 40.977590650225736 0 44.8463313526982
      vertex 39.129392246050905 0 41.38859533960796
    endloop
  endfacet
  facet normal 0 -1 0
    outer loop
      vertex 45 0 0
      vertex 42.11570560806461 0 48.59819355967743
      vertex 40.977590650225736 0 44.8463313526982
    endloop
  endfacet
  facet normal 1 0 0
    outer loop
      vertex 45 0 0
      vertex 45 30 0
      vertex 45 0 75
    endloop
  endfacet
  facet normal 0 -1 0
    outer loop
      vertex 0 0 75
      vertex 26.401806440322567 0 72.11570560806462
      vertex 45 0 75
    endloop
  endfacet
  facet normal 0 0 1
    outer loop
      vertex 45 0 75
      vertex 45 11.602540378443866 75
      vertex 0 11.602540378443866 75
    endloop
  endfacet
  facet normal 0 -1 0
    outer loop
      vertex 45 0 0
      vertex 45 0 75
      vertex 42.11570560806461 0 48.59819355967743
    endloop
  endfacet
  facet normal 0 -1 0
    outer loop
      vertex 45 0 75
      vertex 26.401806440322567 0 72.11570560806462
      vertex 30.153668647301796 0 70.97759065022574
    endloop
  endfacet
  facet normal 0 -1 0
    outer loop
      vertex 45 0 75
      vertex 30.153668647301796 0 70.97759065022574
      vertex 33.61140466039204 0 69.12939224605091
    endloop
  endfacet
  facet normal 0 -1 0
    outer loop
      vertex 45 0 75
      vertex 33.61140466039204 0 69.12939224605091
      vertex 36.64213562373095 0 66.64213562373095
    endloop
  endfacet
  facet normal 0 -1 0
    outer loop
      vertex 45 0 75
      vertex 42.5 0 52.5
      vertex 42.11570560806461 0 48.59819355967743
    endloop
  endfacet
  facet normal 0 -1 0
    outer loop
      vertex 45 0 75
      vertex 42.11570560806461 0 56.40180644032257
      vertex 42.5 0 52.5
    endloop
  endfacet
  facet normal 0 -1 0
    outer loop
      vertex 45 0 75
      vertex 40.977590650225736 0 60.1536686473018
      vertex 42.11570560806461 0 56.40180644032257
    endloop
  endfacet
  facet normal 0 -1 0
    outer loop
      vertex 45 0 75
      vertex 36.64213562373095 0 66.64213562373095
      vertex 39.129392246050905 0 63.61140466039204
    endloop
  endfacet
  facet normal 0 -1 0
    outer loop
      vertex 45 0 75
      vertex 39.129392246050905 0 63.61140466039204
      vertex 40.977590650225736 0 60.1536686473018
    endloop
  endfacet
  facet normal 1 0 0
    outer loop
      vertex 45 0 75
      vertex 45 25 25
      vertex 45 11.602540378443866 75
    endloop
  endfacet
  facet normal 0 1 0
    outer loop
      vertex 45 30 0
      vertex 21.830303993361092 30 10.883210818105248
      vertex 22.158591936471776 30 10.783625759294347
    endloop
  endfacet
  facet normal 0 1 0
    outer loop
      vertex 45 30 0
      vertex 22.158591936471776 30 10.783625759294347
      vertex 22.5 30 10.75
    endloop
  endfacet
  facet normal 0 1 0
    outer loop
      vertex 45 30 0
      vertex 22.5 30 10.75
      vertex 22.841408063528224 30 10.783625759294347
    endloop
  endfacet
  facet normal 0 1 0
    outer loop
      vertex 45 30 0
      vertex 22.841408063528224 30 10.783625759294347
      vertex 23.169696006638908 30 10.883210818105248
    endloop
  endfacet
  facet normal 0 1 0
    outer loop
      vertex 45 30 0
      vertex 23.169696006638908 30 10.883210818105248
      vertex 23.472247907784304 30 11.044928178470546
    endloop
  endfacet
  facet normal 0 1 0
    outer loop
      vertex 45 30 0
      vertex 23.472247907784304 30 11.044928178470546
      vertex 23.737436867076458 30 11.262563132923542
    endloop
  endfacet
  facet normal 0 1 0
    outer loop
      vertex 45 30 0
      vertex 23.737436867076458 30 11.262563132923542
      vertex 23.955071821529454 30 11.527752092215696
    endloop
  endfacet
  facet normal 0 1 0
    outer loop
      vertex 45 30 0
      vertex 23.955071821529454 30 13.472247907784304
      vertex 23.737436867076458 30 13.737436867076458
    endloop
  endfacet
  facet normal 0 1 0
    outer loop
      vertex 45 30 0
      vertex 23.955071821529454 30 11.527752092215696
      vertex 24.116789181894752 30 11.830303993361094
    endloop
  endfacet
  facet normal 0 1 0
    outer loop
      vertex 45 30 0
      vertex 24.116789181894752 30 11.830303993361094
      vertex 24.216374240705655 30 12.158591936471776
    endloop
  endfacet
  facet normal 0 1 0
    outer loop
      vertex 45 30 0
      vertex 24.216374240705655 30 12.841408063528224
      vertex 24.116789181894752 30 13.169696006638906
    endloop
  endfacet
  facet normal 0 1 0
    outer loop
      vertex 45 30 0
      vertex 24.216374240705655 30 12.158591936471776
      vertex 24.25 30 12.5
    endloop
  endfacet
  facet normal 0 1 0
    outer loop
      vertex 45 30 0
      vertex 24.25 30 12.5
      vertex 24.216374240705655 30 12.841408063528224
    endloop
  endfacet
  facet normal 0 1 0
    outer loop
      vertex 45 30 0
      vertex 24.116789181894752 30 13.169696006638906
      vertex 23.955071821529454 30 13.472247907784304
    endloop
  endfacet
  facet normal 0 1 0
    outer loop
      vertex 45 30 25
      vertex 22.841408063528224 30 14.216374240705653
      vertex 22.5 30 14.25
    endloop
  endfacet
  facet normal 0 1 0
    outer loop
      vertex 45 30 25
      vertex 23.737436867076458 30 13.737436867076458
      vertex 23.472247907784304 30 13.955071821529454
    endloop
  endfacet
  facet normal 0 1 0
    outer loop
      vertex 45 30 25
      vertex 23.169696006638908 30 14.116789181894752
      vertex 22.841408063528224 30 14.216374240705653
    endloop
  endfacet
  facet normal 0 1 0
    outer loop
      vertex 45 30 25
      vertex 23.472247907784304 30 13.955071821529454
      vertex 23.169696006638908 30 14.116789181894752
    endloop
  endfacet
  facet normal 0 1 0
    outer loop
      vertex 45 30 25
      vertex 22.5 30 14.25
      vertex 0 30 25
    endloop
  endfacet
  facet normal 1 0 0
    outer loop
      vertex 45 0 75
      vertex 45 30 0
      vertex 45 25 25
    endloop
  endfacet
  facet normal 0 1 0
    outer loop
      vertex 45 30 0
      vertex 23.737436867076458 30 13.737436867076458
      vertex 45 30 25
    endloop
  endfacet
  facet normal 1 0 0
    outer loop
      vertex 45 30 0
      vertex 45 30 25
      vertex 45 25 25
    endloop
  endfacet
  facet normal 0.6343932841636453 0 0.7730104533627371
    outer loop
      vertex 11.388595339607956 1.49 35.870607753949095
      vertex 8.357864376269049 0 38.35786437626905
      vertex 11.388595339607956 0 35.870607753949095
    endloop
  endfacet
  facet normal 0.4713967368259978 0 0.8819212643483549
    outer loop
      vertex 11.388595339607956 1.49 35.870607753949095
      vertex 11.388595339607956 0 35.870607753949095
      vertex 14.846331352698204 1.49 34.022409349774264
    endloop
  endfacet
  facet normal 0.4713967368259978 0 0.8819212643483549
    outer loop
      vertex 14.846331352698204 1.49 34.022409349774264
      vertex 11.388595339607956 0 35.870607753949095
      vertex 14.846331352698204 0 34.022409349774264
    endloop
  endfacet
  facet normal 0.2902846772544622 0 0.9569403357322089
    outer loop
      vertex 14.846331352698204 1.49 34.022409349774264
      vertex 14.846331352698204 0 34.022409349774264
      vertex 18.598193559677433 1.49 32.88429439193539
    endloop
  endfacet
  facet normal 0.2902846772544622 0 0.9569403357322089
    outer loop
      vertex 18.598193559677433 1.49 32.88429439193539
      vertex 14.846331352698204 0 34.022409349774264
      vertex 18.598193559677433 0 32.88429439193539
    endloop
  endfacet
  facet normal 0 -1 0
    outer loop
      vertex 8.357864376269049 1.49 38.35786437626905
      vertex 11.388595339607956 1.49 35.870607753949095
      vertex 33.61140466039204 1.49 35.870607753949095
    endloop
  endfacet
  facet normal 0 -1 0
    outer loop
      vertex 11.388595339607956 1.49 35.870607753949095
      vertex 14.846331352698204 1.49 34.022409349774264
      vertex 30.153668647301796 1.49 34.022409349774264
    endloop
  endfacet
  facet normal 0.09801714032956067 0 0.9951847266721969
    outer loop
      vertex 18.598193559677433 1.49 32.88429439193539
      vertex 18.598193559677433 0 32.88429439193539
      vertex 22.5 1.49 32.5
    endloop
  endfacet
  facet normal 0.09801714032956067 0 0.9951847266721969
    outer loop
      vertex 22.5 1.49 32.5
      vertex 18.598193559677433 0 32.88429439193539
      vertex 22.5 0 32.5
    endloop
  endfacet
  facet normal 0 -1 0
    outer loop
      vertex 14.846331352698204 1.49 34.022409349774264
      vertex 18.598193559677433 1.49 32.88429439193539
      vertex 26.401806440322567 1.49 32.88429439193539
    endloop
  endfacet
  facet normal 0.9569403357322089 0 0.290284677254462
    outer loop
      vertex 4.022409349774264 1.49 44.8463313526982
      vertex 2.8842943919353914 0 48.59819355967743
      vertex 4.022409349774264 0 44.8463313526982
    endloop
  endfacet
  facet normal 0.8819212643483546 0 0.4713967368259986
    outer loop
      vertex 5.870607753949095 1.49 41.38859533960796
      vertex 4.022409349774264 0 44.8463313526982
      vertex 5.870607753949095 0 41.38859533960796
    endloop
  endfacet
  facet normal 0.8819212643483546 0 0.4713967368259986
    outer loop
      vertex 4.022409349774264 1.49 44.8463313526982
      vertex 4.022409349774264 0 44.8463313526982
      vertex 5.870607753949095 1.49 41.38859533960796
    endloop
  endfacet
  facet normal 0.9951847266721969 0 0.09801714032956067
    outer loop
      vertex 2.8842943919353914 1.49 48.59819355967743
      vertex 2.5 0 52.5
      vertex 2.8842943919353914 0 48.59819355967743
    endloop
  endfacet
  facet normal 0.9951847266721969 0 0.09801714032956067
    outer loop
      vertex 2.5 1.49 52.5
      vertex 2.5 0 52.5
      vertex 2.8842943919353914 1.49 48.59819355967743
    endloop
  endfacet
  facet normal 0.9951847266721969 0 -0.09801714032956067
    outer loop
      vertex 2.5 1.49 52.5
      vertex 2.8842943919353914 0 56.40180644032257
      vertex 2.5 0 52.5
    endloop
  endfacet
  facet normal 0.9951847266721969 6.903029595194679e-18 -0.09801714032956067
    outer loop
      vertex 2.5 1.49 52.5
      vertex 2.8842943919353914 1.49 56.40180644032257
      vertex 2.8842943919353914 0 56.40180644032257
    endloop
  endfacet
  facet normal 0.9569403357322089 5.499577933656783e-17 0.290284677254462
    outer loop
      vertex 4.022409349774264 1.49 44.8463313526982
      vertex 2.8842943919353914 1.49 48.59819355967743
      vertex 2.8842943919353914 0 48.59819355967743
    endloop
  endfacet
  facet normal 0.7730104533627374 -9.98552190253243e-18 0.6343932841636448
    outer loop
      vertex 8.357864376269049 1.49 38.35786437626905
      vertex 5.870607753949095 1.49 41.38859533960796
      vertex 5.870607753949095 0 41.38859533960796
    endloop
  endfacet
  facet normal 0.7730104533627374 0 0.6343932841636448
    outer loop
      vertex 8.357864376269049 1.49 38.35786437626905
      vertex 5.870607753949095 0 41.38859533960796
      vertex 8.357864376269049 0 38.35786437626905
    endloop
  endfacet
  facet normal 0.6343932841636453 0 0.7730104533627371
    outer loop
      vertex 8.357864376269049 1.49 38.35786437626905
      vertex 8.357864376269049 0 38.35786437626905
      vertex 11.388595339607956 1.49 35.870607753949095
    endloop
  endfacet
  facet normal 0.9569403357322089 0 -0.290284677254462
    outer loop
      vertex 2.8842943919353914 1.49 56.40180644032257
      vertex 4.022409349774264 0 60.1536686473018
      vertex 2.8842943919353914 0 56.40180644032257
    endloop
  endfacet
  facet normal 0.9569403357322089 -5.499577933656783e-17 -0.290284677254462
    outer loop
      vertex 2.8842943919353914 1.49 56.40180644032257
      vertex 4.022409349774264 1.49 60.1536686473018
      vertex 4.022409349774264 0 60.1536686473018
    endloop
  endfacet
  facet normal 0.8819212643483546 0 -0.4713967368259986
    outer loop
      vertex 4.022409349774264 1.49 60.1536686473018
      vertex 5.870607753949095 0 63.61140466039204
      vertex 4.022409349774264 0 60.1536686473018
    endloop
  endfacet
  facet normal 0.8819212643483546 5.83261755617088e-17 -0.4713967368259986
    outer loop
      vertex 4.022409349774264 1.49 60.1536686473018
      vertex 5.870607753949095 1.49 63.61140466039204
      vertex 5.870607753949095 0 63.61140466039204
    endloop
  endfacet
  facet normal 0.7730104533627374 0 -0.6343932841636448
    outer loop
      vertex 5.870607753949095 1.49 63.61140466039204
      vertex 8.357864376269049 0 66.64213562373095
      vertex 5.870607753949095 0 63.61140466039204
    endloop
  endfacet
  facet normal 0.7730104533627374 9.98552190253243e-18 -0.6343932841636448
    outer loop
      vertex 5.870607753949095 1.49 63.61140466039204
      vertex 8.357864376269049 1.49 66.64213562373095
      vertex 8.357864376269049 0 66.64213562373095
    endloop
  endfacet
  facet normal 0.6343932841636463 0 -0.7730104533627362
    outer loop
      vertex 8.357864376269049 1.49 66.64213562373095
      vertex 11.388595339607956 0 69.12939224605091
      vertex 8.357864376269049 0 66.64213562373095
    endloop
  endfacet
  facet normal 0.6343932841636463 5.5113603436638375e-17 -0.7730104533627362
    outer loop
      vertex 8.357864376269049 1.49 66.64213562373095
      vertex 11.388595339607956 1.49 69.12939224605091
      vertex 11.388595339607956 0 69.12939224605091
    endloop
  endfacet
  facet normal 0 -1 0
    outer loop
      vertex 4.022409349774264 1.49 44.8463313526982
      vertex 5.870607753949095 1.49 41.38859533960796
      vertex 39.129392246050905 1.49 41.38859533960796
    endloop
  endfacet
  facet normal 0 -1 0
    outer loop
      vertex 4.022409349774264 1.49 44.8463313526982
      vertex 40.977590650225736 1.49 44.8463313526982
      vertex 2.8842943919353914 1.49 48.59819355967743
    endloop
  endfacet
  facet normal 0 -1 0
    outer loop
      vertex 2.5 1.49 52.5
      vertex 2.8842943919353914 1.49 48.59819355967743
      vertex 42.11570560806461 1.49 48.59819355967743
    endloop
  endfacet
  facet normal 0 -1 0
    outer loop
      vertex 2.5 1.49 52.5
      vertex 42.5 1.49 52.5
      vertex 2.8842943919353914 1.49 56.40180644032257
    endloop
  endfacet
  facet normal 0 -1 0
    outer loop
      vertex 8.357864376269049 1.49 38.35786437626905
      vertex 36.64213562373095 1.49 38.35786437626905
      vertex 5.870607753949095 1.49 41.38859533960796
    endloop
  endfacet
  facet normal 0 -1 0
    outer loop
      vertex 2.8842943919353914 1.49 56.40180644032257
      vertex 42.11570560806461 1.49 56.40180644032257
      vertex 4.022409349774264 1.49 60.1536686473018
    endloop
  endfacet
  facet normal 0.4713967368259965 0 -0.8819212643483557
    outer loop
      vertex 11.388595339607956 1.49 69.12939224605091
      vertex 14.846331352698204 0 70.97759065022574
      vertex 11.388595339607956 0 69.12939224605091
    endloop
  endfacet
  facet normal 0.4713967368259965 -7.490478923150612e-17 -0.8819212643483557
    outer loop
      vertex 11.388595339607956 1.49 69.12939224605091
      vertex 14.846331352698204 1.49 70.97759065022574
      vertex 14.846331352698204 0 70.97759065022574
    endloop
  endfacet
  facet normal 0.29028467725446383 0 -0.9569403357322084
    outer loop
      vertex 14.846331352698204 1.49 70.97759065022574
      vertex 18.598193559677433 0 72.11570560806462
      vertex 14.846331352698204 0 70.97759065022574
    endloop
  endfacet
  facet normal 0 -1 0
    outer loop
      vertex 4.022409349774264 1.49 60.1536686473018
      vertex 40.977590650225736 1.49 60.1536686473018
      vertex 5.870607753949095 1.49 63.61140466039204
    endloop
  endfacet
  facet normal 0 -1 0
    outer loop
      vertex 5.870607753949095 1.49 63.61140466039204
      vertex 39.129392246050905 1.49 63.61140466039204
      vertex 8.357864376269049 1.49 66.64213562373095
    endloop
  endfacet
  facet normal 0 -1 0
    outer loop
      vertex 8.357864376269049 1.49 66.64213562373095
      vertex 36.64213562373095 1.49 66.64213562373095
      vertex 11.388595339607956 1.49 69.12939224605091
    endloop
  endfacet
  facet normal 0.29028467725446383 1.5312307221743518e-17 -0.9569403357322084
    outer loop
      vertex 14.846331352698204 1.49 70.97759065022574
      vertex 18.598193559677433 1.49 72.11570560806462
      vertex 18.598193559677433 0 72.11570560806462
    endloop
  endfacet
  facet normal 0 -1 0
    outer loop
      vertex 11.388595339607956 1.49 69.12939224605091
      vertex 33.61140466039204 1.49 69.12939224605091
      vertex 14.846331352698204 1.49 70.97759065022574
    endloop
  endfacet
  facet normal 0.09801714032955888 0 -0.995184726672197
    outer loop
      vertex 18.598193559677433 1.49 72.11570560806462
      vertex 22.5 0 72.5
      vertex 18.598193559677433 0 72.11570560806462
    endloop
  endfacet
  facet normal 0.09801714032955888 1.2307746283851222e-17 -0.995184726672197
    outer loop
      vertex 18.598193559677433 1.49 72.11570560806462
      vertex 22.5 1.49 72.5
      vertex 22.5 0 72.5
    endloop
  endfacet
  facet normal 0 -1 0
    outer loop
      vertex 14.846331352698204 1.49 70.97759065022574
      vertex 30.153668647301796 1.49 70.97759065022574
      vertex 18.598193559677433 1.49 72.11570560806462
    endloop
  endfacet
  facet normal 0 -1 0
    outer loop
      vertex 18.598193559677433 1.49 32.88429439193539
      vertex 22.5 1.49 32.5
      vertex 26.401806440322567 1.49 32.88429439193539
    endloop
  endfacet
  facet normal -0.09801714032956067 0 0.9951847266721969
    outer loop
      vertex 22.5 1.49 32.5
      vertex 22.5 0 32.5
      vertex 26.401806440322567 1.49 32.88429439193539
    endloop
  endfacet
  facet normal -0.09801714032956067 0 0.9951847266721969
    outer loop
      vertex 26.401806440322567 1.49 32.88429439193539
      vertex 22.5 0 32.5
      vertex 26.401806440322567 0 32.88429439193539
    endloop
  endfacet
  facet normal 0 -1 0
    outer loop
      vertex 14.846331352698204 1.49 34.022409349774264
      vertex 26.401806440322567 1.49 32.88429439193539
      vertex 30.153668647301796 1.49 34.022409349774264
    endloop
  endfacet
  facet normal 0 -1 0
    outer loop
      vertex 11.388595339607956 1.49 35.870607753949095
      vertex 30.153668647301796 1.49 34.022409349774264
      vertex 33.61140466039204 1.49 35.870607753949095
    endloop
  endfacet
  facet normal -0.2902846772544622 0 0.9569403357322089
    outer loop
      vertex 26.401806440322567 1.49 32.88429439193539
      vertex 26.401806440322567 0 32.88429439193539
      vertex 30.153668647301796 1.49 34.022409349774264
    endloop
  endfacet
  facet normal -0.2902846772544622 0 0.9569403357322089
    outer loop
      vertex 30.153668647301796 1.49 34.022409349774264
      vertex 26.401806440322567 0 32.88429439193539
      vertex 30.153668647301796 0 34.022409349774264
    endloop
  endfacet
  facet normal -0.47139673682599814 0 0.8819212643483547
    outer loop
      vertex 30.153668647301796 1.49 34.022409349774264
      vertex 30.153668647301796 0 34.022409349774264
      vertex 33.61140466039204 1.49 35.870607753949095
    endloop
  endfacet
  facet normal -0.47139673682599814 0 0.8819212643483547
    outer loop
      vertex 33.61140466039204 1.49 35.870607753949095
      vertex 30.153668647301796 0 34.022409349774264
      vertex 33.61140466039204 0 35.870607753949095
    endloop
  endfacet
  facet normal -0.6343932841636448 0 0.7730104533627374
    outer loop
      vertex 33.61140466039204 1.49 35.870607753949095
      vertex 33.61140466039204 0 35.870607753949095
      vertex 36.64213562373095 1.49 38.35786437626905
    endloop
  endfacet
  facet normal 0 -1 0
    outer loop
      vertex 8.357864376269049 1.49 38.35786437626905
      vertex 33.61140466039204 1.49 35.870607753949095
      vertex 36.64213562373095 1.49 38.35786437626905
    endloop
  endfacet
  facet normal 0 -1 0
    outer loop
      vertex 5.870607753949095 1.49 41.38859533960796
      vertex 36.64213562373095 1.49 38.35786437626905
      vertex 39.129392246050905 1.49 41.38859533960796
    endloop
  endfacet
  facet normal 0 -1 0
    outer loop
      vertex 4.022409349774264 1.49 44.8463313526982
      vertex 39.129392246050905 1.49 41.38859533960796
      vertex 40.977590650225736 1.49 44.8463313526982
    endloop
  endfacet
  facet normal 0 -1 0
    outer loop
      vertex 2.8842943919353914 1.49 48.59819355967743
      vertex 40.977590650225736 1.49 44.8463313526982
      vertex 42.11570560806461 1.49 48.59819355967743
    endloop
  endfacet
  facet normal 0 -1 0
    outer loop
      vertex 2.5 1.49 52.5
      vertex 42.11570560806461 1.49 48.59819355967743
      vertex 42.5 1.49 52.5
    endloop
  endfacet
  facet normal 0 -1 0
    outer loop
      vertex 2.8842943919353914 1.49 56.40180644032257
      vertex 42.5 1.49 52.5
      vertex 42.11570560806461 1.49 56.40180644032257
    endloop
  endfacet
  facet normal -0.09801714032955888 0 -0.995184726672197
    outer loop
      vertex 22.5 1.49 72.5
      vertex 26.401806440322567 0 72.11570560806462
      vertex 22.5 0 72.5
    endloop
  endfacet
  facet normal 0 -1 0
    outer loop
      vertex 18.598193559677433 1.49 72.11570560806462
      vertex 26.401806440322567 1.49 72.11570560806462
      vertex 22.5 1.49 72.5
    endloop
  endfacet
  facet normal -0.09801714032955888 -1.2307746283851222e-17 -0.995184726672197
    outer loop
      vertex 22.5 1.49 72.5
      vertex 26.401806440322567 1.49 72.11570560806462
      vertex 26.401806440322567 0 72.11570560806462
    endloop
  endfacet
  facet normal 0 -1 0
    outer loop
      vertex 18.598193559677433 1.49 72.11570560806462
      vertex 30.153668647301796 1.49 70.97759065022574
      vertex 26.401806440322567 1.49 72.11570560806462
    endloop
  endfacet
  facet normal 0 -1 0
    outer loop
      vertex 8.357864376269049 1.49 66.64213562373095
      vertex 39.129392246050905 1.49 63.61140466039204
      vertex 36.64213562373095 1.49 66.64213562373095
    endloop
  endfacet
  facet normal 0 -1 0
    outer loop
      vertex 11.388595339607956 1.49 69.12939224605091
      vertex 36.64213562373095 1.49 66.64213562373095
      vertex 33.61140466039204 1.49 69.12939224605091
    endloop
  endfacet
  facet normal 0 -1 0
    outer loop
      vertex 14.846331352698204 1.49 70.97759065022574
      vertex 33.61140466039204 1.49 69.12939224605091
      vertex 30.153668647301796 1.49 70.97759065022574
    endloop
  endfacet
  facet normal -0.29028467725446383 0 -0.9569403357322084
    outer loop
      vertex 26.401806440322567 1.49 72.11570560806462
      vertex 30.153668647301796 0 70.97759065022574
      vertex 26.401806440322567 0 72.11570560806462
    endloop
  endfacet
  facet normal 0 -1 0
    outer loop
      vertex 4.022409349774264 1.49 60.1536686473018
      vertex 42.11570560806461 1.49 56.40180644032257
      vertex 40.977590650225736 1.49 60.1536686473018
    endloop
  endfacet
  facet normal 0 -1 0
    outer loop
      vertex 5.870607753949095 1.49 63.61140466039204
      vertex 40.977590650225736 1.49 60.1536686473018
      vertex 39.129392246050905 1.49 63.61140466039204
    endloop
  endfacet
  facet normal -0.29028467725446383 -1.5312307221743518e-17 -0.9569403357322084
    outer loop
      vertex 26.401806440322567 1.49 72.11570560806462
      vertex 30.153668647301796 1.49 70.97759065022574
      vertex 30.153668647301796 0 70.97759065022574
    endloop
  endfacet
  facet normal -0.4713967368259968 -1.7413608390971834e-17 -0.8819212643483555
    outer loop
      vertex 30.153668647301796 1.49 70.97759065022574
      vertex 33.61140466039204 1.49 69.12939224605091
      vertex 33.61140466039204 0 69.12939224605091
    endloop
  endfacet
  facet normal -0.4713967368259968 0 -0.8819212643483555
    outer loop
      vertex 30.153668647301796 1.49 70.97759065022574
      vertex 33.61140466039204 0 69.12939224605091
      vertex 30.153668647301796 0 70.97759065022574
    endloop
  endfacet
  facet normal -0.6343932841636448 0 0.7730104533627374
    outer loop
      vertex 36.64213562373095 1.49 38.35786437626905
      vertex 33.61140466039204 0 35.870607753949095
      vertex 36.64213562373095 0 38.35786437626905
    endloop
  endfacet
  facet normal -0.7730104533627374 0 0.6343932841636448
    outer loop
      vertex 36.64213562373095 1.49 38.35786437626905
      vertex 36.64213562373095 0 38.35786437626905
      vertex 39.129392246050905 1.49 41.38859533960796
    endloop
  endfacet
  facet normal -0.7730104533627374 0 0.6343932841636448
    outer loop
      vertex 39.129392246050905 1.49 41.38859533960796
      vertex 36.64213562373095 0 38.35786437626905
      vertex 39.129392246050905 0 41.38859533960796
    endloop
  endfacet
  facet normal -0.8819212643483546 0 0.4713967368259986
    outer loop
      vertex 40.977590650225736 1.49 44.8463313526982
      vertex 39.129392246050905 0 41.38859533960796
      vertex 40.977590650225736 0 44.8463313526982
    endloop
  endfacet
  facet normal -0.8819212643483546 0 0.4713967368259986
    outer loop
      vertex 39.129392246050905 1.49 41.38859533960796
      vertex 39.129392246050905 0 41.38859533960796
      vertex 40.977590650225736 1.49 44.8463313526982
    endloop
  endfacet
  facet normal -0.9569403357322089 0 0.290284677254462
    outer loop
      vertex 40.977590650225736 1.49 44.8463313526982
      vertex 40.977590650225736 0 44.8463313526982
      vertex 42.11570560806461 1.49 48.59819355967743
    endloop
  endfacet
  facet normal -0.9569403357322089 0 0.290284677254462
    outer loop
      vertex 42.11570560806461 1.49 48.59819355967743
      vertex 40.977590650225736 0 44.8463313526982
      vertex 42.11570560806461 0 48.59819355967743
    endloop
  endfacet
  facet normal -0.9951847266721969 0 0.09801714032956067
    outer loop
      vertex 42.5 1.49 52.5
      vertex 42.11570560806461 0 48.59819355967743
      vertex 42.5 0 52.5
    endloop
  endfacet
  facet normal -0.9951847266721969 0 0.09801714032956067
    outer loop
      vertex 42.11570560806461 1.49 48.59819355967743
      vertex 42.11570560806461 0 48.59819355967743
      vertex 42.5 1.49 52.5
    endloop
  endfacet
  facet normal -0.9951847266721969 0 -0.09801714032956067
    outer loop
      vertex 42.11570560806461 1.49 56.40180644032257
      vertex 42.5 0 52.5
      vertex 42.11570560806461 0 56.40180644032257
    endloop
  endfacet
  facet normal -0.9951847266721969 0 -0.09801714032956067
    outer loop
      vertex 42.5 1.49 52.5
      vertex 42.5 0 52.5
      vertex 42.11570560806461 1.49 56.40180644032257
    endloop
  endfacet
  facet normal -0.7730104533627374 0 -0.6343932841636448
    outer loop
      vertex 39.129392246050905 1.49 63.61140466039204
      vertex 39.129392246050905 0 63.61140466039204
      vertex 36.64213562373095 1.49 66.64213562373095
    endloop
  endfacet
  facet normal -0.6343932841636459 0 -0.7730104533627367
    outer loop
      vertex 33.61140466039204 1.49 69.12939224605091
      vertex 36.64213562373095 0 66.64213562373095
      vertex 33.61140466039204 0 69.12939224605091
    endloop
  endfacet
  facet normal -0.6343932841636459 -4.736369671580196e-17 -0.7730104533627367
    outer loop
      vertex 33.61140466039204 1.49 69.12939224605091
      vertex 36.64213562373095 1.49 66.64213562373095
      vertex 36.64213562373095 0 66.64213562373095
    endloop
  endfacet
  facet normal -0.7730104533627374 0 -0.6343932841636448
    outer loop
      vertex 36.64213562373095 1.49 66.64213562373095
      vertex 39.129392246050905 0 63.61140466039204
      vertex 36.64213562373095 0 66.64213562373095
    endloop
  endfacet
  facet normal -0.9569403357322089 0 -0.290284677254462
    outer loop
      vertex 40.977590650225736 1.49 60.1536686473018
      vertex 42.11570560806461 0 56.40180644032257
      vertex 40.977590650225736 0 60.1536686473018
    endloop
  endfacet
  facet normal -0.9569403357322089 0 -0.290284677254462
    outer loop
      vertex 42.11570560806461 1.49 56.40180644032257
      vertex 42.11570560806461 0 56.40180644032257
      vertex 40.977590650225736 1.49 60.1536686473018
    endloop
  endfacet
  facet normal -0.8819212643483546 0 -0.4713967368259986
    outer loop
      vertex 39.129392246050905 1.49 63.61140466039204
      vertex 40.977590650225736 0 60.1536686473018
      vertex 39.129392246050905 0 63.61140466039204
    endloop
  endfacet
  facet normal -0.8819212643483546 -5.83261755617088e-17 -0.4713967368259986
    outer loop
      vertex 39.129392246050905 1.49 63.61140466039204
      vertex 40.977590650225736 1.49 60.1536686473018
      vertex 40.977590650225736 0 60.1536686473018
    endloop
  endfacet
endsolid OpenSCAD_Model
