solid OpenSCAD_Model
  facet normal -0 0 1
    outer loop
      vertex -67 80.25 5.5
      vertex -51.25 79.75 5.5
      vertex -51.25 80.25 5.5
    endloop
  endfacet
  facet normal 0 0 1
    outer loop
      vertex -51.25 79.75 5.5
      vertex -67 80.25 5.5
      vertex -67 79.75 5.5
    endloop
  endfacet
  facet normal -0 0 1
    outer loop
      vertex -50.75 80.25 5.5
      vertex -35.25 79.75 5.5
      vertex -35.25 80.25 5.5
    endloop
  endfacet
  facet normal 0 0 1
    outer loop
      vertex -35.25 79.75 5.5
      vertex -50.75 80.25 5.5
      vertex -50.75 79.75 5.5
    endloop
  endfacet
  facet normal -0 0 1
    outer loop
      vertex -19.25 79.75 5.5
      vertex -18.75 64.25 5.5
      vertex -18.75 79.75 5.5
    endloop
  endfacet
  facet normal 0 0 1
    outer loop
      vertex -18.75 64.25 5.5
      vertex -19.25 79.75 5.5
      vertex -19.25 64.25 5.5
    endloop
  endfacet
  facet normal -0 0 1
    outer loop
      vertex -18.75 80.25 5.5
      vertex -3 79.75 5.5
      vertex -3 80.25 5.5
    endloop
  endfacet
  facet normal 0 0 1
    outer loop
      vertex -3 79.75 5.5
      vertex -18.75 80.25 5.5
      vertex -18.75 79.75 5.5
    endloop
  endfacet
  facet normal -0 0 1
    outer loop
      vertex -35.25 96 5.5
      vertex -34.75 80.25 5.5
      vertex -34.75 96 5.5
    endloop
  endfacet
  facet normal 0 0 1
    outer loop
      vertex -34.75 80.25 5.5
      vertex -35.25 96 5.5
      vertex -35.25 80.25 5.5
    endloop
  endfacet
  facet normal -0 0 1
    outer loop
      vertex -67 64.25 5.5
      vertex -51.25 63.75 5.5
      vertex -51.25 64.25 5.5
    endloop
  endfacet
  facet normal 0 0 1
    outer loop
      vertex -51.25 63.75 5.5
      vertex -67 64.25 5.5
      vertex -67 63.75 5.5
    endloop
  endfacet
  facet normal -0 0 1
    outer loop
      vertex -50.75 64.25 5.5
      vertex -35.25 63.75 5.5
      vertex -35.25 64.25 5.5
    endloop
  endfacet
  facet normal 0 0 1
    outer loop
      vertex -35.25 63.75 5.5
      vertex -50.75 64.25 5.5
      vertex -50.75 63.75 5.5
    endloop
  endfacet
  facet normal -0 0 1
    outer loop
      vertex -18.75 64.25 5.5
      vertex -3 63.75 5.5
      vertex -3 64.25 5.5
    endloop
  endfacet
  facet normal 0 0 1
    outer loop
      vertex -3 63.75 5.5
      vertex -18.75 64.25 5.5
      vertex -18.75 63.75 5.5
    endloop
  endfacet
  facet normal -0 0 1
    outer loop
      vertex -67 48.25 5.5
      vertex -51.25 47.75 5.5
      vertex -51.25 48.25 5.5
    endloop
  endfacet
  facet normal 0 0 1
    outer loop
      vertex -51.25 47.75 5.5
      vertex -67 48.25 5.5
      vertex -67 47.75 5.5
    endloop
  endfacet
  facet normal -0 0 1
    outer loop
      vertex -34.75 48.25 5.5
      vertex -19.25 47.75 5.5
      vertex -19.25 48.25 5.5
    endloop
  endfacet
  facet normal 0 0 1
    outer loop
      vertex -19.25 47.75 5.5
      vertex -34.75 48.25 5.5
      vertex -34.75 47.75 5.5
    endloop
  endfacet
  facet normal -0 0 1
    outer loop
      vertex -19.25 47.75 5.5
      vertex -18.75 32.25 5.5
      vertex -18.75 47.75 5.5
    endloop
  endfacet
  facet normal 0 0 1
    outer loop
      vertex -18.75 32.25 5.5
      vertex -19.25 47.75 5.5
      vertex -19.25 32.25 5.5
    endloop
  endfacet
  facet normal -0 0 1
    outer loop
      vertex -51.25 31.75 5.5
      vertex -50.75 16.25 5.5
      vertex -50.75 31.75 5.5
    endloop
  endfacet
  facet normal 0 0 1
    outer loop
      vertex -50.75 16.25 5.5
      vertex -51.25 31.75 5.5
      vertex -51.25 16.25 5.5
    endloop
  endfacet
  facet normal -0 0 1
    outer loop
      vertex -50.75 32.25 5.5
      vertex -35.25 31.75 5.5
      vertex -35.25 32.25 5.5
    endloop
  endfacet
  facet normal 0 0 1
    outer loop
      vertex -35.25 31.75 5.5
      vertex -50.75 32.25 5.5
      vertex -50.75 31.75 5.5
    endloop
  endfacet
  facet normal -0 0 1
    outer loop
      vertex -18.75 32.25 5.5
      vertex -3 31.75 5.5
      vertex -3 32.25 5.5
    endloop
  endfacet
  facet normal 0 0 1
    outer loop
      vertex -3 31.75 5.5
      vertex -18.75 32.25 5.5
      vertex -18.75 31.75 5.5
    endloop
  endfacet
  facet normal -0 0 1
    outer loop
      vertex -67 16.25 5.5
      vertex -51.25 15.75 5.5
      vertex -51.25 16.25 5.5
    endloop
  endfacet
  facet normal 0 0 1
    outer loop
      vertex -51.25 15.75 5.5
      vertex -67 16.25 5.5
      vertex -67 15.75 5.5
    endloop
  endfacet
  facet normal -0 0 1
    outer loop
      vertex -35.25 15.75 5.5
      vertex -34.75 0 5.5
      vertex -34.75 15.75 5.5
    endloop
  endfacet
  facet normal 0 0 1
    outer loop
      vertex -34.75 0 5.5
      vertex -35.25 15.75 5.5
      vertex -35.25 0 5.5
    endloop
  endfacet
  facet normal -0 0 1
    outer loop
      vertex -34.75 16.25 5.5
      vertex -19.25 15.75 5.5
      vertex -19.25 16.25 5.5
    endloop
  endfacet
  facet normal 0 0 1
    outer loop
      vertex -19.25 15.75 5.5
      vertex -34.75 16.25 5.5
      vertex -34.75 15.75 5.5
    endloop
  endfacet
  facet normal -0 0 1
    outer loop
      vertex -19.25 15.75 5.5
      vertex -18.75 0 5.5
      vertex -18.75 15.75 5.5
    endloop
  endfacet
  facet normal 0 0 1
    outer loop
      vertex -18.75 0 5.5
      vertex -19.25 15.75 5.5
      vertex -19.25 0 5.5
    endloop
  endfacet
  facet normal -1 0 0
    outer loop
      vertex -50.75 96 0
      vertex -50.75 80.25 5.5
      vertex -50.75 96 6
    endloop
  endfacet
  facet normal -1 0 0
    outer loop
      vertex -50.75 96 0
      vertex -50.75 79.75 5.5
      vertex -50.75 80.25 5.5
    endloop
  endfacet
  facet normal -1 0 0
    outer loop
      vertex -50.75 79.75 5.5
      vertex -50.75 64.25 5.5
      vertex -50.75 79.75 6
    endloop
  endfacet
  facet normal -1 0 0
    outer loop
      vertex -50.75 96 0
      vertex -50.75 64.25 5.5
      vertex -50.75 79.75 5.5
    endloop
  endfacet
  facet normal -1 0 0
    outer loop
      vertex -50.75 48.25 0
      vertex -50.75 64.25 5.5
      vertex -50.75 96 0
    endloop
  endfacet
  facet normal -1 -0 0
    outer loop
      vertex -50.75 64.25 5.5
      vertex -50.75 48.25 0
      vertex -50.75 63.75 5.5
    endloop
  endfacet
  facet normal -1 0 0
    outer loop
      vertex -50.75 48.25 6
      vertex -50.75 63.75 5.5
      vertex -50.75 48.25 0
    endloop
  endfacet
  facet normal -1 0 0
    outer loop
      vertex -50.75 63.75 5.5
      vertex -50.75 48.25 6
      vertex -50.75 63.75 6
    endloop
  endfacet
  facet normal -1 -0 0
    outer loop
      vertex -50.75 96 6
      vertex -50.75 80.25 5.5
      vertex -50.75 80.25 6
    endloop
  endfacet
  facet normal -1 -0 0
    outer loop
      vertex -50.75 79.75 6
      vertex -50.75 64.25 5.5
      vertex -50.75 64.25 6
    endloop
  endfacet
  facet normal -1 0 0
    outer loop
      vertex -50.75 16.25 5.5
      vertex -50.75 31.75 6
      vertex -50.75 31.75 5.5
    endloop
  endfacet
  facet normal -1 -0 0
    outer loop
      vertex -50.75 31.75 6
      vertex -50.75 16.25 5.5
      vertex -50.75 16.25 6
    endloop
  endfacet
  facet normal -1 0 0
    outer loop
      vertex -50.75 47.75 0
      vertex -50.75 32.25 5.5
      vertex -50.75 47.75 6
    endloop
  endfacet
  facet normal -1 0 0
    outer loop
      vertex -50.75 31.75 0
      vertex -50.75 32.25 5.5
      vertex -50.75 47.75 0
    endloop
  endfacet
  facet normal -1 -0 0
    outer loop
      vertex -50.75 32.25 5.5
      vertex -50.75 31.75 0
      vertex -50.75 31.75 5.5
    endloop
  endfacet
  facet normal -1 -0 0
    outer loop
      vertex -50.75 47.75 6
      vertex -50.75 32.25 5.5
      vertex -50.75 32.25 6
    endloop
  endfacet
  facet normal -1 0 0
    outer loop
      vertex -50.75 0 0
      vertex -50.75 15.75 6
      vertex -50.75 15.75 0
    endloop
  endfacet
  facet normal -1 -0 0
    outer loop
      vertex -50.75 15.75 6
      vertex -50.75 0 0
      vertex -50.75 0 6
    endloop
  endfacet
  facet normal 1 0 0
    outer loop
      vertex -51.25 47.75 6
      vertex -51.25 32.25 6
      vertex -51.25 47.75 5.5
    endloop
  endfacet
  facet normal 1 0 0
    outer loop
      vertex -51.25 63.75 6
      vertex -51.25 48.25 6
      vertex -51.25 63.75 5.5
    endloop
  endfacet
  facet normal 1 0 0
    outer loop
      vertex -51.25 79.75 6
      vertex -51.25 64.25 6
      vertex -51.25 79.75 5.5
    endloop
  endfacet
  facet normal 1 0 0
    outer loop
      vertex -51.25 80.25 5.5
      vertex -51.25 96 6
      vertex -51.25 80.25 6
    endloop
  endfacet
  facet normal 1 0 0
    outer loop
      vertex -51.25 96 6
      vertex -51.25 80.25 5.5
      vertex -51.25 96 0
    endloop
  endfacet
  facet normal 1 -0 0
    outer loop
      vertex -51.25 79.75 5.5
      vertex -51.25 96 0
      vertex -51.25 80.25 5.5
    endloop
  endfacet
  facet normal 1 0 0
    outer loop
      vertex -51.25 64.25 5.5
      vertex -51.25 79.75 5.5
      vertex -51.25 64.25 6
    endloop
  endfacet
  facet normal 1 0 0
    outer loop
      vertex -51.25 79.75 5.5
      vertex -51.25 64.25 5.5
      vertex -51.25 96 0
    endloop
  endfacet
  facet normal 1 -0 0
    outer loop
      vertex -51.25 63.75 5.5
      vertex -51.25 96 0
      vertex -51.25 64.25 5.5
    endloop
  endfacet
  facet normal 1 0 0
    outer loop
      vertex -51.25 48.25 5.5
      vertex -51.25 63.75 5.5
      vertex -51.25 48.25 6
    endloop
  endfacet
  facet normal 1 0 0
    outer loop
      vertex -51.25 32.25 0
      vertex -51.25 63.75 5.5
      vertex -51.25 48.25 5.5
    endloop
  endfacet
  facet normal 1 0 0
    outer loop
      vertex -51.25 32.25 0
      vertex -51.25 48.25 5.5
      vertex -51.25 47.75 5.5
    endloop
  endfacet
  facet normal 1 0 0
    outer loop
      vertex -51.25 32.25 0
      vertex -51.25 47.75 5.5
      vertex -51.25 32.25 6
    endloop
  endfacet
  facet normal 1 0 0
    outer loop
      vertex -51.25 63.75 5.5
      vertex -51.25 32.25 0
      vertex -51.25 96 0
    endloop
  endfacet
  facet normal 1 -0 0
    outer loop
      vertex -51.25 16.25 6
      vertex -51.25 31.75 5.5
      vertex -51.25 31.75 6
    endloop
  endfacet
  facet normal 1 0 0
    outer loop
      vertex -51.25 31.75 5.5
      vertex -51.25 16.25 6
      vertex -51.25 16.25 5.5
    endloop
  endfacet
  facet normal 1 0 0
    outer loop
      vertex -51.25 15.75 6
      vertex -51.25 0 6
      vertex -51.25 15.75 5.5
    endloop
  endfacet
  facet normal 1 -0 0
    outer loop
      vertex -51.25 15.75 5.5
      vertex -51.25 16.25 0
      vertex -51.25 16.25 5.5
    endloop
  endfacet
  facet normal 1 0 0
    outer loop
      vertex -51.25 0 0
      vertex -51.25 15.75 5.5
      vertex -51.25 0 6
    endloop
  endfacet
  facet normal 1 0 0
    outer loop
      vertex -51.25 15.75 5.5
      vertex -51.25 0 0
      vertex -51.25 16.25 0
    endloop
  endfacet
  facet normal -1 0 0
    outer loop
      vertex -34.75 80.25 5.5
      vertex -34.75 96 6
      vertex -34.75 96 5.5
    endloop
  endfacet
  facet normal -1 -0 0
    outer loop
      vertex -34.75 96 6
      vertex -34.75 80.25 5.5
      vertex -34.75 80.25 6
    endloop
  endfacet
  facet normal -1 0 0
    outer loop
      vertex -34.75 63.75 0
      vertex -34.75 48.25 5.5
      vertex -34.75 63.75 6
    endloop
  endfacet
  facet normal -1 0 0
    outer loop
      vertex -34.75 63.75 0
      vertex -34.75 47.75 5.5
      vertex -34.75 48.25 5.5
    endloop
  endfacet
  facet normal -1 0 0
    outer loop
      vertex -34.75 32.25 0
      vertex -34.75 47.75 5.5
      vertex -34.75 63.75 0
    endloop
  endfacet
  facet normal -1 0 0
    outer loop
      vertex -34.75 32.25 6
      vertex -34.75 47.75 5.5
      vertex -34.75 32.25 0
    endloop
  endfacet
  facet normal -1 0 0
    outer loop
      vertex -34.75 47.75 5.5
      vertex -34.75 32.25 6
      vertex -34.75 47.75 6
    endloop
  endfacet
  facet normal -1 -0 0
    outer loop
      vertex -34.75 63.75 6
      vertex -34.75 48.25 5.5
      vertex -34.75 48.25 6
    endloop
  endfacet
  facet normal -1 0 0
    outer loop
      vertex -34.75 0 5.5
      vertex -34.75 15.75 6
      vertex -34.75 15.75 5.5
    endloop
  endfacet
  facet normal -1 -0 0
    outer loop
      vertex -34.75 15.75 6
      vertex -34.75 0 5.5
      vertex -34.75 0 6
    endloop
  endfacet
  facet normal -1 0 0
    outer loop
      vertex -34.75 31.75 0
      vertex -34.75 16.25 5.5
      vertex -34.75 31.75 6
    endloop
  endfacet
  facet normal -1 0 0
    outer loop
      vertex -34.75 15.75 0
      vertex -34.75 16.25 5.5
      vertex -34.75 31.75 0
    endloop
  endfacet
  facet normal -1 -0 0
    outer loop
      vertex -34.75 16.25 5.5
      vertex -34.75 15.75 0
      vertex -34.75 15.75 5.5
    endloop
  endfacet
  facet normal -1 -0 0
    outer loop
      vertex -34.75 31.75 6
      vertex -34.75 16.25 5.5
      vertex -34.75 16.25 6
    endloop
  endfacet
  facet normal -1 0 0
    outer loop
      vertex -34.75 64.25 0
      vertex -34.75 79.75 6
      vertex -34.75 79.75 0
    endloop
  endfacet
  facet normal -1 -0 0
    outer loop
      vertex -34.75 79.75 6
      vertex -34.75 64.25 0
      vertex -34.75 64.25 6
    endloop
  endfacet
  facet normal 1 0 0
    outer loop
      vertex -35.25 63.75 6
      vertex -35.25 48.25 6
      vertex -35.25 63.75 5.5
    endloop
  endfacet
  facet normal 1 0 0
    outer loop
      vertex -35.25 79.75 6
      vertex -35.25 64.25 6
      vertex -35.25 79.75 5.5
    endloop
  endfacet
  facet normal 1 -0 0
    outer loop
      vertex -35.25 79.75 5.5
      vertex -35.25 80.25 0
      vertex -35.25 80.25 5.5
    endloop
  endfacet
  facet normal 1 0 0
    outer loop
      vertex -35.25 64.25 5.5
      vertex -35.25 79.75 5.5
      vertex -35.25 64.25 6
    endloop
  endfacet
  facet normal 1 0 0
    outer loop
      vertex -35.25 79.75 5.5
      vertex -35.25 64.25 5.5
      vertex -35.25 80.25 0
    endloop
  endfacet
  facet normal 1 -0 0
    outer loop
      vertex -35.25 63.75 5.5
      vertex -35.25 80.25 0
      vertex -35.25 64.25 5.5
    endloop
  endfacet
  facet normal 1 0 0
    outer loop
      vertex -35.25 48.25 0
      vertex -35.25 63.75 5.5
      vertex -35.25 48.25 6
    endloop
  endfacet
  facet normal 1 0 0
    outer loop
      vertex -35.25 63.75 5.5
      vertex -35.25 48.25 0
      vertex -35.25 80.25 0
    endloop
  endfacet
  facet normal 1 -0 0
    outer loop
      vertex -35.25 80.25 6
      vertex -35.25 96 5.5
      vertex -35.25 96 6
    endloop
  endfacet
  facet normal 1 0 0
    outer loop
      vertex -35.25 96 5.5
      vertex -35.25 80.25 6
      vertex -35.25 80.25 5.5
    endloop
  endfacet
  facet normal 1 0 0
    outer loop
      vertex -35.25 31.75 6
      vertex -35.25 16.25 6
      vertex -35.25 31.75 5.5
    endloop
  endfacet
  facet normal 1 0 0
    outer loop
      vertex -35.25 32.25 5.5
      vertex -35.25 47.75 6
      vertex -35.25 32.25 6
    endloop
  endfacet
  facet normal 1 0 0
    outer loop
      vertex -35.25 47.75 6
      vertex -35.25 32.25 5.5
      vertex -35.25 47.75 0
    endloop
  endfacet
  facet normal 1 -0 0
    outer loop
      vertex -35.25 31.75 5.5
      vertex -35.25 47.75 0
      vertex -35.25 32.25 5.5
    endloop
  endfacet
  facet normal 1 0 0
    outer loop
      vertex -35.25 16.25 0
      vertex -35.25 31.75 5.5
      vertex -35.25 16.25 6
    endloop
  endfacet
  facet normal 1 0 0
    outer loop
      vertex -35.25 31.75 5.5
      vertex -35.25 16.25 0
      vertex -35.25 47.75 0
    endloop
  endfacet
  facet normal 1 -0 0
    outer loop
      vertex -35.25 0 6
      vertex -35.25 15.75 5.5
      vertex -35.25 15.75 6
    endloop
  endfacet
  facet normal 1 0 0
    outer loop
      vertex -35.25 15.75 5.5
      vertex -35.25 0 6
      vertex -35.25 0 5.5
    endloop
  endfacet
  facet normal -1 0 0
    outer loop
      vertex -18.75 64.25 5.5
      vertex -18.75 79.75 6
      vertex -18.75 79.75 5.5
    endloop
  endfacet
  facet normal -1 -0 0
    outer loop
      vertex -18.75 79.75 6
      vertex -18.75 64.25 5.5
      vertex -18.75 64.25 6
    endloop
  endfacet
  facet normal -1 0 0
    outer loop
      vertex -18.75 96 0
      vertex -18.75 80.25 5.5
      vertex -18.75 96 6
    endloop
  endfacet
  facet normal -1 0 0
    outer loop
      vertex -18.75 79.75 0
      vertex -18.75 80.25 5.5
      vertex -18.75 96 0
    endloop
  endfacet
  facet normal -1 -0 0
    outer loop
      vertex -18.75 80.25 5.5
      vertex -18.75 79.75 0
      vertex -18.75 79.75 5.5
    endloop
  endfacet
  facet normal -1 -0 0
    outer loop
      vertex -18.75 96 6
      vertex -18.75 80.25 5.5
      vertex -18.75 80.25 6
    endloop
  endfacet
  facet normal -1 0 0
    outer loop
      vertex -18.75 64.25 0
      vertex -18.75 63.75 5.5
      vertex -18.75 64.25 5.5
    endloop
  endfacet
  facet normal -1 0 0
    outer loop
      vertex -18.75 48.25 0
      vertex -18.75 63.75 5.5
      vertex -18.75 64.25 0
    endloop
  endfacet
  facet normal -1 0 0
    outer loop
      vertex -18.75 48.25 6
      vertex -18.75 63.75 5.5
      vertex -18.75 48.25 0
    endloop
  endfacet
  facet normal -1 0 0
    outer loop
      vertex -18.75 63.75 5.5
      vertex -18.75 48.25 6
      vertex -18.75 63.75 6
    endloop
  endfacet
  facet normal -1 0 0
    outer loop
      vertex -18.75 32.25 5.5
      vertex -18.75 47.75 6
      vertex -18.75 47.75 5.5
    endloop
  endfacet
  facet normal -1 -0 0
    outer loop
      vertex -18.75 47.75 6
      vertex -18.75 32.25 5.5
      vertex -18.75 32.25 6
    endloop
  endfacet
  facet normal -1 0 0
    outer loop
      vertex -18.75 32.25 0
      vertex -18.75 31.75 5.5
      vertex -18.75 32.25 5.5
    endloop
  endfacet
  facet normal -1 0 0
    outer loop
      vertex -18.75 16.25 0
      vertex -18.75 31.75 5.5
      vertex -18.75 32.25 0
    endloop
  endfacet
  facet normal -1 0 0
    outer loop
      vertex -18.75 16.25 6
      vertex -18.75 31.75 5.5
      vertex -18.75 16.25 0
    endloop
  endfacet
  facet normal -1 0 0
    outer loop
      vertex -18.75 31.75 5.5
      vertex -18.75 16.25 6
      vertex -18.75 31.75 6
    endloop
  endfacet
  facet normal -1 0 0
    outer loop
      vertex -18.75 0 5.5
      vertex -18.75 15.75 6
      vertex -18.75 15.75 5.5
    endloop
  endfacet
  facet normal -1 -0 0
    outer loop
      vertex -18.75 15.75 6
      vertex -18.75 0 5.5
      vertex -18.75 0 6
    endloop
  endfacet
  facet normal 1 -0 0
    outer loop
      vertex -19.25 64.25 6
      vertex -19.25 79.75 5.5
      vertex -19.25 79.75 6
    endloop
  endfacet
  facet normal 1 0 0
    outer loop
      vertex -19.25 79.75 5.5
      vertex -19.25 64.25 6
      vertex -19.25 64.25 5.5
    endloop
  endfacet
  facet normal 1 -0 0
    outer loop
      vertex -19.25 32.25 6
      vertex -19.25 47.75 5.5
      vertex -19.25 47.75 6
    endloop
  endfacet
  facet normal 1 0 0
    outer loop
      vertex -19.25 47.75 5.5
      vertex -19.25 32.25 6
      vertex -19.25 32.25 5.5
    endloop
  endfacet
  facet normal 1 0 0
    outer loop
      vertex -19.25 48.25 5.5
      vertex -19.25 63.75 6
      vertex -19.25 48.25 6
    endloop
  endfacet
  facet normal 1 0 0
    outer loop
      vertex -19.25 63.75 6
      vertex -19.25 48.25 5.5
      vertex -19.25 63.75 0
    endloop
  endfacet
  facet normal 1 0 0
    outer loop
      vertex -19.25 47.75 0
      vertex -19.25 48.25 5.5
      vertex -19.25 47.75 5.5
    endloop
  endfacet
  facet normal 1 0 0
    outer loop
      vertex -19.25 48.25 5.5
      vertex -19.25 47.75 0
      vertex -19.25 63.75 0
    endloop
  endfacet
  facet normal 1 -0 0
    outer loop
      vertex -19.25 0 6
      vertex -19.25 15.75 5.5
      vertex -19.25 15.75 6
    endloop
  endfacet
  facet normal 1 0 0
    outer loop
      vertex -19.25 15.75 5.5
      vertex -19.25 0 6
      vertex -19.25 0 5.5
    endloop
  endfacet
  facet normal 1 0 0
    outer loop
      vertex -19.25 16.25 5.5
      vertex -19.25 31.75 6
      vertex -19.25 16.25 6
    endloop
  endfacet
  facet normal 1 0 0
    outer loop
      vertex -19.25 31.75 6
      vertex -19.25 16.25 5.5
      vertex -19.25 31.75 0
    endloop
  endfacet
  facet normal 1 0 0
    outer loop
      vertex -19.25 15.75 0
      vertex -19.25 16.25 5.5
      vertex -19.25 15.75 5.5
    endloop
  endfacet
  facet normal 1 0 0
    outer loop
      vertex -19.25 16.25 5.5
      vertex -19.25 15.75 0
      vertex -19.25 31.75 0
    endloop
  endfacet
  facet normal 1 -0 0
    outer loop
      vertex -19.25 80.25 6
      vertex -19.25 96 0
      vertex -19.25 96 6
    endloop
  endfacet
  facet normal 1 0 0
    outer loop
      vertex -19.25 96 0
      vertex -19.25 80.25 6
      vertex -19.25 80.25 0
    endloop
  endfacet
  facet normal 0 1 -0
    outer loop
      vertex -51.25 15.75 5.5
      vertex -67 15.75 6
      vertex -51.25 15.75 6
    endloop
  endfacet
  facet normal 0 1 0
    outer loop
      vertex -67 15.75 6
      vertex -51.25 15.75 5.5
      vertex -67 15.75 5.5
    endloop
  endfacet
  facet normal 0 1 0
    outer loop
      vertex -34.75 15.75 5.5
      vertex -34.75 15.75 0
      vertex -35.25 15.75 5.5
    endloop
  endfacet
  facet normal 0 1 -0
    outer loop
      vertex -35.25 15.75 5.5
      vertex -50.75 15.75 6
      vertex -35.25 15.75 6
    endloop
  endfacet
  facet normal 0 1 0
    outer loop
      vertex -50.75 15.75 0
      vertex -35.25 15.75 5.5
      vertex -34.75 15.75 0
    endloop
  endfacet
  facet normal 0 1 0
    outer loop
      vertex -35.25 15.75 5.5
      vertex -50.75 15.75 0
      vertex -50.75 15.75 6
    endloop
  endfacet
  facet normal 0 1 -0
    outer loop
      vertex -19.25 15.75 5.5
      vertex -34.75 15.75 6
      vertex -19.25 15.75 6
    endloop
  endfacet
  facet normal 0 1 0
    outer loop
      vertex -34.75 15.75 6
      vertex -19.25 15.75 5.5
      vertex -34.75 15.75 5.5
    endloop
  endfacet
  facet normal 0 1 0
    outer loop
      vertex -3 15.75 6
      vertex -18.75 15.75 5.5
      vertex -18.75 15.75 6
    endloop
  endfacet
  facet normal 0 1 -0
    outer loop
      vertex -3 15.75 0
      vertex -18.75 15.75 5.5
      vertex -3 15.75 6
    endloop
  endfacet
  facet normal 0 1 0
    outer loop
      vertex -19.25 15.75 0
      vertex -18.75 15.75 5.5
      vertex -3 15.75 0
    endloop
  endfacet
  facet normal 0 1 0
    outer loop
      vertex -18.75 15.75 5.5
      vertex -19.25 15.75 0
      vertex -19.25 15.75 5.5
    endloop
  endfacet
  facet normal 0 -1 0
    outer loop
      vertex -67 16.25 5.5
      vertex -51.25 16.25 6
      vertex -67 16.25 6
    endloop
  endfacet
  facet normal 0 -1 -0
    outer loop
      vertex -51.25 16.25 6
      vertex -67 16.25 5.5
      vertex -51.25 16.25 5.5
    endloop
  endfacet
  facet normal 0 -1 0
    outer loop
      vertex -51.25 16.25 5.5
      vertex -51.25 16.25 0
      vertex -50.75 16.25 5.5
    endloop
  endfacet
  facet normal 0 -1 0
    outer loop
      vertex -50.75 16.25 5.5
      vertex -35.25 16.25 6
      vertex -50.75 16.25 6
    endloop
  endfacet
  facet normal 0 -1 0
    outer loop
      vertex -35.25 16.25 0
      vertex -50.75 16.25 5.5
      vertex -51.25 16.25 0
    endloop
  endfacet
  facet normal 0 -1 0
    outer loop
      vertex -50.75 16.25 5.5
      vertex -35.25 16.25 0
      vertex -35.25 16.25 6
    endloop
  endfacet
  facet normal 0 -1 0
    outer loop
      vertex -34.75 16.25 5.5
      vertex -19.25 16.25 6
      vertex -34.75 16.25 6
    endloop
  endfacet
  facet normal 0 -1 -0
    outer loop
      vertex -19.25 16.25 6
      vertex -34.75 16.25 5.5
      vertex -19.25 16.25 5.5
    endloop
  endfacet
  facet normal 0 -1 0
    outer loop
      vertex -18.75 16.25 0
      vertex -3 16.25 6
      vertex -18.75 16.25 6
    endloop
  endfacet
  facet normal 0 -1 -0
    outer loop
      vertex -3 16.25 6
      vertex -18.75 16.25 0
      vertex -3 16.25 0
    endloop
  endfacet
  facet normal 0 1 0
    outer loop
      vertex -50.75 31.75 5.5
      vertex -50.75 31.75 0
      vertex -51.25 31.75 5.5
    endloop
  endfacet
  facet normal 0 1 -0
    outer loop
      vertex -51.25 31.75 5.5
      vertex -67 31.75 6
      vertex -51.25 31.75 6
    endloop
  endfacet
  facet normal 0 1 0
    outer loop
      vertex -67 31.75 0
      vertex -51.25 31.75 5.5
      vertex -50.75 31.75 0
    endloop
  endfacet
  facet normal 0 1 0
    outer loop
      vertex -51.25 31.75 5.5
      vertex -67 31.75 0
      vertex -67 31.75 6
    endloop
  endfacet
  facet normal 0 1 -0
    outer loop
      vertex -35.25 31.75 5.5
      vertex -50.75 31.75 6
      vertex -35.25 31.75 6
    endloop
  endfacet
  facet normal 0 1 0
    outer loop
      vertex -50.75 31.75 6
      vertex -35.25 31.75 5.5
      vertex -50.75 31.75 5.5
    endloop
  endfacet
  facet normal 0 1 -0
    outer loop
      vertex -3 31.75 5.5
      vertex -18.75 31.75 6
      vertex -3 31.75 6
    endloop
  endfacet
  facet normal 0 1 0
    outer loop
      vertex -18.75 31.75 6
      vertex -3 31.75 5.5
      vertex -18.75 31.75 5.5
    endloop
  endfacet
  facet normal 0 1 -0
    outer loop
      vertex -19.25 31.75 0
      vertex -34.75 31.75 6
      vertex -19.25 31.75 6
    endloop
  endfacet
  facet normal 0 1 0
    outer loop
      vertex -34.75 31.75 6
      vertex -19.25 31.75 0
      vertex -34.75 31.75 0
    endloop
  endfacet
  facet normal 0 -1 0
    outer loop
      vertex -50.75 32.25 5.5
      vertex -35.25 32.25 6
      vertex -50.75 32.25 6
    endloop
  endfacet
  facet normal 0 -1 -0
    outer loop
      vertex -35.25 32.25 6
      vertex -50.75 32.25 5.5
      vertex -35.25 32.25 5.5
    endloop
  endfacet
  facet normal 0 -1 0
    outer loop
      vertex -34.75 32.25 6
      vertex -19.25 32.25 5.5
      vertex -19.25 32.25 6
    endloop
  endfacet
  facet normal 0 -1 0
    outer loop
      vertex -34.75 32.25 0
      vertex -19.25 32.25 5.5
      vertex -34.75 32.25 6
    endloop
  endfacet
  facet normal 0 -1 0
    outer loop
      vertex -18.75 32.25 0
      vertex -19.25 32.25 5.5
      vertex -34.75 32.25 0
    endloop
  endfacet
  facet normal 0 -1 0
    outer loop
      vertex -19.25 32.25 5.5
      vertex -18.75 32.25 0
      vertex -18.75 32.25 5.5
    endloop
  endfacet
  facet normal 0 -1 0
    outer loop
      vertex -18.75 32.25 5.5
      vertex -3 32.25 6
      vertex -18.75 32.25 6
    endloop
  endfacet
  facet normal 0 -1 -0
    outer loop
      vertex -3 32.25 6
      vertex -18.75 32.25 5.5
      vertex -3 32.25 5.5
    endloop
  endfacet
  facet normal 0 -1 0
    outer loop
      vertex -67 32.25 0
      vertex -51.25 32.25 6
      vertex -67 32.25 6
    endloop
  endfacet
  facet normal 0 -1 -0
    outer loop
      vertex -51.25 32.25 6
      vertex -67 32.25 0
      vertex -51.25 32.25 0
    endloop
  endfacet
  facet normal 0 1 -0
    outer loop
      vertex -51.25 47.75 5.5
      vertex -67 47.75 6
      vertex -51.25 47.75 6
    endloop
  endfacet
  facet normal 0 1 0
    outer loop
      vertex -67 47.75 6
      vertex -51.25 47.75 5.5
      vertex -67 47.75 5.5
    endloop
  endfacet
  facet normal 0 1 -0
    outer loop
      vertex -19.25 47.75 5.5
      vertex -34.75 47.75 6
      vertex -19.25 47.75 6
    endloop
  endfacet
  facet normal 0 1 0
    outer loop
      vertex -34.75 47.75 6
      vertex -19.25 47.75 5.5
      vertex -34.75 47.75 5.5
    endloop
  endfacet
  facet normal 0 1 0
    outer loop
      vertex -3 47.75 6
      vertex -18.75 47.75 5.5
      vertex -18.75 47.75 6
    endloop
  endfacet
  facet normal 0 1 -0
    outer loop
      vertex -3 47.75 0
      vertex -18.75 47.75 5.5
      vertex -3 47.75 6
    endloop
  endfacet
  facet normal 0 1 0
    outer loop
      vertex -19.25 47.75 0
      vertex -18.75 47.75 5.5
      vertex -3 47.75 0
    endloop
  endfacet
  facet normal 0 1 0
    outer loop
      vertex -18.75 47.75 5.5
      vertex -19.25 47.75 0
      vertex -19.25 47.75 5.5
    endloop
  endfacet
  facet normal 0 1 -0
    outer loop
      vertex -35.25 47.75 0
      vertex -50.75 47.75 6
      vertex -35.25 47.75 6
    endloop
  endfacet
  facet normal 0 1 0
    outer loop
      vertex -50.75 47.75 6
      vertex -35.25 47.75 0
      vertex -50.75 47.75 0
    endloop
  endfacet
  facet normal 0 -1 0
    outer loop
      vertex -67 48.25 5.5
      vertex -51.25 48.25 6
      vertex -67 48.25 6
    endloop
  endfacet
  facet normal 0 -1 -0
    outer loop
      vertex -51.25 48.25 6
      vertex -67 48.25 5.5
      vertex -51.25 48.25 5.5
    endloop
  endfacet
  facet normal 0 -1 0
    outer loop
      vertex -34.75 48.25 5.5
      vertex -19.25 48.25 6
      vertex -34.75 48.25 6
    endloop
  endfacet
  facet normal 0 -1 -0
    outer loop
      vertex -19.25 48.25 6
      vertex -34.75 48.25 5.5
      vertex -19.25 48.25 5.5
    endloop
  endfacet
  facet normal 0 -1 0
    outer loop
      vertex -18.75 48.25 0
      vertex -3 48.25 6
      vertex -18.75 48.25 6
    endloop
  endfacet
  facet normal 0 -1 -0
    outer loop
      vertex -3 48.25 6
      vertex -18.75 48.25 0
      vertex -3 48.25 0
    endloop
  endfacet
  facet normal 0 -1 0
    outer loop
      vertex -50.75 48.25 0
      vertex -35.25 48.25 6
      vertex -50.75 48.25 6
    endloop
  endfacet
  facet normal 0 -1 -0
    outer loop
      vertex -35.25 48.25 6
      vertex -50.75 48.25 0
      vertex -35.25 48.25 0
    endloop
  endfacet
  facet normal 0 1 -0
    outer loop
      vertex -51.25 63.75 5.5
      vertex -67 63.75 6
      vertex -51.25 63.75 6
    endloop
  endfacet
  facet normal 0 1 0
    outer loop
      vertex -67 63.75 6
      vertex -51.25 63.75 5.5
      vertex -67 63.75 5.5
    endloop
  endfacet
  facet normal 0 1 -0
    outer loop
      vertex -35.25 63.75 5.5
      vertex -50.75 63.75 6
      vertex -35.25 63.75 6
    endloop
  endfacet
  facet normal 0 1 0
    outer loop
      vertex -50.75 63.75 6
      vertex -35.25 63.75 5.5
      vertex -50.75 63.75 5.5
    endloop
  endfacet
  facet normal 0 1 -0
    outer loop
      vertex -3 63.75 5.5
      vertex -18.75 63.75 6
      vertex -3 63.75 6
    endloop
  endfacet
  facet normal 0 1 0
    outer loop
      vertex -18.75 63.75 6
      vertex -3 63.75 5.5
      vertex -18.75 63.75 5.5
    endloop
  endfacet
  facet normal 0 1 -0
    outer loop
      vertex -19.25 63.75 0
      vertex -34.75 63.75 6
      vertex -19.25 63.75 6
    endloop
  endfacet
  facet normal 0 1 0
    outer loop
      vertex -34.75 63.75 6
      vertex -19.25 63.75 0
      vertex -34.75 63.75 0
    endloop
  endfacet
  facet normal 0 -1 0
    outer loop
      vertex -67 64.25 5.5
      vertex -51.25 64.25 6
      vertex -67 64.25 6
    endloop
  endfacet
  facet normal 0 -1 -0
    outer loop
      vertex -51.25 64.25 6
      vertex -67 64.25 5.5
      vertex -51.25 64.25 5.5
    endloop
  endfacet
  facet normal 0 -1 0
    outer loop
      vertex -50.75 64.25 5.5
      vertex -35.25 64.25 6
      vertex -50.75 64.25 6
    endloop
  endfacet
  facet normal 0 -1 -0
    outer loop
      vertex -35.25 64.25 6
      vertex -50.75 64.25 5.5
      vertex -35.25 64.25 5.5
    endloop
  endfacet
  facet normal 0 -1 0
    outer loop
      vertex -34.75 64.25 6
      vertex -19.25 64.25 5.5
      vertex -19.25 64.25 6
    endloop
  endfacet
  facet normal 0 -1 0
    outer loop
      vertex -34.75 64.25 0
      vertex -19.25 64.25 5.5
      vertex -34.75 64.25 6
    endloop
  endfacet
  facet normal 0 -1 0
    outer loop
      vertex -18.75 64.25 0
      vertex -19.25 64.25 5.5
      vertex -34.75 64.25 0
    endloop
  endfacet
  facet normal 0 -1 0
    outer loop
      vertex -19.25 64.25 5.5
      vertex -18.75 64.25 0
      vertex -18.75 64.25 5.5
    endloop
  endfacet
  facet normal 0 -1 0
    outer loop
      vertex -18.75 64.25 5.5
      vertex -3 64.25 6
      vertex -18.75 64.25 6
    endloop
  endfacet
  facet normal 0 -1 -0
    outer loop
      vertex -3 64.25 6
      vertex -18.75 64.25 5.5
      vertex -3 64.25 5.5
    endloop
  endfacet
  facet normal 0 1 -0
    outer loop
      vertex -51.25 79.75 5.5
      vertex -67 79.75 6
      vertex -51.25 79.75 6
    endloop
  endfacet
  facet normal 0 1 0
    outer loop
      vertex -67 79.75 6
      vertex -51.25 79.75 5.5
      vertex -67 79.75 5.5
    endloop
  endfacet
  facet normal 0 1 -0
    outer loop
      vertex -35.25 79.75 5.5
      vertex -50.75 79.75 6
      vertex -35.25 79.75 6
    endloop
  endfacet
  facet normal 0 1 0
    outer loop
      vertex -50.75 79.75 6
      vertex -35.25 79.75 5.5
      vertex -50.75 79.75 5.5
    endloop
  endfacet
  facet normal 0 1 0
    outer loop
      vertex -18.75 79.75 5.5
      vertex -18.75 79.75 0
      vertex -19.25 79.75 5.5
    endloop
  endfacet
  facet normal 0 1 -0
    outer loop
      vertex -19.25 79.75 5.5
      vertex -34.75 79.75 6
      vertex -19.25 79.75 6
    endloop
  endfacet
  facet normal 0 1 0
    outer loop
      vertex -34.75 79.75 0
      vertex -19.25 79.75 5.5
      vertex -18.75 79.75 0
    endloop
  endfacet
  facet normal 0 1 0
    outer loop
      vertex -19.25 79.75 5.5
      vertex -34.75 79.75 0
      vertex -34.75 79.75 6
    endloop
  endfacet
  facet normal 0 1 -0
    outer loop
      vertex -3 79.75 5.5
      vertex -18.75 79.75 6
      vertex -3 79.75 6
    endloop
  endfacet
  facet normal 0 1 0
    outer loop
      vertex -18.75 79.75 6
      vertex -3 79.75 5.5
      vertex -18.75 79.75 5.5
    endloop
  endfacet
  facet normal 0 -1 0
    outer loop
      vertex -67 80.25 5.5
      vertex -51.25 80.25 6
      vertex -67 80.25 6
    endloop
  endfacet
  facet normal 0 -1 -0
    outer loop
      vertex -51.25 80.25 6
      vertex -67 80.25 5.5
      vertex -51.25 80.25 5.5
    endloop
  endfacet
  facet normal 0 -1 0
    outer loop
      vertex -50.75 80.25 5.5
      vertex -35.25 80.25 6
      vertex -50.75 80.25 6
    endloop
  endfacet
  facet normal 0 -1 -0
    outer loop
      vertex -35.25 80.25 6
      vertex -50.75 80.25 5.5
      vertex -35.25 80.25 5.5
    endloop
  endfacet
  facet normal 0 -1 0
    outer loop
      vertex -35.25 80.25 5.5
      vertex -35.25 80.25 0
      vertex -34.75 80.25 5.5
    endloop
  endfacet
  facet normal 0 -1 0
    outer loop
      vertex -34.75 80.25 5.5
      vertex -19.25 80.25 6
      vertex -34.75 80.25 6
    endloop
  endfacet
  facet normal 0 -1 0
    outer loop
      vertex -19.25 80.25 0
      vertex -34.75 80.25 5.5
      vertex -35.25 80.25 0
    endloop
  endfacet
  facet normal 0 -1 0
    outer loop
      vertex -34.75 80.25 5.5
      vertex -19.25 80.25 0
      vertex -19.25 80.25 6
    endloop
  endfacet
  facet normal 0 -1 0
    outer loop
      vertex -18.75 80.25 5.5
      vertex -3 80.25 6
      vertex -18.75 80.25 6
    endloop
  endfacet
  facet normal 0 -1 -0
    outer loop
      vertex -3 80.25 6
      vertex -18.75 80.25 5.5
      vertex -3 80.25 5.5
    endloop
  endfacet
  facet normal 0 0 -1
    outer loop
      vertex -3 0 0
      vertex -19.25 15.75 0
      vertex -3 15.75 0
    endloop
  endfacet
  facet normal 0 0 -1
    outer loop
      vertex -19.25 15.75 0
      vertex -34.75 15.75 0
      vertex -19.25 31.75 0
    endloop
  endfacet
  facet normal 0 0 -1
    outer loop
      vertex -3 0 0
      vertex -34.75 15.75 0
      vertex -19.25 15.75 0
    endloop
  endfacet
  facet normal 0 0 -1
    outer loop
      vertex -50.75 0 0
      vertex -34.75 15.75 0
      vertex -3 0 0
    endloop
  endfacet
  facet normal -0 0 -1
    outer loop
      vertex -34.75 15.75 0
      vertex -50.75 0 0
      vertex -50.75 15.75 0
    endloop
  endfacet
  facet normal -0 0 -1
    outer loop
      vertex -19.25 31.75 0
      vertex -34.75 15.75 0
      vertex -34.75 31.75 0
    endloop
  endfacet
  facet normal 0 0 -1
    outer loop
      vertex -51.25 0 0
      vertex -67 0 0
      vertex -51.25 16.25 0
    endloop
  endfacet
  facet normal 0 0 -1
    outer loop
      vertex -35.25 16.25 0
      vertex -50.75 31.75 0
      vertex -35.25 47.75 0
    endloop
  endfacet
  facet normal 0 0 -1
    outer loop
      vertex -51.25 16.25 0
      vertex -50.75 31.75 0
      vertex -35.25 16.25 0
    endloop
  endfacet
  facet normal 0 0 -1
    outer loop
      vertex -67 31.75 0
      vertex -51.25 16.25 0
      vertex -67 0 0
    endloop
  endfacet
  facet normal 0 0 -1
    outer loop
      vertex -51.25 16.25 0
      vertex -67 31.75 0
      vertex -50.75 31.75 0
    endloop
  endfacet
  facet normal -0 0 -1
    outer loop
      vertex -35.25 47.75 0
      vertex -50.75 31.75 0
      vertex -50.75 47.75 0
    endloop
  endfacet
  facet normal 0 0 -1
    outer loop
      vertex -67 32.25 0
      vertex -51.25 96 0
      vertex -51.25 32.25 0
    endloop
  endfacet
  facet normal -0 0 -1
    outer loop
      vertex -51.25 96 0
      vertex -67 32.25 0
      vertex -67 96 0
    endloop
  endfacet
  facet normal 0 0 -1
    outer loop
      vertex -34.75 64.25 0
      vertex -18.75 79.75 0
      vertex -18.75 64.25 0
    endloop
  endfacet
  facet normal -0 0 -1
    outer loop
      vertex -18.75 79.75 0
      vertex -34.75 64.25 0
      vertex -34.75 79.75 0
    endloop
  endfacet
  facet normal 0 0 -1
    outer loop
      vertex -18.75 64.25 0
      vertex -3 48.25 0
      vertex -18.75 48.25 0
    endloop
  endfacet
  facet normal 0 0 -1
    outer loop
      vertex -3 48.25 0
      vertex -18.75 64.25 0
      vertex -3 96 0
    endloop
  endfacet
  facet normal 0 0 -1
    outer loop
      vertex -18.75 79.75 0
      vertex -3 96 0
      vertex -18.75 64.25 0
    endloop
  endfacet
  facet normal -0 0 -1
    outer loop
      vertex -3 96 0
      vertex -18.75 79.75 0
      vertex -18.75 96 0
    endloop
  endfacet
  facet normal 0 0 -1
    outer loop
      vertex -35.25 48.25 0
      vertex -50.75 48.25 0
      vertex -35.25 80.25 0
    endloop
  endfacet
  facet normal 0 0 -1
    outer loop
      vertex -35.25 80.25 0
      vertex -19.25 96 0
      vertex -19.25 80.25 0
    endloop
  endfacet
  facet normal 0 0 -1
    outer loop
      vertex -35.25 80.25 0
      vertex -50.75 96 0
      vertex -19.25 96 0
    endloop
  endfacet
  facet normal 0 0 -1
    outer loop
      vertex -50.75 96 0
      vertex -35.25 80.25 0
      vertex -50.75 48.25 0
    endloop
  endfacet
  facet normal 0 0 -1
    outer loop
      vertex -18.75 32.25 0
      vertex -3 16.25 0
      vertex -18.75 16.25 0
    endloop
  endfacet
  facet normal 0 0 -1
    outer loop
      vertex -3 16.25 0
      vertex -18.75 32.25 0
      vertex -3 47.75 0
    endloop
  endfacet
  facet normal 0 0 -1
    outer loop
      vertex -18.75 32.25 0
      vertex -19.25 47.75 0
      vertex -3 47.75 0
    endloop
  endfacet
  facet normal 0 0 -1
    outer loop
      vertex -34.75 32.25 0
      vertex -19.25 47.75 0
      vertex -18.75 32.25 0
    endloop
  endfacet
  facet normal 0 0 -1
    outer loop
      vertex -34.75 63.75 0
      vertex -19.25 47.75 0
      vertex -34.75 32.25 0
    endloop
  endfacet
  facet normal 0 0 -1
    outer loop
      vertex -19.25 47.75 0
      vertex -34.75 63.75 0
      vertex -19.25 63.75 0
    endloop
  endfacet
  facet normal 1 -0 0
    outer loop
      vertex -3 0 6
      vertex -3 15.75 0
      vertex -3 15.75 6
    endloop
  endfacet
  facet normal 1 0 0
    outer loop
      vertex -3 15.75 0
      vertex -3 0 6
      vertex -3 0 0
    endloop
  endfacet
  facet normal 1 0 0
    outer loop
      vertex -3 63.75 6
      vertex -3 48.25 6
      vertex -3 63.75 5.5
    endloop
  endfacet
  facet normal 1 0 0
    outer loop
      vertex -3 79.75 6
      vertex -3 64.25 6
      vertex -3 79.75 5.5
    endloop
  endfacet
  facet normal 1 0 0
    outer loop
      vertex -3 80.25 5.5
      vertex -3 96 6
      vertex -3 80.25 6
    endloop
  endfacet
  facet normal 1 0 0
    outer loop
      vertex -3 96 6
      vertex -3 80.25 5.5
      vertex -3 96 0
    endloop
  endfacet
  facet normal 1 -0 0
    outer loop
      vertex -3 79.75 5.5
      vertex -3 96 0
      vertex -3 80.25 5.5
    endloop
  endfacet
  facet normal 1 0 0
    outer loop
      vertex -3 64.25 5.5
      vertex -3 79.75 5.5
      vertex -3 64.25 6
    endloop
  endfacet
  facet normal 1 0 0
    outer loop
      vertex -3 79.75 5.5
      vertex -3 64.25 5.5
      vertex -3 96 0
    endloop
  endfacet
  facet normal 1 0 0
    outer loop
      vertex -3 48.25 0
      vertex -3 64.25 5.5
      vertex -3 63.75 5.5
    endloop
  endfacet
  facet normal 1 0 0
    outer loop
      vertex -3 48.25 0
      vertex -3 63.75 5.5
      vertex -3 48.25 6
    endloop
  endfacet
  facet normal 1 0 0
    outer loop
      vertex -3 64.25 5.5
      vertex -3 48.25 0
      vertex -3 96 0
    endloop
  endfacet
  facet normal 1 0 0
    outer loop
      vertex -3 31.75 6
      vertex -3 16.25 6
      vertex -3 31.75 5.5
    endloop
  endfacet
  facet normal 1 0 0
    outer loop
      vertex -3 32.25 5.5
      vertex -3 47.75 6
      vertex -3 32.25 6
    endloop
  endfacet
  facet normal 1 0 0
    outer loop
      vertex -3 47.75 6
      vertex -3 32.25 5.5
      vertex -3 47.75 0
    endloop
  endfacet
  facet normal 1 -0 0
    outer loop
      vertex -3 31.75 5.5
      vertex -3 47.75 0
      vertex -3 32.25 5.5
    endloop
  endfacet
  facet normal 1 0 0
    outer loop
      vertex -3 16.25 0
      vertex -3 31.75 5.5
      vertex -3 16.25 6
    endloop
  endfacet
  facet normal 1 0 0
    outer loop
      vertex -3 31.75 5.5
      vertex -3 16.25 0
      vertex -3 47.75 0
    endloop
  endfacet
  facet normal -1 0 0
    outer loop
      vertex -67 31.75 0
      vertex -67 16.25 5.5
      vertex -67 31.75 6
    endloop
  endfacet
  facet normal -1 0 0
    outer loop
      vertex -67 31.75 0
      vertex -67 15.75 5.5
      vertex -67 16.25 5.5
    endloop
  endfacet
  facet normal -1 0 0
    outer loop
      vertex -67 0 0
      vertex -67 15.75 5.5
      vertex -67 31.75 0
    endloop
  endfacet
  facet normal -1 0 0
    outer loop
      vertex -67 0 6
      vertex -67 15.75 5.5
      vertex -67 0 0
    endloop
  endfacet
  facet normal -1 0 0
    outer loop
      vertex -67 15.75 5.5
      vertex -67 0 6
      vertex -67 15.75 6
    endloop
  endfacet
  facet normal -1 -0 0
    outer loop
      vertex -67 31.75 6
      vertex -67 16.25 5.5
      vertex -67 16.25 6
    endloop
  endfacet
  facet normal -1 0 0
    outer loop
      vertex -67 96 0
      vertex -67 80.25 5.5
      vertex -67 96 6
    endloop
  endfacet
  facet normal -1 0 0
    outer loop
      vertex -67 96 0
      vertex -67 79.75 5.5
      vertex -67 80.25 5.5
    endloop
  endfacet
  facet normal -1 0 0
    outer loop
      vertex -67 79.75 5.5
      vertex -67 64.25 5.5
      vertex -67 79.75 6
    endloop
  endfacet
  facet normal -1 0 0
    outer loop
      vertex -67 96 0
      vertex -67 64.25 5.5
      vertex -67 79.75 5.5
    endloop
  endfacet
  facet normal -1 0 0
    outer loop
      vertex -67 96 0
      vertex -67 63.75 5.5
      vertex -67 64.25 5.5
    endloop
  endfacet
  facet normal -1 0 0
    outer loop
      vertex -67 63.75 5.5
      vertex -67 48.25 5.5
      vertex -67 63.75 6
    endloop
  endfacet
  facet normal -1 0 0
    outer loop
      vertex -67 32.25 0
      vertex -67 63.75 5.5
      vertex -67 96 0
    endloop
  endfacet
  facet normal -1 -0 0
    outer loop
      vertex -67 63.75 5.5
      vertex -67 32.25 0
      vertex -67 48.25 5.5
    endloop
  endfacet
  facet normal -1 -0 0
    outer loop
      vertex -67 48.25 5.5
      vertex -67 32.25 0
      vertex -67 47.75 5.5
    endloop
  endfacet
  facet normal -1 0 0
    outer loop
      vertex -67 32.25 6
      vertex -67 47.75 5.5
      vertex -67 32.25 0
    endloop
  endfacet
  facet normal -1 0 0
    outer loop
      vertex -67 47.75 5.5
      vertex -67 32.25 6
      vertex -67 47.75 6
    endloop
  endfacet
  facet normal -1 -0 0
    outer loop
      vertex -67 96 6
      vertex -67 80.25 5.5
      vertex -67 80.25 6
    endloop
  endfacet
  facet normal -1 -0 0
    outer loop
      vertex -67 79.75 6
      vertex -67 64.25 5.5
      vertex -67 64.25 6
    endloop
  endfacet
  facet normal -1 -0 0
    outer loop
      vertex -67 63.75 6
      vertex -67 48.25 5.5
      vertex -67 48.25 6
    endloop
  endfacet
  facet normal 0 -1 0
    outer loop
      vertex -50.75 0 6
      vertex -35.25 0 5.5
      vertex -35.25 0 6
    endloop
  endfacet
  facet normal 0 -1 0
    outer loop
      vertex -50.75 0 0
      vertex -34.75 0 5.5
      vertex -35.25 0 5.5
    endloop
  endfacet
  facet normal 0 -1 -0
    outer loop
      vertex -34.75 0 5.5
      vertex -50.75 0 0
      vertex -19.25 0 5.5
    endloop
  endfacet
  facet normal 0 -1 0
    outer loop
      vertex -3 0 0
      vertex -19.25 0 5.5
      vertex -50.75 0 0
    endloop
  endfacet
  facet normal 0 -1 0
    outer loop
      vertex -50.75 0 0
      vertex -35.25 0 5.5
      vertex -50.75 0 6
    endloop
  endfacet
  facet normal 0 -1 0
    outer loop
      vertex -34.75 0 5.5
      vertex -19.25 0 6
      vertex -34.75 0 6
    endloop
  endfacet
  facet normal 0 -1 -0
    outer loop
      vertex -19.25 0 6
      vertex -34.75 0 5.5
      vertex -19.25 0 5.5
    endloop
  endfacet
  facet normal 0 -1 0
    outer loop
      vertex -18.75 0 5.5
      vertex -3 0 6
      vertex -18.75 0 6
    endloop
  endfacet
  facet normal 0 -1 0
    outer loop
      vertex -19.25 0 5.5
      vertex -3 0 0
      vertex -18.75 0 5.5
    endloop
  endfacet
  facet normal 0 -1 0
    outer loop
      vertex -18.75 0 5.5
      vertex -3 0 0
      vertex -3 0 6
    endloop
  endfacet
  facet normal 0 -1 0
    outer loop
      vertex -67 0 0
      vertex -51.25 0 6
      vertex -67 0 6
    endloop
  endfacet
  facet normal 0 -1 -0
    outer loop
      vertex -51.25 0 6
      vertex -67 0 0
      vertex -51.25 0 0
    endloop
  endfacet
  facet normal 0 1 -0
    outer loop
      vertex -51.25 96 0
      vertex -67 96 6
      vertex -51.25 96 6
    endloop
  endfacet
  facet normal 0 1 0
    outer loop
      vertex -67 96 6
      vertex -51.25 96 0
      vertex -67 96 0
    endloop
  endfacet
  facet normal 0 1 -0
    outer loop
      vertex -3 96 0
      vertex -18.75 96 6
      vertex -3 96 6
    endloop
  endfacet
  facet normal 0 1 0
    outer loop
      vertex -18.75 96 6
      vertex -3 96 0
      vertex -18.75 96 0
    endloop
  endfacet
  facet normal 0 1 0
    outer loop
      vertex -19.25 96 6
      vertex -34.75 96 5.5
      vertex -34.75 96 6
    endloop
  endfacet
  facet normal 0 1 0
    outer loop
      vertex -34.75 96 5.5
      vertex -19.25 96 0
      vertex -35.25 96 5.5
    endloop
  endfacet
  facet normal 0 1 -0
    outer loop
      vertex -19.25 96 0
      vertex -34.75 96 5.5
      vertex -19.25 96 6
    endloop
  endfacet
  facet normal 0 1 -0
    outer loop
      vertex -35.25 96 5.5
      vertex -50.75 96 6
      vertex -35.25 96 6
    endloop
  endfacet
  facet normal 0 1 0
    outer loop
      vertex -50.75 96 0
      vertex -35.25 96 5.5
      vertex -19.25 96 0
    endloop
  endfacet
  facet normal 0 1 0
    outer loop
      vertex -35.25 96 5.5
      vertex -50.75 96 0
      vertex -50.75 96 6
    endloop
  endfacet
  facet normal -0 0 1
    outer loop
      vertex -18.75 15.75 6
      vertex -3 0 6
      vertex -3 15.75 6
    endloop
  endfacet
  facet normal 0 0 1
    outer loop
      vertex -3 0 6
      vertex -18.75 15.75 6
      vertex -18.75 0 6
    endloop
  endfacet
  facet normal -0 0 1
    outer loop
      vertex -67 96 6
      vertex -51.25 80.25 6
      vertex -51.25 96 6
    endloop
  endfacet
  facet normal 0 0 1
    outer loop
      vertex -51.25 80.25 6
      vertex -67 96 6
      vertex -67 80.25 6
    endloop
  endfacet
  facet normal -0 0 1
    outer loop
      vertex -67 15.75 6
      vertex -51.25 0 6
      vertex -51.25 15.75 6
    endloop
  endfacet
  facet normal 0 0 1
    outer loop
      vertex -51.25 0 6
      vertex -67 15.75 6
      vertex -67 0 6
    endloop
  endfacet
  facet normal -0 0 1
    outer loop
      vertex -18.75 96 6
      vertex -3 80.25 6
      vertex -3 96 6
    endloop
  endfacet
  facet normal 0 0 1
    outer loop
      vertex -3 80.25 6
      vertex -18.75 96 6
      vertex -18.75 80.25 6
    endloop
  endfacet
  facet normal -0 0 1
    outer loop
      vertex -67 31.75 6
      vertex -51.25 16.25 6
      vertex -51.25 31.75 6
    endloop
  endfacet
  facet normal 0 0 1
    outer loop
      vertex -51.25 16.25 6
      vertex -67 31.75 6
      vertex -67 16.25 6
    endloop
  endfacet
  facet normal -0 0 1
    outer loop
      vertex -67 47.75 6
      vertex -51.25 32.25 6
      vertex -51.25 47.75 6
    endloop
  endfacet
  facet normal 0 0 1
    outer loop
      vertex -51.25 32.25 6
      vertex -67 47.75 6
      vertex -67 32.25 6
    endloop
  endfacet
  facet normal -0 0 1
    outer loop
      vertex -67 63.75 6
      vertex -51.25 48.25 6
      vertex -51.25 63.75 6
    endloop
  endfacet
  facet normal 0 0 1
    outer loop
      vertex -51.25 48.25 6
      vertex -67 63.75 6
      vertex -67 48.25 6
    endloop
  endfacet
  facet normal -0 0 1
    outer loop
      vertex -67 79.75 6
      vertex -51.25 64.25 6
      vertex -51.25 79.75 6
    endloop
  endfacet
  facet normal 0 0 1
    outer loop
      vertex -51.25 64.25 6
      vertex -67 79.75 6
      vertex -67 64.25 6
    endloop
  endfacet
  facet normal -0 0 1
    outer loop
      vertex -50.75 15.75 6
      vertex -35.25 0 6
      vertex -35.25 15.75 6
    endloop
  endfacet
  facet normal 0 0 1
    outer loop
      vertex -35.25 0 6
      vertex -50.75 15.75 6
      vertex -50.75 0 6
    endloop
  endfacet
  facet normal -0 0 1
    outer loop
      vertex -34.75 15.75 6
      vertex -19.25 0 6
      vertex -19.25 15.75 6
    endloop
  endfacet
  facet normal 0 0 1
    outer loop
      vertex -19.25 0 6
      vertex -34.75 15.75 6
      vertex -34.75 0 6
    endloop
  endfacet
  facet normal -0 0 1
    outer loop
      vertex -50.75 96 6
      vertex -35.25 80.25 6
      vertex -35.25 96 6
    endloop
  endfacet
  facet normal 0 0 1
    outer loop
      vertex -35.25 80.25 6
      vertex -50.75 96 6
      vertex -50.75 80.25 6
    endloop
  endfacet
  facet normal -0 0 1
    outer loop
      vertex -34.75 96 6
      vertex -19.25 80.25 6
      vertex -19.25 96 6
    endloop
  endfacet
  facet normal 0 0 1
    outer loop
      vertex -19.25 80.25 6
      vertex -34.75 96 6
      vertex -34.75 80.25 6
    endloop
  endfacet
  facet normal -0 0 1
    outer loop
      vertex -18.75 31.75 6
      vertex -3 16.25 6
      vertex -3 31.75 6
    endloop
  endfacet
  facet normal 0 0 1
    outer loop
      vertex -3 16.25 6
      vertex -18.75 31.75 6
      vertex -18.75 16.25 6
    endloop
  endfacet
  facet normal -0 0 1
    outer loop
      vertex -18.75 47.75 6
      vertex -3 32.25 6
      vertex -3 47.75 6
    endloop
  endfacet
  facet normal 0 0 1
    outer loop
      vertex -3 32.25 6
      vertex -18.75 47.75 6
      vertex -18.75 32.25 6
    endloop
  endfacet
  facet normal -0 0 1
    outer loop
      vertex -18.75 63.75 6
      vertex -3 48.25 6
      vertex -3 63.75 6
    endloop
  endfacet
  facet normal 0 0 1
    outer loop
      vertex -3 48.25 6
      vertex -18.75 63.75 6
      vertex -18.75 48.25 6
    endloop
  endfacet
  facet normal -0 0 1
    outer loop
      vertex -18.75 79.75 6
      vertex -3 64.25 6
      vertex -3 79.75 6
    endloop
  endfacet
  facet normal 0 0 1
    outer loop
      vertex -3 64.25 6
      vertex -18.75 79.75 6
      vertex -18.75 64.25 6
    endloop
  endfacet
  facet normal -0 0 1
    outer loop
      vertex -50.75 79.75 6
      vertex -35.25 64.25 6
      vertex -35.25 79.75 6
    endloop
  endfacet
  facet normal 0 0 1
    outer loop
      vertex -35.25 64.25 6
      vertex -50.75 79.75 6
      vertex -50.75 64.25 6
    endloop
  endfacet
  facet normal -0 0 1
    outer loop
      vertex -50.75 63.75 6
      vertex -35.25 48.25 6
      vertex -35.25 63.75 6
    endloop
  endfacet
  facet normal 0 0 1
    outer loop
      vertex -35.25 48.25 6
      vertex -50.75 63.75 6
      vertex -50.75 48.25 6
    endloop
  endfacet
  facet normal -0 0 1
    outer loop
      vertex -50.75 47.75 6
      vertex -35.25 32.25 6
      vertex -35.25 47.75 6
    endloop
  endfacet
  facet normal 0 0 1
    outer loop
      vertex -35.25 32.25 6
      vertex -50.75 47.75 6
      vertex -50.75 32.25 6
    endloop
  endfacet
  facet normal -0 0 1
    outer loop
      vertex -50.75 31.75 6
      vertex -35.25 16.25 6
      vertex -35.25 31.75 6
    endloop
  endfacet
  facet normal 0 0 1
    outer loop
      vertex -35.25 16.25 6
      vertex -50.75 31.75 6
      vertex -50.75 16.25 6
    endloop
  endfacet
  facet normal -0 0 1
    outer loop
      vertex -34.75 79.75 6
      vertex -19.25 64.25 6
      vertex -19.25 79.75 6
    endloop
  endfacet
  facet normal 0 0 1
    outer loop
      vertex -19.25 64.25 6
      vertex -34.75 79.75 6
      vertex -34.75 64.25 6
    endloop
  endfacet
  facet normal -0 0 1
    outer loop
      vertex -34.75 63.75 6
      vertex -19.25 48.25 6
      vertex -19.25 63.75 6
    endloop
  endfacet
  facet normal 0 0 1
    outer loop
      vertex -19.25 48.25 6
      vertex -34.75 63.75 6
      vertex -34.75 48.25 6
    endloop
  endfacet
  facet normal -0 0 1
    outer loop
      vertex -34.75 47.75 6
      vertex -19.25 32.25 6
      vertex -19.25 47.75 6
    endloop
  endfacet
  facet normal 0 0 1
    outer loop
      vertex -19.25 32.25 6
      vertex -34.75 47.75 6
      vertex -34.75 32.25 6
    endloop
  endfacet
  facet normal -0 0 1
    outer loop
      vertex -34.75 31.75 6
      vertex -19.25 16.25 6
      vertex -19.25 31.75 6
    endloop
  endfacet
  facet normal 0 0 1
    outer loop
      vertex -19.25 16.25 6
      vertex -34.75 31.75 6
      vertex -34.75 16.25 6
    endloop
  endfacet
  facet normal 0 0 -1
    outer loop
      vertex 73 0 0
      vertex 41 51 0
      vertex 73 102 0
    endloop
  endfacet
  facet normal 0 0 -1
    outer loop
      vertex 73 0 0
      vertex 40.4271 49.2366 0
      vertex 41 51 0
    endloop
  endfacet
  facet normal 0 0 -1
    outer loop
      vertex 73 0 0
      vertex 38.9271 48.1468 0
      vertex 40.4271 49.2366 0
    endloop
  endfacet
  facet normal 0 0 -1
    outer loop
      vertex 73 0 0
      vertex 37.0729 48.1468 0
      vertex 38.9271 48.1468 0
    endloop
  endfacet
  facet normal 0 0 -1
    outer loop
      vertex 3 0 0
      vertex 37.0729 48.1468 0
      vertex 73 0 0
    endloop
  endfacet
  facet normal -0 0 -1
    outer loop
      vertex 35.5729 49.2366 0
      vertex 3 0 0
      vertex 35 51 0
    endloop
  endfacet
  facet normal -0 0 -1
    outer loop
      vertex 37.0729 48.1468 0
      vertex 3 0 0
      vertex 35.5729 49.2366 0
    endloop
  endfacet
  facet normal 0 0 -1
    outer loop
      vertex 40.4271 52.7634 0
      vertex 73 102 0
      vertex 41 51 0
    endloop
  endfacet
  facet normal 0 0 -1
    outer loop
      vertex 38.9271 53.8532 0
      vertex 73 102 0
      vertex 40.4271 52.7634 0
    endloop
  endfacet
  facet normal 0 0 -1
    outer loop
      vertex 37.0729 53.8532 0
      vertex 73 102 0
      vertex 38.9271 53.8532 0
    endloop
  endfacet
  facet normal 0 0 -1
    outer loop
      vertex 3 102 0
      vertex 37.0729 53.8532 0
      vertex 35.5729 52.7634 0
    endloop
  endfacet
  facet normal 0 0 -1
    outer loop
      vertex 3 102 0
      vertex 35 51 0
      vertex 3 0 0
    endloop
  endfacet
  facet normal 0 0 -1
    outer loop
      vertex 37.0729 53.8532 0
      vertex 3 102 0
      vertex 73 102 0
    endloop
  endfacet
  facet normal 0 0 -1
    outer loop
      vertex 35 51 0
      vertex 3 102 0
      vertex 35.5729 52.7634 0
    endloop
  endfacet
  facet normal 1 -0 0
    outer loop
      vertex 73 0 4
      vertex 73 102 0
      vertex 73 102 4
    endloop
  endfacet
  facet normal 1 0 0
    outer loop
      vertex 73 102 0
      vertex 73 0 4
      vertex 73 0 0
    endloop
  endfacet
  facet normal -1 0 0
    outer loop
      vertex 3 0 0
      vertex 3 102 4
      vertex 3 102 0
    endloop
  endfacet
  facet normal -1 -0 0
    outer loop
      vertex 3 102 4
      vertex 3 0 0
      vertex 3 0 4
    endloop
  endfacet
  facet normal 0 -1 0
    outer loop
      vertex 3 0 0
      vertex 73 0 4
      vertex 3 0 4
    endloop
  endfacet
  facet normal 0 -1 -0
    outer loop
      vertex 73 0 4
      vertex 3 0 0
      vertex 73 0 0
    endloop
  endfacet
  facet normal 0 1 -0
    outer loop
      vertex 73 102 0
      vertex 3 102 4
      vertex 73 102 4
    endloop
  endfacet
  facet normal 0 1 0
    outer loop
      vertex 3 102 4
      vertex 73 102 0
      vertex 3 102 0
    endloop
  endfacet
  facet normal 0 0 1
    outer loop
      vertex 73 102 4
      vertex 70.25 99.25 4
      vertex 73 0 4
    endloop
  endfacet
  facet normal 0 0 1
    outer loop
      vertex 73 102 4
      vertex 5.75 99.25 4
      vertex 70.25 99.25 4
    endloop
  endfacet
  facet normal 0 0 1
    outer loop
      vertex 5.75 99.25 4
      vertex 3 102 4
      vertex 5.75 2.75 4
    endloop
  endfacet
  facet normal -0 0 1
    outer loop
      vertex 3 102 4
      vertex 5.75 99.25 4
      vertex 73 102 4
    endloop
  endfacet
  facet normal -0 0 1
    outer loop
      vertex 70.25 2.75 4
      vertex 73 0 4
      vertex 70.25 99.25 4
    endloop
  endfacet
  facet normal -0 0 1
    outer loop
      vertex 5.75 2.75 4
      vertex 73 0 4
      vertex 70.25 2.75 4
    endloop
  endfacet
  facet normal 0 0 1
    outer loop
      vertex 5.75 2.75 4
      vertex 3 0 4
      vertex 73 0 4
    endloop
  endfacet
  facet normal 0 0 1
    outer loop
      vertex 3 0 4
      vertex 5.75 2.75 4
      vertex 3 102 4
    endloop
  endfacet
  facet normal 0 0 1
    outer loop
      vertex 70.25 99.25 1.5
      vertex 41 51 1.5
      vertex 70.25 2.75 1.5
    endloop
  endfacet
  facet normal 0 0 1
    outer loop
      vertex 70.25 99.25 1.5
      vertex 40.4271 52.7634 1.5
      vertex 41 51 1.5
    endloop
  endfacet
  facet normal 0 0 1
    outer loop
      vertex 70.25 99.25 1.5
      vertex 38.9271 53.8532 1.5
      vertex 40.4271 52.7634 1.5
    endloop
  endfacet
  facet normal 0 0 1
    outer loop
      vertex 70.25 99.25 1.5
      vertex 37.0729 53.8532 1.5
      vertex 38.9271 53.8532 1.5
    endloop
  endfacet
  facet normal -0 0 1
    outer loop
      vertex 5.75 99.25 1.5
      vertex 37.0729 53.8532 1.5
      vertex 70.25 99.25 1.5
    endloop
  endfacet
  facet normal 0 0 1
    outer loop
      vertex 35.5729 52.7634 1.5
      vertex 5.75 99.25 1.5
      vertex 35 51 1.5
    endloop
  endfacet
  facet normal 0 0 1
    outer loop
      vertex 37.0729 53.8532 1.5
      vertex 5.75 99.25 1.5
      vertex 35.5729 52.7634 1.5
    endloop
  endfacet
  facet normal -0 0 1
    outer loop
      vertex 40.4271 49.2366 1.5
      vertex 70.25 2.75 1.5
      vertex 41 51 1.5
    endloop
  endfacet
  facet normal -0 0 1
    outer loop
      vertex 38.9271 48.1468 1.5
      vertex 70.25 2.75 1.5
      vertex 40.4271 49.2366 1.5
    endloop
  endfacet
  facet normal -0 0 1
    outer loop
      vertex 37.0729 48.1468 1.5
      vertex 70.25 2.75 1.5
      vertex 38.9271 48.1468 1.5
    endloop
  endfacet
  facet normal 0 0 1
    outer loop
      vertex 5.75 2.75 1.5
      vertex 37.0729 48.1468 1.5
      vertex 35.5729 49.2366 1.5
    endloop
  endfacet
  facet normal 0 0 1
    outer loop
      vertex 5.75 2.75 1.5
      vertex 35 51 1.5
      vertex 5.75 99.25 1.5
    endloop
  endfacet
  facet normal 0 0 1
    outer loop
      vertex 37.0729 48.1468 1.5
      vertex 5.75 2.75 1.5
      vertex 70.25 2.75 1.5
    endloop
  endfacet
  facet normal 0 0 1
    outer loop
      vertex 35 51 1.5
      vertex 5.75 2.75 1.5
      vertex 35.5729 49.2366 1.5
    endloop
  endfacet
  facet normal -1 0 0
    outer loop
      vertex 70.25 2.75 1.5
      vertex 70.25 99.25 4
      vertex 70.25 99.25 1.5
    endloop
  endfacet
  facet normal -1 -0 0
    outer loop
      vertex 70.25 99.25 4
      vertex 70.25 2.75 1.5
      vertex 70.25 2.75 4
    endloop
  endfacet
  facet normal 1 -0 0
    outer loop
      vertex 5.75 2.75 4
      vertex 5.75 99.25 1.5
      vertex 5.75 99.25 4
    endloop
  endfacet
  facet normal 1 0 0
    outer loop
      vertex 5.75 99.25 1.5
      vertex 5.75 2.75 4
      vertex 5.75 2.75 1.5
    endloop
  endfacet
  facet normal 0 1 -0
    outer loop
      vertex 70.25 2.75 1.5
      vertex 5.75 2.75 4
      vertex 70.25 2.75 4
    endloop
  endfacet
  facet normal 0 1 0
    outer loop
      vertex 5.75 2.75 4
      vertex 70.25 2.75 1.5
      vertex 5.75 2.75 1.5
    endloop
  endfacet
  facet normal 0 -1 0
    outer loop
      vertex 5.75 99.25 1.5
      vertex 70.25 99.25 4
      vertex 5.75 99.25 4
    endloop
  endfacet
  facet normal 0 -1 -0
    outer loop
      vertex 70.25 99.25 4
      vertex 5.75 99.25 1.5
      vertex 70.25 99.25 1.5
    endloop
  endfacet
  facet normal -0.587785 -0.809017 0
    outer loop
      vertex 38.9271 53.8532 0
      vertex 40.4271 52.7634 1.5
      vertex 38.9271 53.8532 1.5
    endloop
  endfacet
  facet normal -0.587785 -0.809017 -0
    outer loop
      vertex 40.4271 52.7634 1.5
      vertex 38.9271 53.8532 0
      vertex 40.4271 52.7634 0
    endloop
  endfacet
  facet normal 0.951057 0.309017 0
    outer loop
      vertex 35.5729 49.2366 1.5
      vertex 35 51 0
      vertex 35 51 1.5
    endloop
  endfacet
  facet normal 0.951057 0.309017 0
    outer loop
      vertex 35 51 0
      vertex 35.5729 49.2366 1.5
      vertex 35.5729 49.2366 0
    endloop
  endfacet
  facet normal -0.951057 -0.309017 0
    outer loop
      vertex 41 51 0
      vertex 40.4271 52.7634 1.5
      vertex 40.4271 52.7634 0
    endloop
  endfacet
  facet normal -0.951057 -0.309017 0
    outer loop
      vertex 40.4271 52.7634 1.5
      vertex 41 51 0
      vertex 41 51 1.5
    endloop
  endfacet
  facet normal 0.587785 -0.809017 0
    outer loop
      vertex 35.5729 52.7634 0
      vertex 37.0729 53.8532 1.5
      vertex 35.5729 52.7634 1.5
    endloop
  endfacet
  facet normal 0.587785 -0.809017 0
    outer loop
      vertex 37.0729 53.8532 1.5
      vertex 35.5729 52.7634 0
      vertex 37.0729 53.8532 0
    endloop
  endfacet
  facet normal 0.587786 0.809016 -0
    outer loop
      vertex 37.0729 48.1468 0
      vertex 35.5729 49.2366 1.5
      vertex 37.0729 48.1468 1.5
    endloop
  endfacet
  facet normal 0.587786 0.809016 0
    outer loop
      vertex 35.5729 49.2366 1.5
      vertex 37.0729 48.1468 0
      vertex 35.5729 49.2366 0
    endloop
  endfacet
  facet normal -0.587786 0.809016 0
    outer loop
      vertex 40.4271 49.2366 0
      vertex 38.9271 48.1468 1.5
      vertex 40.4271 49.2366 1.5
    endloop
  endfacet
  facet normal -0.587786 0.809016 0
    outer loop
      vertex 38.9271 48.1468 1.5
      vertex 40.4271 49.2366 0
      vertex 38.9271 48.1468 0
    endloop
  endfacet
  facet normal 0.951057 -0.309017 0
    outer loop
      vertex 35 51 1.5
      vertex 35.5729 52.7634 0
      vertex 35.5729 52.7634 1.5
    endloop
  endfacet
  facet normal 0.951057 -0.309017 0
    outer loop
      vertex 35.5729 52.7634 0
      vertex 35 51 1.5
      vertex 35 51 0
    endloop
  endfacet
  facet normal 0 -1 0
    outer loop
      vertex 37.0729 53.8532 0
      vertex 38.9271 53.8532 1.5
      vertex 37.0729 53.8532 1.5
    endloop
  endfacet
  facet normal 0 -1 -0
    outer loop
      vertex 38.9271 53.8532 1.5
      vertex 37.0729 53.8532 0
      vertex 38.9271 53.8532 0
    endloop
  endfacet
  facet normal 0 1 -0
    outer loop
      vertex 38.9271 48.1468 0
      vertex 37.0729 48.1468 1.5
      vertex 38.9271 48.1468 1.5
    endloop
  endfacet
  facet normal 0 1 0
    outer loop
      vertex 37.0729 48.1468 1.5
      vertex 38.9271 48.1468 0
      vertex 37.0729 48.1468 0
    endloop
  endfacet
  facet normal -0.951057 0.309017 0
    outer loop
      vertex 40.4271 49.2366 0
      vertex 41 51 1.5
      vertex 41 51 0
    endloop
  endfacet
  facet normal -0.951057 0.309017 0
    outer loop
      vertex 41 51 1.5
      vertex 40.4271 49.2366 0
      vertex 40.4271 49.2366 1.5
    endloop
  endfacet
endsolid OpenSCAD_Model
