solid OpenSCAD_Model
  facet normal -0 0 1
    outer loop
      vertex -63 75.25 5.5
      vertex -48.25 74.75 5.5
      vertex -48.25 75.25 5.5
    endloop
  endfacet
  facet normal 0 0 1
    outer loop
      vertex -48.25 74.75 5.5
      vertex -63 75.25 5.5
      vertex -63 74.75 5.5
    endloop
  endfacet
  facet normal -0 0 1
    outer loop
      vertex -47.75 75.25 5.5
      vertex -33.25 74.75 5.5
      vertex -33.25 75.25 5.5
    endloop
  endfacet
  facet normal 0 0 1
    outer loop
      vertex -33.25 74.75 5.5
      vertex -47.75 75.25 5.5
      vertex -47.75 74.75 5.5
    endloop
  endfacet
  facet normal -0 0 1
    outer loop
      vertex -18.25 74.75 5.5
      vertex -17.75 60.25 5.5
      vertex -17.75 74.75 5.5
    endloop
  endfacet
  facet normal 0 0 1
    outer loop
      vertex -17.75 60.25 5.5
      vertex -18.25 74.75 5.5
      vertex -18.25 60.25 5.5
    endloop
  endfacet
  facet normal -0 0 1
    outer loop
      vertex -17.75 75.25 5.5
      vertex -3 74.75 5.5
      vertex -3 75.25 5.5
    endloop
  endfacet
  facet normal 0 0 1
    outer loop
      vertex -3 74.75 5.5
      vertex -17.75 75.25 5.5
      vertex -17.75 74.75 5.5
    endloop
  endfacet
  facet normal -0 0 1
    outer loop
      vertex -33.25 90 5.5
      vertex -32.75 75.25 5.5
      vertex -32.75 90 5.5
    endloop
  endfacet
  facet normal 0 0 1
    outer loop
      vertex -32.75 75.25 5.5
      vertex -33.25 90 5.5
      vertex -33.25 75.25 5.5
    endloop
  endfacet
  facet normal -0 0 1
    outer loop
      vertex -63 60.25 5.5
      vertex -48.25 59.75 5.5
      vertex -48.25 60.25 5.5
    endloop
  endfacet
  facet normal 0 0 1
    outer loop
      vertex -48.25 59.75 5.5
      vertex -63 60.25 5.5
      vertex -63 59.75 5.5
    endloop
  endfacet
  facet normal -0 0 1
    outer loop
      vertex -47.75 60.25 5.5
      vertex -33.25 59.75 5.5
      vertex -33.25 60.25 5.5
    endloop
  endfacet
  facet normal 0 0 1
    outer loop
      vertex -33.25 59.75 5.5
      vertex -47.75 60.25 5.5
      vertex -47.75 59.75 5.5
    endloop
  endfacet
  facet normal -0 0 1
    outer loop
      vertex -17.75 60.25 5.5
      vertex -3 59.75 5.5
      vertex -3 60.25 5.5
    endloop
  endfacet
  facet normal 0 0 1
    outer loop
      vertex -3 59.75 5.5
      vertex -17.75 60.25 5.5
      vertex -17.75 59.75 5.5
    endloop
  endfacet
  facet normal -0 0 1
    outer loop
      vertex -63 45.25 5.5
      vertex -48.25 44.75 5.5
      vertex -48.25 45.25 5.5
    endloop
  endfacet
  facet normal 0 0 1
    outer loop
      vertex -48.25 44.75 5.5
      vertex -63 45.25 5.5
      vertex -63 44.75 5.5
    endloop
  endfacet
  facet normal -0 0 1
    outer loop
      vertex -32.75 45.25 5.5
      vertex -18.25 44.75 5.5
      vertex -18.25 45.25 5.5
    endloop
  endfacet
  facet normal 0 0 1
    outer loop
      vertex -18.25 44.75 5.5
      vertex -32.75 45.25 5.5
      vertex -32.75 44.75 5.5
    endloop
  endfacet
  facet normal -0 0 1
    outer loop
      vertex -18.25 44.75 5.5
      vertex -17.75 30.25 5.5
      vertex -17.75 44.75 5.5
    endloop
  endfacet
  facet normal 0 0 1
    outer loop
      vertex -17.75 30.25 5.5
      vertex -18.25 44.75 5.5
      vertex -18.25 30.25 5.5
    endloop
  endfacet
  facet normal -0 0 1
    outer loop
      vertex -48.25 29.75 5.5
      vertex -47.75 15.25 5.5
      vertex -47.75 29.75 5.5
    endloop
  endfacet
  facet normal 0 0 1
    outer loop
      vertex -47.75 15.25 5.5
      vertex -48.25 29.75 5.5
      vertex -48.25 15.25 5.5
    endloop
  endfacet
  facet normal -0 0 1
    outer loop
      vertex -47.75 30.25 5.5
      vertex -33.25 29.75 5.5
      vertex -33.25 30.25 5.5
    endloop
  endfacet
  facet normal 0 0 1
    outer loop
      vertex -33.25 29.75 5.5
      vertex -47.75 30.25 5.5
      vertex -47.75 29.75 5.5
    endloop
  endfacet
  facet normal -0 0 1
    outer loop
      vertex -17.75 30.25 5.5
      vertex -3 29.75 5.5
      vertex -3 30.25 5.5
    endloop
  endfacet
  facet normal 0 0 1
    outer loop
      vertex -3 29.75 5.5
      vertex -17.75 30.25 5.5
      vertex -17.75 29.75 5.5
    endloop
  endfacet
  facet normal -0 0 1
    outer loop
      vertex -63 15.25 5.5
      vertex -48.25 14.75 5.5
      vertex -48.25 15.25 5.5
    endloop
  endfacet
  facet normal 0 0 1
    outer loop
      vertex -48.25 14.75 5.5
      vertex -63 15.25 5.5
      vertex -63 14.75 5.5
    endloop
  endfacet
  facet normal -0 0 1
    outer loop
      vertex -33.25 14.75 5.5
      vertex -32.75 0 5.5
      vertex -32.75 14.75 5.5
    endloop
  endfacet
  facet normal 0 0 1
    outer loop
      vertex -32.75 0 5.5
      vertex -33.25 14.75 5.5
      vertex -33.25 0 5.5
    endloop
  endfacet
  facet normal -0 0 1
    outer loop
      vertex -32.75 15.25 5.5
      vertex -18.25 14.75 5.5
      vertex -18.25 15.25 5.5
    endloop
  endfacet
  facet normal 0 0 1
    outer loop
      vertex -18.25 14.75 5.5
      vertex -32.75 15.25 5.5
      vertex -32.75 14.75 5.5
    endloop
  endfacet
  facet normal -0 0 1
    outer loop
      vertex -18.25 14.75 5.5
      vertex -17.75 0 5.5
      vertex -17.75 14.75 5.5
    endloop
  endfacet
  facet normal 0 0 1
    outer loop
      vertex -17.75 0 5.5
      vertex -18.25 14.75 5.5
      vertex -18.25 0 5.5
    endloop
  endfacet
  facet normal -1 0 0
    outer loop
      vertex -47.75 90 0
      vertex -47.75 75.25 5.5
      vertex -47.75 90 6
    endloop
  endfacet
  facet normal -1 0 0
    outer loop
      vertex -47.75 90 0
      vertex -47.75 74.75 5.5
      vertex -47.75 75.25 5.5
    endloop
  endfacet
  facet normal -1 0 0
    outer loop
      vertex -47.75 74.75 5.5
      vertex -47.75 60.25 5.5
      vertex -47.75 74.75 6
    endloop
  endfacet
  facet normal -1 0 0
    outer loop
      vertex -47.75 90 0
      vertex -47.75 60.25 5.5
      vertex -47.75 74.75 5.5
    endloop
  endfacet
  facet normal -1 0 0
    outer loop
      vertex -47.75 45.25 0
      vertex -47.75 60.25 5.5
      vertex -47.75 90 0
    endloop
  endfacet
  facet normal -1 -0 0
    outer loop
      vertex -47.75 60.25 5.5
      vertex -47.75 45.25 0
      vertex -47.75 59.75 5.5
    endloop
  endfacet
  facet normal -1 0 0
    outer loop
      vertex -47.75 45.25 6
      vertex -47.75 59.75 5.5
      vertex -47.75 45.25 0
    endloop
  endfacet
  facet normal -1 0 0
    outer loop
      vertex -47.75 59.75 5.5
      vertex -47.75 45.25 6
      vertex -47.75 59.75 6
    endloop
  endfacet
  facet normal -1 -0 0
    outer loop
      vertex -47.75 90 6
      vertex -47.75 75.25 5.5
      vertex -47.75 75.25 6
    endloop
  endfacet
  facet normal -1 -0 0
    outer loop
      vertex -47.75 74.75 6
      vertex -47.75 60.25 5.5
      vertex -47.75 60.25 6
    endloop
  endfacet
  facet normal -1 0 0
    outer loop
      vertex -47.75 15.25 5.5
      vertex -47.75 29.75 6
      vertex -47.75 29.75 5.5
    endloop
  endfacet
  facet normal -1 -0 0
    outer loop
      vertex -47.75 29.75 6
      vertex -47.75 15.25 5.5
      vertex -47.75 15.25 6
    endloop
  endfacet
  facet normal -1 0 0
    outer loop
      vertex -47.75 44.75 0
      vertex -47.75 30.25 5.5
      vertex -47.75 44.75 6
    endloop
  endfacet
  facet normal -1 0 0
    outer loop
      vertex -47.75 29.75 0
      vertex -47.75 30.25 5.5
      vertex -47.75 44.75 0
    endloop
  endfacet
  facet normal -1 -0 0
    outer loop
      vertex -47.75 30.25 5.5
      vertex -47.75 29.75 0
      vertex -47.75 29.75 5.5
    endloop
  endfacet
  facet normal -1 -0 0
    outer loop
      vertex -47.75 44.75 6
      vertex -47.75 30.25 5.5
      vertex -47.75 30.25 6
    endloop
  endfacet
  facet normal -1 0 0
    outer loop
      vertex -47.75 0 0
      vertex -47.75 14.75 6
      vertex -47.75 14.75 0
    endloop
  endfacet
  facet normal -1 -0 0
    outer loop
      vertex -47.75 14.75 6
      vertex -47.75 0 0
      vertex -47.75 0 6
    endloop
  endfacet
  facet normal 1 0 0
    outer loop
      vertex -48.25 44.75 6
      vertex -48.25 30.25 6
      vertex -48.25 44.75 5.5
    endloop
  endfacet
  facet normal 1 0 0
    outer loop
      vertex -48.25 59.75 6
      vertex -48.25 45.25 6
      vertex -48.25 59.75 5.5
    endloop
  endfacet
  facet normal 1 0 0
    outer loop
      vertex -48.25 74.75 6
      vertex -48.25 60.25 6
      vertex -48.25 74.75 5.5
    endloop
  endfacet
  facet normal 1 0 0
    outer loop
      vertex -48.25 75.25 5.5
      vertex -48.25 90 6
      vertex -48.25 75.25 6
    endloop
  endfacet
  facet normal 1 0 0
    outer loop
      vertex -48.25 90 6
      vertex -48.25 75.25 5.5
      vertex -48.25 90 0
    endloop
  endfacet
  facet normal 1 -0 0
    outer loop
      vertex -48.25 74.75 5.5
      vertex -48.25 90 0
      vertex -48.25 75.25 5.5
    endloop
  endfacet
  facet normal 1 0 0
    outer loop
      vertex -48.25 60.25 5.5
      vertex -48.25 74.75 5.5
      vertex -48.25 60.25 6
    endloop
  endfacet
  facet normal 1 0 0
    outer loop
      vertex -48.25 74.75 5.5
      vertex -48.25 60.25 5.5
      vertex -48.25 90 0
    endloop
  endfacet
  facet normal 1 -0 0
    outer loop
      vertex -48.25 59.75 5.5
      vertex -48.25 90 0
      vertex -48.25 60.25 5.5
    endloop
  endfacet
  facet normal 1 0 0
    outer loop
      vertex -48.25 45.25 5.5
      vertex -48.25 59.75 5.5
      vertex -48.25 45.25 6
    endloop
  endfacet
  facet normal 1 0 0
    outer loop
      vertex -48.25 30.25 0
      vertex -48.25 59.75 5.5
      vertex -48.25 45.25 5.5
    endloop
  endfacet
  facet normal 1 0 0
    outer loop
      vertex -48.25 30.25 0
      vertex -48.25 45.25 5.5
      vertex -48.25 44.75 5.5
    endloop
  endfacet
  facet normal 1 0 0
    outer loop
      vertex -48.25 30.25 0
      vertex -48.25 44.75 5.5
      vertex -48.25 30.25 6
    endloop
  endfacet
  facet normal 1 0 0
    outer loop
      vertex -48.25 59.75 5.5
      vertex -48.25 30.25 0
      vertex -48.25 90 0
    endloop
  endfacet
  facet normal 1 -0 0
    outer loop
      vertex -48.25 15.25 6
      vertex -48.25 29.75 5.5
      vertex -48.25 29.75 6
    endloop
  endfacet
  facet normal 1 0 0
    outer loop
      vertex -48.25 29.75 5.5
      vertex -48.25 15.25 6
      vertex -48.25 15.25 5.5
    endloop
  endfacet
  facet normal 1 0 0
    outer loop
      vertex -48.25 14.75 6
      vertex -48.25 0 6
      vertex -48.25 14.75 5.5
    endloop
  endfacet
  facet normal 1 -0 0
    outer loop
      vertex -48.25 14.75 5.5
      vertex -48.25 15.25 0
      vertex -48.25 15.25 5.5
    endloop
  endfacet
  facet normal 1 0 0
    outer loop
      vertex -48.25 0 0
      vertex -48.25 14.75 5.5
      vertex -48.25 0 6
    endloop
  endfacet
  facet normal 1 0 0
    outer loop
      vertex -48.25 14.75 5.5
      vertex -48.25 0 0
      vertex -48.25 15.25 0
    endloop
  endfacet
  facet normal -1 0 0
    outer loop
      vertex -32.75 75.25 5.5
      vertex -32.75 90 6
      vertex -32.75 90 5.5
    endloop
  endfacet
  facet normal -1 -0 0
    outer loop
      vertex -32.75 90 6
      vertex -32.75 75.25 5.5
      vertex -32.75 75.25 6
    endloop
  endfacet
  facet normal -1 0 0
    outer loop
      vertex -32.75 59.75 0
      vertex -32.75 45.25 5.5
      vertex -32.75 59.75 6
    endloop
  endfacet
  facet normal -1 0 0
    outer loop
      vertex -32.75 59.75 0
      vertex -32.75 44.75 5.5
      vertex -32.75 45.25 5.5
    endloop
  endfacet
  facet normal -1 0 0
    outer loop
      vertex -32.75 30.25 0
      vertex -32.75 44.75 5.5
      vertex -32.75 59.75 0
    endloop
  endfacet
  facet normal -1 0 0
    outer loop
      vertex -32.75 30.25 6
      vertex -32.75 44.75 5.5
      vertex -32.75 30.25 0
    endloop
  endfacet
  facet normal -1 0 0
    outer loop
      vertex -32.75 44.75 5.5
      vertex -32.75 30.25 6
      vertex -32.75 44.75 6
    endloop
  endfacet
  facet normal -1 -0 0
    outer loop
      vertex -32.75 59.75 6
      vertex -32.75 45.25 5.5
      vertex -32.75 45.25 6
    endloop
  endfacet
  facet normal -1 0 0
    outer loop
      vertex -32.75 0 5.5
      vertex -32.75 14.75 6
      vertex -32.75 14.75 5.5
    endloop
  endfacet
  facet normal -1 -0 0
    outer loop
      vertex -32.75 14.75 6
      vertex -32.75 0 5.5
      vertex -32.75 0 6
    endloop
  endfacet
  facet normal -1 0 0
    outer loop
      vertex -32.75 29.75 0
      vertex -32.75 15.25 5.5
      vertex -32.75 29.75 6
    endloop
  endfacet
  facet normal -1 0 0
    outer loop
      vertex -32.75 14.75 0
      vertex -32.75 15.25 5.5
      vertex -32.75 29.75 0
    endloop
  endfacet
  facet normal -1 -0 0
    outer loop
      vertex -32.75 15.25 5.5
      vertex -32.75 14.75 0
      vertex -32.75 14.75 5.5
    endloop
  endfacet
  facet normal -1 -0 0
    outer loop
      vertex -32.75 29.75 6
      vertex -32.75 15.25 5.5
      vertex -32.75 15.25 6
    endloop
  endfacet
  facet normal -1 0 0
    outer loop
      vertex -32.75 60.25 0
      vertex -32.75 74.75 6
      vertex -32.75 74.75 0
    endloop
  endfacet
  facet normal -1 -0 0
    outer loop
      vertex -32.75 74.75 6
      vertex -32.75 60.25 0
      vertex -32.75 60.25 6
    endloop
  endfacet
  facet normal 1 0 0
    outer loop
      vertex -33.25 59.75 6
      vertex -33.25 45.25 6
      vertex -33.25 59.75 5.5
    endloop
  endfacet
  facet normal 1 0 0
    outer loop
      vertex -33.25 74.75 6
      vertex -33.25 60.25 6
      vertex -33.25 74.75 5.5
    endloop
  endfacet
  facet normal 1 -0 0
    outer loop
      vertex -33.25 74.75 5.5
      vertex -33.25 75.25 0
      vertex -33.25 75.25 5.5
    endloop
  endfacet
  facet normal 1 0 0
    outer loop
      vertex -33.25 60.25 5.5
      vertex -33.25 74.75 5.5
      vertex -33.25 60.25 6
    endloop
  endfacet
  facet normal 1 0 0
    outer loop
      vertex -33.25 74.75 5.5
      vertex -33.25 60.25 5.5
      vertex -33.25 75.25 0
    endloop
  endfacet
  facet normal 1 0 0
    outer loop
      vertex -33.25 45.25 0
      vertex -33.25 60.25 5.5
      vertex -33.25 59.75 5.5
    endloop
  endfacet
  facet normal 1 0 0
    outer loop
      vertex -33.25 45.25 0
      vertex -33.25 59.75 5.5
      vertex -33.25 45.25 6
    endloop
  endfacet
  facet normal 1 0 0
    outer loop
      vertex -33.25 60.25 5.5
      vertex -33.25 45.25 0
      vertex -33.25 75.25 0
    endloop
  endfacet
  facet normal 1 -0 0
    outer loop
      vertex -33.25 75.25 6
      vertex -33.25 90 5.5
      vertex -33.25 90 6
    endloop
  endfacet
  facet normal 1 0 0
    outer loop
      vertex -33.25 90 5.5
      vertex -33.25 75.25 6
      vertex -33.25 75.25 5.5
    endloop
  endfacet
  facet normal 1 0 0
    outer loop
      vertex -33.25 29.75 6
      vertex -33.25 15.25 6
      vertex -33.25 29.75 5.5
    endloop
  endfacet
  facet normal 1 0 0
    outer loop
      vertex -33.25 30.25 5.5
      vertex -33.25 44.75 6
      vertex -33.25 30.25 6
    endloop
  endfacet
  facet normal 1 0 0
    outer loop
      vertex -33.25 44.75 6
      vertex -33.25 30.25 5.5
      vertex -33.25 44.75 0
    endloop
  endfacet
  facet normal 1 -0 0
    outer loop
      vertex -33.25 29.75 5.5
      vertex -33.25 44.75 0
      vertex -33.25 30.25 5.5
    endloop
  endfacet
  facet normal 1 0 0
    outer loop
      vertex -33.25 15.25 0
      vertex -33.25 29.75 5.5
      vertex -33.25 15.25 6
    endloop
  endfacet
  facet normal 1 0 0
    outer loop
      vertex -33.25 29.75 5.5
      vertex -33.25 15.25 0
      vertex -33.25 44.75 0
    endloop
  endfacet
  facet normal 1 -0 0
    outer loop
      vertex -33.25 0 6
      vertex -33.25 14.75 5.5
      vertex -33.25 14.75 6
    endloop
  endfacet
  facet normal 1 0 0
    outer loop
      vertex -33.25 14.75 5.5
      vertex -33.25 0 6
      vertex -33.25 0 5.5
    endloop
  endfacet
  facet normal -1 0 0
    outer loop
      vertex -17.75 60.25 5.5
      vertex -17.75 74.75 6
      vertex -17.75 74.75 5.5
    endloop
  endfacet
  facet normal -1 -0 0
    outer loop
      vertex -17.75 74.75 6
      vertex -17.75 60.25 5.5
      vertex -17.75 60.25 6
    endloop
  endfacet
  facet normal -1 0 0
    outer loop
      vertex -17.75 90 0
      vertex -17.75 75.25 5.5
      vertex -17.75 90 6
    endloop
  endfacet
  facet normal -1 0 0
    outer loop
      vertex -17.75 74.75 0
      vertex -17.75 75.25 5.5
      vertex -17.75 90 0
    endloop
  endfacet
  facet normal -1 -0 0
    outer loop
      vertex -17.75 75.25 5.5
      vertex -17.75 74.75 0
      vertex -17.75 74.75 5.5
    endloop
  endfacet
  facet normal -1 -0 0
    outer loop
      vertex -17.75 90 6
      vertex -17.75 75.25 5.5
      vertex -17.75 75.25 6
    endloop
  endfacet
  facet normal -1 0 0
    outer loop
      vertex -17.75 60.25 0
      vertex -17.75 59.75 5.5
      vertex -17.75 60.25 5.5
    endloop
  endfacet
  facet normal -1 0 0
    outer loop
      vertex -17.75 45.25 0
      vertex -17.75 59.75 5.5
      vertex -17.75 60.25 0
    endloop
  endfacet
  facet normal -1 0 0
    outer loop
      vertex -17.75 45.25 6
      vertex -17.75 59.75 5.5
      vertex -17.75 45.25 0
    endloop
  endfacet
  facet normal -1 0 0
    outer loop
      vertex -17.75 59.75 5.5
      vertex -17.75 45.25 6
      vertex -17.75 59.75 6
    endloop
  endfacet
  facet normal -1 0 0
    outer loop
      vertex -17.75 30.25 5.5
      vertex -17.75 44.75 6
      vertex -17.75 44.75 5.5
    endloop
  endfacet
  facet normal -1 -0 0
    outer loop
      vertex -17.75 44.75 6
      vertex -17.75 30.25 5.5
      vertex -17.75 30.25 6
    endloop
  endfacet
  facet normal -1 0 0
    outer loop
      vertex -17.75 30.25 0
      vertex -17.75 29.75 5.5
      vertex -17.75 30.25 5.5
    endloop
  endfacet
  facet normal -1 0 0
    outer loop
      vertex -17.75 15.25 0
      vertex -17.75 29.75 5.5
      vertex -17.75 30.25 0
    endloop
  endfacet
  facet normal -1 0 0
    outer loop
      vertex -17.75 15.25 6
      vertex -17.75 29.75 5.5
      vertex -17.75 15.25 0
    endloop
  endfacet
  facet normal -1 0 0
    outer loop
      vertex -17.75 29.75 5.5
      vertex -17.75 15.25 6
      vertex -17.75 29.75 6
    endloop
  endfacet
  facet normal -1 0 0
    outer loop
      vertex -17.75 0 5.5
      vertex -17.75 14.75 6
      vertex -17.75 14.75 5.5
    endloop
  endfacet
  facet normal -1 -0 0
    outer loop
      vertex -17.75 14.75 6
      vertex -17.75 0 5.5
      vertex -17.75 0 6
    endloop
  endfacet
  facet normal 1 -0 0
    outer loop
      vertex -18.25 60.25 6
      vertex -18.25 74.75 5.5
      vertex -18.25 74.75 6
    endloop
  endfacet
  facet normal 1 0 0
    outer loop
      vertex -18.25 74.75 5.5
      vertex -18.25 60.25 6
      vertex -18.25 60.25 5.5
    endloop
  endfacet
  facet normal 1 -0 0
    outer loop
      vertex -18.25 30.25 6
      vertex -18.25 44.75 5.5
      vertex -18.25 44.75 6
    endloop
  endfacet
  facet normal 1 0 0
    outer loop
      vertex -18.25 44.75 5.5
      vertex -18.25 30.25 6
      vertex -18.25 30.25 5.5
    endloop
  endfacet
  facet normal 1 0 0
    outer loop
      vertex -18.25 45.25 5.5
      vertex -18.25 59.75 6
      vertex -18.25 45.25 6
    endloop
  endfacet
  facet normal 1 0 0
    outer loop
      vertex -18.25 59.75 6
      vertex -18.25 45.25 5.5
      vertex -18.25 59.75 0
    endloop
  endfacet
  facet normal 1 0 0
    outer loop
      vertex -18.25 44.75 0
      vertex -18.25 45.25 5.5
      vertex -18.25 44.75 5.5
    endloop
  endfacet
  facet normal 1 0 0
    outer loop
      vertex -18.25 45.25 5.5
      vertex -18.25 44.75 0
      vertex -18.25 59.75 0
    endloop
  endfacet
  facet normal 1 -0 0
    outer loop
      vertex -18.25 0 6
      vertex -18.25 14.75 5.5
      vertex -18.25 14.75 6
    endloop
  endfacet
  facet normal 1 0 0
    outer loop
      vertex -18.25 14.75 5.5
      vertex -18.25 0 6
      vertex -18.25 0 5.5
    endloop
  endfacet
  facet normal 1 0 0
    outer loop
      vertex -18.25 15.25 5.5
      vertex -18.25 29.75 6
      vertex -18.25 15.25 6
    endloop
  endfacet
  facet normal 1 0 0
    outer loop
      vertex -18.25 29.75 6
      vertex -18.25 15.25 5.5
      vertex -18.25 29.75 0
    endloop
  endfacet
  facet normal 1 0 0
    outer loop
      vertex -18.25 14.75 0
      vertex -18.25 15.25 5.5
      vertex -18.25 14.75 5.5
    endloop
  endfacet
  facet normal 1 0 0
    outer loop
      vertex -18.25 15.25 5.5
      vertex -18.25 14.75 0
      vertex -18.25 29.75 0
    endloop
  endfacet
  facet normal 1 -0 0
    outer loop
      vertex -18.25 75.25 6
      vertex -18.25 90 0
      vertex -18.25 90 6
    endloop
  endfacet
  facet normal 1 0 0
    outer loop
      vertex -18.25 90 0
      vertex -18.25 75.25 6
      vertex -18.25 75.25 0
    endloop
  endfacet
  facet normal 0 1 -0
    outer loop
      vertex -48.25 14.75 5.5
      vertex -63 14.75 6
      vertex -48.25 14.75 6
    endloop
  endfacet
  facet normal 0 1 0
    outer loop
      vertex -63 14.75 6
      vertex -48.25 14.75 5.5
      vertex -63 14.75 5.5
    endloop
  endfacet
  facet normal 0 1 0
    outer loop
      vertex -32.75 14.75 5.5
      vertex -32.75 14.75 0
      vertex -33.25 14.75 5.5
    endloop
  endfacet
  facet normal 0 1 -0
    outer loop
      vertex -33.25 14.75 5.5
      vertex -47.75 14.75 6
      vertex -33.25 14.75 6
    endloop
  endfacet
  facet normal 0 1 0
    outer loop
      vertex -47.75 14.75 0
      vertex -33.25 14.75 5.5
      vertex -32.75 14.75 0
    endloop
  endfacet
  facet normal 0 1 0
    outer loop
      vertex -33.25 14.75 5.5
      vertex -47.75 14.75 0
      vertex -47.75 14.75 6
    endloop
  endfacet
  facet normal 0 1 -0
    outer loop
      vertex -18.25 14.75 5.5
      vertex -32.75 14.75 6
      vertex -18.25 14.75 6
    endloop
  endfacet
  facet normal 0 1 0
    outer loop
      vertex -32.75 14.75 6
      vertex -18.25 14.75 5.5
      vertex -32.75 14.75 5.5
    endloop
  endfacet
  facet normal 0 1 0
    outer loop
      vertex -3 14.75 6
      vertex -17.75 14.75 5.5
      vertex -17.75 14.75 6
    endloop
  endfacet
  facet normal 0 1 -0
    outer loop
      vertex -3 14.75 0
      vertex -17.75 14.75 5.5
      vertex -3 14.75 6
    endloop
  endfacet
  facet normal 0 1 0
    outer loop
      vertex -18.25 14.75 0
      vertex -17.75 14.75 5.5
      vertex -3 14.75 0
    endloop
  endfacet
  facet normal 0 1 0
    outer loop
      vertex -17.75 14.75 5.5
      vertex -18.25 14.75 0
      vertex -18.25 14.75 5.5
    endloop
  endfacet
  facet normal 0 -1 0
    outer loop
      vertex -63 15.25 5.5
      vertex -48.25 15.25 6
      vertex -63 15.25 6
    endloop
  endfacet
  facet normal 0 -1 -0
    outer loop
      vertex -48.25 15.25 6
      vertex -63 15.25 5.5
      vertex -48.25 15.25 5.5
    endloop
  endfacet
  facet normal 0 -1 0
    outer loop
      vertex -48.25 15.25 5.5
      vertex -48.25 15.25 0
      vertex -47.75 15.25 5.5
    endloop
  endfacet
  facet normal 0 -1 0
    outer loop
      vertex -47.75 15.25 5.5
      vertex -33.25 15.25 6
      vertex -47.75 15.25 6
    endloop
  endfacet
  facet normal 0 -1 0
    outer loop
      vertex -33.25 15.25 0
      vertex -47.75 15.25 5.5
      vertex -48.25 15.25 0
    endloop
  endfacet
  facet normal 0 -1 0
    outer loop
      vertex -47.75 15.25 5.5
      vertex -33.25 15.25 0
      vertex -33.25 15.25 6
    endloop
  endfacet
  facet normal 0 -1 0
    outer loop
      vertex -32.75 15.25 5.5
      vertex -18.25 15.25 6
      vertex -32.75 15.25 6
    endloop
  endfacet
  facet normal 0 -1 -0
    outer loop
      vertex -18.25 15.25 6
      vertex -32.75 15.25 5.5
      vertex -18.25 15.25 5.5
    endloop
  endfacet
  facet normal 0 -1 0
    outer loop
      vertex -17.75 15.25 0
      vertex -3 15.25 6
      vertex -17.75 15.25 6
    endloop
  endfacet
  facet normal 0 -1 -0
    outer loop
      vertex -3 15.25 6
      vertex -17.75 15.25 0
      vertex -3 15.25 0
    endloop
  endfacet
  facet normal 0 1 0
    outer loop
      vertex -47.75 29.75 5.5
      vertex -47.75 29.75 0
      vertex -48.25 29.75 5.5
    endloop
  endfacet
  facet normal 0 1 -0
    outer loop
      vertex -48.25 29.75 5.5
      vertex -63 29.75 6
      vertex -48.25 29.75 6
    endloop
  endfacet
  facet normal 0 1 0
    outer loop
      vertex -63 29.75 0
      vertex -48.25 29.75 5.5
      vertex -47.75 29.75 0
    endloop
  endfacet
  facet normal 0 1 0
    outer loop
      vertex -48.25 29.75 5.5
      vertex -63 29.75 0
      vertex -63 29.75 6
    endloop
  endfacet
  facet normal 0 1 -0
    outer loop
      vertex -33.25 29.75 5.5
      vertex -47.75 29.75 6
      vertex -33.25 29.75 6
    endloop
  endfacet
  facet normal 0 1 0
    outer loop
      vertex -47.75 29.75 6
      vertex -33.25 29.75 5.5
      vertex -47.75 29.75 5.5
    endloop
  endfacet
  facet normal 0 1 -0
    outer loop
      vertex -3 29.75 5.5
      vertex -17.75 29.75 6
      vertex -3 29.75 6
    endloop
  endfacet
  facet normal 0 1 0
    outer loop
      vertex -17.75 29.75 6
      vertex -3 29.75 5.5
      vertex -17.75 29.75 5.5
    endloop
  endfacet
  facet normal 0 1 -0
    outer loop
      vertex -18.25 29.75 0
      vertex -32.75 29.75 6
      vertex -18.25 29.75 6
    endloop
  endfacet
  facet normal 0 1 0
    outer loop
      vertex -32.75 29.75 6
      vertex -18.25 29.75 0
      vertex -32.75 29.75 0
    endloop
  endfacet
  facet normal 0 -1 0
    outer loop
      vertex -47.75 30.25 5.5
      vertex -33.25 30.25 6
      vertex -47.75 30.25 6
    endloop
  endfacet
  facet normal 0 -1 -0
    outer loop
      vertex -33.25 30.25 6
      vertex -47.75 30.25 5.5
      vertex -33.25 30.25 5.5
    endloop
  endfacet
  facet normal 0 -1 0
    outer loop
      vertex -32.75 30.25 6
      vertex -18.25 30.25 5.5
      vertex -18.25 30.25 6
    endloop
  endfacet
  facet normal 0 -1 0
    outer loop
      vertex -32.75 30.25 0
      vertex -18.25 30.25 5.5
      vertex -32.75 30.25 6
    endloop
  endfacet
  facet normal 0 -1 0
    outer loop
      vertex -17.75 30.25 0
      vertex -18.25 30.25 5.5
      vertex -32.75 30.25 0
    endloop
  endfacet
  facet normal 0 -1 0
    outer loop
      vertex -18.25 30.25 5.5
      vertex -17.75 30.25 0
      vertex -17.75 30.25 5.5
    endloop
  endfacet
  facet normal 0 -1 0
    outer loop
      vertex -17.75 30.25 5.5
      vertex -3 30.25 6
      vertex -17.75 30.25 6
    endloop
  endfacet
  facet normal 0 -1 -0
    outer loop
      vertex -3 30.25 6
      vertex -17.75 30.25 5.5
      vertex -3 30.25 5.5
    endloop
  endfacet
  facet normal 0 -1 0
    outer loop
      vertex -63 30.25 0
      vertex -48.25 30.25 6
      vertex -63 30.25 6
    endloop
  endfacet
  facet normal 0 -1 -0
    outer loop
      vertex -48.25 30.25 6
      vertex -63 30.25 0
      vertex -48.25 30.25 0
    endloop
  endfacet
  facet normal 0 1 -0
    outer loop
      vertex -48.25 44.75 5.5
      vertex -63 44.75 6
      vertex -48.25 44.75 6
    endloop
  endfacet
  facet normal 0 1 0
    outer loop
      vertex -63 44.75 6
      vertex -48.25 44.75 5.5
      vertex -63 44.75 5.5
    endloop
  endfacet
  facet normal 0 1 -0
    outer loop
      vertex -18.25 44.75 5.5
      vertex -32.75 44.75 6
      vertex -18.25 44.75 6
    endloop
  endfacet
  facet normal 0 1 0
    outer loop
      vertex -32.75 44.75 6
      vertex -18.25 44.75 5.5
      vertex -32.75 44.75 5.5
    endloop
  endfacet
  facet normal 0 1 0
    outer loop
      vertex -3 44.75 6
      vertex -17.75 44.75 5.5
      vertex -17.75 44.75 6
    endloop
  endfacet
  facet normal 0 1 -0
    outer loop
      vertex -3 44.75 0
      vertex -17.75 44.75 5.5
      vertex -3 44.75 6
    endloop
  endfacet
  facet normal 0 1 0
    outer loop
      vertex -18.25 44.75 0
      vertex -17.75 44.75 5.5
      vertex -3 44.75 0
    endloop
  endfacet
  facet normal 0 1 0
    outer loop
      vertex -17.75 44.75 5.5
      vertex -18.25 44.75 0
      vertex -18.25 44.75 5.5
    endloop
  endfacet
  facet normal 0 1 -0
    outer loop
      vertex -33.25 44.75 0
      vertex -47.75 44.75 6
      vertex -33.25 44.75 6
    endloop
  endfacet
  facet normal 0 1 0
    outer loop
      vertex -47.75 44.75 6
      vertex -33.25 44.75 0
      vertex -47.75 44.75 0
    endloop
  endfacet
  facet normal 0 -1 0
    outer loop
      vertex -63 45.25 5.5
      vertex -48.25 45.25 6
      vertex -63 45.25 6
    endloop
  endfacet
  facet normal 0 -1 -0
    outer loop
      vertex -48.25 45.25 6
      vertex -63 45.25 5.5
      vertex -48.25 45.25 5.5
    endloop
  endfacet
  facet normal 0 -1 0
    outer loop
      vertex -32.75 45.25 5.5
      vertex -18.25 45.25 6
      vertex -32.75 45.25 6
    endloop
  endfacet
  facet normal 0 -1 -0
    outer loop
      vertex -18.25 45.25 6
      vertex -32.75 45.25 5.5
      vertex -18.25 45.25 5.5
    endloop
  endfacet
  facet normal 0 -1 0
    outer loop
      vertex -17.75 45.25 0
      vertex -3 45.25 6
      vertex -17.75 45.25 6
    endloop
  endfacet
  facet normal 0 -1 -0
    outer loop
      vertex -3 45.25 6
      vertex -17.75 45.25 0
      vertex -3 45.25 0
    endloop
  endfacet
  facet normal 0 -1 0
    outer loop
      vertex -47.75 45.25 0
      vertex -33.25 45.25 6
      vertex -47.75 45.25 6
    endloop
  endfacet
  facet normal 0 -1 -0
    outer loop
      vertex -33.25 45.25 6
      vertex -47.75 45.25 0
      vertex -33.25 45.25 0
    endloop
  endfacet
  facet normal 0 1 -0
    outer loop
      vertex -48.25 59.75 5.5
      vertex -63 59.75 6
      vertex -48.25 59.75 6
    endloop
  endfacet
  facet normal 0 1 0
    outer loop
      vertex -63 59.75 6
      vertex -48.25 59.75 5.5
      vertex -63 59.75 5.5
    endloop
  endfacet
  facet normal 0 1 -0
    outer loop
      vertex -33.25 59.75 5.5
      vertex -47.75 59.75 6
      vertex -33.25 59.75 6
    endloop
  endfacet
  facet normal 0 1 0
    outer loop
      vertex -47.75 59.75 6
      vertex -33.25 59.75 5.5
      vertex -47.75 59.75 5.5
    endloop
  endfacet
  facet normal 0 1 -0
    outer loop
      vertex -3 59.75 5.5
      vertex -17.75 59.75 6
      vertex -3 59.75 6
    endloop
  endfacet
  facet normal 0 1 0
    outer loop
      vertex -17.75 59.75 6
      vertex -3 59.75 5.5
      vertex -17.75 59.75 5.5
    endloop
  endfacet
  facet normal 0 1 -0
    outer loop
      vertex -18.25 59.75 0
      vertex -32.75 59.75 6
      vertex -18.25 59.75 6
    endloop
  endfacet
  facet normal 0 1 0
    outer loop
      vertex -32.75 59.75 6
      vertex -18.25 59.75 0
      vertex -32.75 59.75 0
    endloop
  endfacet
  facet normal 0 -1 0
    outer loop
      vertex -63 60.25 5.5
      vertex -48.25 60.25 6
      vertex -63 60.25 6
    endloop
  endfacet
  facet normal 0 -1 -0
    outer loop
      vertex -48.25 60.25 6
      vertex -63 60.25 5.5
      vertex -48.25 60.25 5.5
    endloop
  endfacet
  facet normal 0 -1 0
    outer loop
      vertex -47.75 60.25 5.5
      vertex -33.25 60.25 6
      vertex -47.75 60.25 6
    endloop
  endfacet
  facet normal 0 -1 -0
    outer loop
      vertex -33.25 60.25 6
      vertex -47.75 60.25 5.5
      vertex -33.25 60.25 5.5
    endloop
  endfacet
  facet normal 0 -1 0
    outer loop
      vertex -32.75 60.25 6
      vertex -18.25 60.25 5.5
      vertex -18.25 60.25 6
    endloop
  endfacet
  facet normal 0 -1 0
    outer loop
      vertex -32.75 60.25 0
      vertex -18.25 60.25 5.5
      vertex -32.75 60.25 6
    endloop
  endfacet
  facet normal 0 -1 0
    outer loop
      vertex -17.75 60.25 0
      vertex -18.25 60.25 5.5
      vertex -32.75 60.25 0
    endloop
  endfacet
  facet normal 0 -1 0
    outer loop
      vertex -18.25 60.25 5.5
      vertex -17.75 60.25 0
      vertex -17.75 60.25 5.5
    endloop
  endfacet
  facet normal 0 -1 0
    outer loop
      vertex -17.75 60.25 5.5
      vertex -3 60.25 6
      vertex -17.75 60.25 6
    endloop
  endfacet
  facet normal 0 -1 -0
    outer loop
      vertex -3 60.25 6
      vertex -17.75 60.25 5.5
      vertex -3 60.25 5.5
    endloop
  endfacet
  facet normal 0 1 -0
    outer loop
      vertex -48.25 74.75 5.5
      vertex -63 74.75 6
      vertex -48.25 74.75 6
    endloop
  endfacet
  facet normal 0 1 0
    outer loop
      vertex -63 74.75 6
      vertex -48.25 74.75 5.5
      vertex -63 74.75 5.5
    endloop
  endfacet
  facet normal 0 1 -0
    outer loop
      vertex -33.25 74.75 5.5
      vertex -47.75 74.75 6
      vertex -33.25 74.75 6
    endloop
  endfacet
  facet normal 0 1 0
    outer loop
      vertex -47.75 74.75 6
      vertex -33.25 74.75 5.5
      vertex -47.75 74.75 5.5
    endloop
  endfacet
  facet normal 0 1 0
    outer loop
      vertex -17.75 74.75 5.5
      vertex -17.75 74.75 0
      vertex -18.25 74.75 5.5
    endloop
  endfacet
  facet normal 0 1 -0
    outer loop
      vertex -18.25 74.75 5.5
      vertex -32.75 74.75 6
      vertex -18.25 74.75 6
    endloop
  endfacet
  facet normal 0 1 0
    outer loop
      vertex -32.75 74.75 0
      vertex -18.25 74.75 5.5
      vertex -17.75 74.75 0
    endloop
  endfacet
  facet normal 0 1 0
    outer loop
      vertex -18.25 74.75 5.5
      vertex -32.75 74.75 0
      vertex -32.75 74.75 6
    endloop
  endfacet
  facet normal 0 1 -0
    outer loop
      vertex -3 74.75 5.5
      vertex -17.75 74.75 6
      vertex -3 74.75 6
    endloop
  endfacet
  facet normal 0 1 0
    outer loop
      vertex -17.75 74.75 6
      vertex -3 74.75 5.5
      vertex -17.75 74.75 5.5
    endloop
  endfacet
  facet normal 0 -1 0
    outer loop
      vertex -63 75.25 5.5
      vertex -48.25 75.25 6
      vertex -63 75.25 6
    endloop
  endfacet
  facet normal 0 -1 -0
    outer loop
      vertex -48.25 75.25 6
      vertex -63 75.25 5.5
      vertex -48.25 75.25 5.5
    endloop
  endfacet
  facet normal 0 -1 0
    outer loop
      vertex -47.75 75.25 5.5
      vertex -33.25 75.25 6
      vertex -47.75 75.25 6
    endloop
  endfacet
  facet normal 0 -1 -0
    outer loop
      vertex -33.25 75.25 6
      vertex -47.75 75.25 5.5
      vertex -33.25 75.25 5.5
    endloop
  endfacet
  facet normal 0 -1 0
    outer loop
      vertex -33.25 75.25 5.5
      vertex -33.25 75.25 0
      vertex -32.75 75.25 5.5
    endloop
  endfacet
  facet normal 0 -1 0
    outer loop
      vertex -32.75 75.25 5.5
      vertex -18.25 75.25 6
      vertex -32.75 75.25 6
    endloop
  endfacet
  facet normal 0 -1 0
    outer loop
      vertex -18.25 75.25 0
      vertex -32.75 75.25 5.5
      vertex -33.25 75.25 0
    endloop
  endfacet
  facet normal 0 -1 0
    outer loop
      vertex -32.75 75.25 5.5
      vertex -18.25 75.25 0
      vertex -18.25 75.25 6
    endloop
  endfacet
  facet normal 0 -1 0
    outer loop
      vertex -17.75 75.25 5.5
      vertex -3 75.25 6
      vertex -17.75 75.25 6
    endloop
  endfacet
  facet normal 0 -1 -0
    outer loop
      vertex -3 75.25 6
      vertex -17.75 75.25 5.5
      vertex -3 75.25 5.5
    endloop
  endfacet
  facet normal 0 0 -1
    outer loop
      vertex -3 0 0
      vertex -18.25 14.75 0
      vertex -3 14.75 0
    endloop
  endfacet
  facet normal 0 0 -1
    outer loop
      vertex -18.25 14.75 0
      vertex -32.75 14.75 0
      vertex -18.25 29.75 0
    endloop
  endfacet
  facet normal 0 0 -1
    outer loop
      vertex -3 0 0
      vertex -32.75 14.75 0
      vertex -18.25 14.75 0
    endloop
  endfacet
  facet normal 0 0 -1
    outer loop
      vertex -47.75 0 0
      vertex -32.75 14.75 0
      vertex -3 0 0
    endloop
  endfacet
  facet normal -0 0 -1
    outer loop
      vertex -32.75 14.75 0
      vertex -47.75 0 0
      vertex -47.75 14.75 0
    endloop
  endfacet
  facet normal -0 0 -1
    outer loop
      vertex -18.25 29.75 0
      vertex -32.75 14.75 0
      vertex -32.75 29.75 0
    endloop
  endfacet
  facet normal 0 0 -1
    outer loop
      vertex -48.25 0 0
      vertex -63 0 0
      vertex -48.25 15.25 0
    endloop
  endfacet
  facet normal 0 0 -1
    outer loop
      vertex -33.25 15.25 0
      vertex -47.75 29.75 0
      vertex -33.25 44.75 0
    endloop
  endfacet
  facet normal 0 0 -1
    outer loop
      vertex -48.25 15.25 0
      vertex -47.75 29.75 0
      vertex -33.25 15.25 0
    endloop
  endfacet
  facet normal 0 0 -1
    outer loop
      vertex -63 29.75 0
      vertex -48.25 15.25 0
      vertex -63 0 0
    endloop
  endfacet
  facet normal 0 0 -1
    outer loop
      vertex -48.25 15.25 0
      vertex -63 29.75 0
      vertex -47.75 29.75 0
    endloop
  endfacet
  facet normal -0 0 -1
    outer loop
      vertex -33.25 44.75 0
      vertex -47.75 29.75 0
      vertex -47.75 44.75 0
    endloop
  endfacet
  facet normal 0 0 -1
    outer loop
      vertex -63 30.25 0
      vertex -48.25 90 0
      vertex -48.25 30.25 0
    endloop
  endfacet
  facet normal -0 0 -1
    outer loop
      vertex -48.25 90 0
      vertex -63 30.25 0
      vertex -63 90 0
    endloop
  endfacet
  facet normal 0 0 -1
    outer loop
      vertex -32.75 60.25 0
      vertex -17.75 74.75 0
      vertex -17.75 60.25 0
    endloop
  endfacet
  facet normal -0 0 -1
    outer loop
      vertex -17.75 74.75 0
      vertex -32.75 60.25 0
      vertex -32.75 74.75 0
    endloop
  endfacet
  facet normal 0 0 -1
    outer loop
      vertex -17.75 60.25 0
      vertex -3 45.25 0
      vertex -17.75 45.25 0
    endloop
  endfacet
  facet normal 0 0 -1
    outer loop
      vertex -3 45.25 0
      vertex -17.75 60.25 0
      vertex -3 90 0
    endloop
  endfacet
  facet normal 0 0 -1
    outer loop
      vertex -17.75 74.75 0
      vertex -3 90 0
      vertex -17.75 60.25 0
    endloop
  endfacet
  facet normal -0 0 -1
    outer loop
      vertex -3 90 0
      vertex -17.75 74.75 0
      vertex -17.75 90 0
    endloop
  endfacet
  facet normal 0 0 -1
    outer loop
      vertex -33.25 45.25 0
      vertex -47.75 45.25 0
      vertex -33.25 75.25 0
    endloop
  endfacet
  facet normal 0 0 -1
    outer loop
      vertex -33.25 75.25 0
      vertex -18.25 90 0
      vertex -18.25 75.25 0
    endloop
  endfacet
  facet normal 0 0 -1
    outer loop
      vertex -33.25 75.25 0
      vertex -47.75 90 0
      vertex -18.25 90 0
    endloop
  endfacet
  facet normal 0 0 -1
    outer loop
      vertex -47.75 90 0
      vertex -33.25 75.25 0
      vertex -47.75 45.25 0
    endloop
  endfacet
  facet normal 0 0 -1
    outer loop
      vertex -17.75 30.25 0
      vertex -3 15.25 0
      vertex -17.75 15.25 0
    endloop
  endfacet
  facet normal 0 0 -1
    outer loop
      vertex -3 15.25 0
      vertex -17.75 30.25 0
      vertex -3 44.75 0
    endloop
  endfacet
  facet normal 0 0 -1
    outer loop
      vertex -17.75 30.25 0
      vertex -18.25 44.75 0
      vertex -3 44.75 0
    endloop
  endfacet
  facet normal 0 0 -1
    outer loop
      vertex -32.75 30.25 0
      vertex -18.25 44.75 0
      vertex -17.75 30.25 0
    endloop
  endfacet
  facet normal 0 0 -1
    outer loop
      vertex -32.75 59.75 0
      vertex -18.25 44.75 0
      vertex -32.75 30.25 0
    endloop
  endfacet
  facet normal 0 0 -1
    outer loop
      vertex -18.25 44.75 0
      vertex -32.75 59.75 0
      vertex -18.25 59.75 0
    endloop
  endfacet
  facet normal 1 -0 0
    outer loop
      vertex -3 0 6
      vertex -3 14.75 0
      vertex -3 14.75 6
    endloop
  endfacet
  facet normal 1 0 0
    outer loop
      vertex -3 14.75 0
      vertex -3 0 6
      vertex -3 0 0
    endloop
  endfacet
  facet normal 1 0 0
    outer loop
      vertex -3 59.75 6
      vertex -3 45.25 6
      vertex -3 59.75 5.5
    endloop
  endfacet
  facet normal 1 0 0
    outer loop
      vertex -3 74.75 6
      vertex -3 60.25 6
      vertex -3 74.75 5.5
    endloop
  endfacet
  facet normal 1 0 0
    outer loop
      vertex -3 75.25 5.5
      vertex -3 90 6
      vertex -3 75.25 6
    endloop
  endfacet
  facet normal 1 0 0
    outer loop
      vertex -3 90 6
      vertex -3 75.25 5.5
      vertex -3 90 0
    endloop
  endfacet
  facet normal 1 -0 0
    outer loop
      vertex -3 74.75 5.5
      vertex -3 90 0
      vertex -3 75.25 5.5
    endloop
  endfacet
  facet normal 1 0 0
    outer loop
      vertex -3 60.25 5.5
      vertex -3 74.75 5.5
      vertex -3 60.25 6
    endloop
  endfacet
  facet normal 1 0 0
    outer loop
      vertex -3 74.75 5.5
      vertex -3 60.25 5.5
      vertex -3 90 0
    endloop
  endfacet
  facet normal 1 0 0
    outer loop
      vertex -3 45.25 0
      vertex -3 60.25 5.5
      vertex -3 59.75 5.5
    endloop
  endfacet
  facet normal 1 0 0
    outer loop
      vertex -3 45.25 0
      vertex -3 59.75 5.5
      vertex -3 45.25 6
    endloop
  endfacet
  facet normal 1 0 0
    outer loop
      vertex -3 60.25 5.5
      vertex -3 45.25 0
      vertex -3 90 0
    endloop
  endfacet
  facet normal 1 0 0
    outer loop
      vertex -3 29.75 6
      vertex -3 15.25 6
      vertex -3 29.75 5.5
    endloop
  endfacet
  facet normal 1 0 0
    outer loop
      vertex -3 30.25 5.5
      vertex -3 44.75 6
      vertex -3 30.25 6
    endloop
  endfacet
  facet normal 1 0 0
    outer loop
      vertex -3 44.75 6
      vertex -3 30.25 5.5
      vertex -3 44.75 0
    endloop
  endfacet
  facet normal 1 -0 0
    outer loop
      vertex -3 29.75 5.5
      vertex -3 44.75 0
      vertex -3 30.25 5.5
    endloop
  endfacet
  facet normal 1 0 0
    outer loop
      vertex -3 15.25 0
      vertex -3 29.75 5.5
      vertex -3 15.25 6
    endloop
  endfacet
  facet normal 1 0 0
    outer loop
      vertex -3 29.75 5.5
      vertex -3 15.25 0
      vertex -3 44.75 0
    endloop
  endfacet
  facet normal -1 0 0
    outer loop
      vertex -63 29.75 0
      vertex -63 15.25 5.5
      vertex -63 29.75 6
    endloop
  endfacet
  facet normal -1 0 0
    outer loop
      vertex -63 29.75 0
      vertex -63 14.75 5.5
      vertex -63 15.25 5.5
    endloop
  endfacet
  facet normal -1 0 0
    outer loop
      vertex -63 0 0
      vertex -63 14.75 5.5
      vertex -63 29.75 0
    endloop
  endfacet
  facet normal -1 0 0
    outer loop
      vertex -63 0 6
      vertex -63 14.75 5.5
      vertex -63 0 0
    endloop
  endfacet
  facet normal -1 0 0
    outer loop
      vertex -63 14.75 5.5
      vertex -63 0 6
      vertex -63 14.75 6
    endloop
  endfacet
  facet normal -1 -0 0
    outer loop
      vertex -63 29.75 6
      vertex -63 15.25 5.5
      vertex -63 15.25 6
    endloop
  endfacet
  facet normal -1 0 0
    outer loop
      vertex -63 90 0
      vertex -63 75.25 5.5
      vertex -63 90 6
    endloop
  endfacet
  facet normal -1 0 0
    outer loop
      vertex -63 90 0
      vertex -63 74.75 5.5
      vertex -63 75.25 5.5
    endloop
  endfacet
  facet normal -1 0 0
    outer loop
      vertex -63 74.75 5.5
      vertex -63 60.25 5.5
      vertex -63 74.75 6
    endloop
  endfacet
  facet normal -1 0 0
    outer loop
      vertex -63 90 0
      vertex -63 60.25 5.5
      vertex -63 74.75 5.5
    endloop
  endfacet
  facet normal -1 0 0
    outer loop
      vertex -63 90 0
      vertex -63 59.75 5.5
      vertex -63 60.25 5.5
    endloop
  endfacet
  facet normal -1 0 0
    outer loop
      vertex -63 59.75 5.5
      vertex -63 45.25 5.5
      vertex -63 59.75 6
    endloop
  endfacet
  facet normal -1 0 0
    outer loop
      vertex -63 30.25 0
      vertex -63 59.75 5.5
      vertex -63 90 0
    endloop
  endfacet
  facet normal -1 -0 0
    outer loop
      vertex -63 59.75 5.5
      vertex -63 30.25 0
      vertex -63 45.25 5.5
    endloop
  endfacet
  facet normal -1 -0 0
    outer loop
      vertex -63 45.25 5.5
      vertex -63 30.25 0
      vertex -63 44.75 5.5
    endloop
  endfacet
  facet normal -1 0 0
    outer loop
      vertex -63 30.25 6
      vertex -63 44.75 5.5
      vertex -63 30.25 0
    endloop
  endfacet
  facet normal -1 0 0
    outer loop
      vertex -63 44.75 5.5
      vertex -63 30.25 6
      vertex -63 44.75 6
    endloop
  endfacet
  facet normal -1 -0 0
    outer loop
      vertex -63 90 6
      vertex -63 75.25 5.5
      vertex -63 75.25 6
    endloop
  endfacet
  facet normal -1 -0 0
    outer loop
      vertex -63 74.75 6
      vertex -63 60.25 5.5
      vertex -63 60.25 6
    endloop
  endfacet
  facet normal -1 -0 0
    outer loop
      vertex -63 59.75 6
      vertex -63 45.25 5.5
      vertex -63 45.25 6
    endloop
  endfacet
  facet normal 0 -1 0
    outer loop
      vertex -47.75 0 6
      vertex -33.25 0 5.5
      vertex -33.25 0 6
    endloop
  endfacet
  facet normal 0 -1 0
    outer loop
      vertex -47.75 0 0
      vertex -32.75 0 5.5
      vertex -33.25 0 5.5
    endloop
  endfacet
  facet normal 0 -1 -0
    outer loop
      vertex -32.75 0 5.5
      vertex -47.75 0 0
      vertex -18.25 0 5.5
    endloop
  endfacet
  facet normal 0 -1 0
    outer loop
      vertex -3 0 0
      vertex -18.25 0 5.5
      vertex -47.75 0 0
    endloop
  endfacet
  facet normal 0 -1 0
    outer loop
      vertex -47.75 0 0
      vertex -33.25 0 5.5
      vertex -47.75 0 6
    endloop
  endfacet
  facet normal 0 -1 0
    outer loop
      vertex -32.75 0 5.5
      vertex -18.25 0 6
      vertex -32.75 0 6
    endloop
  endfacet
  facet normal 0 -1 -0
    outer loop
      vertex -18.25 0 6
      vertex -32.75 0 5.5
      vertex -18.25 0 5.5
    endloop
  endfacet
  facet normal 0 -1 0
    outer loop
      vertex -17.75 0 5.5
      vertex -3 0 6
      vertex -17.75 0 6
    endloop
  endfacet
  facet normal 0 -1 0
    outer loop
      vertex -18.25 0 5.5
      vertex -3 0 0
      vertex -17.75 0 5.5
    endloop
  endfacet
  facet normal 0 -1 0
    outer loop
      vertex -17.75 0 5.5
      vertex -3 0 0
      vertex -3 0 6
    endloop
  endfacet
  facet normal 0 -1 0
    outer loop
      vertex -63 0 0
      vertex -48.25 0 6
      vertex -63 0 6
    endloop
  endfacet
  facet normal 0 -1 -0
    outer loop
      vertex -48.25 0 6
      vertex -63 0 0
      vertex -48.25 0 0
    endloop
  endfacet
  facet normal 0 1 -0
    outer loop
      vertex -48.25 90 0
      vertex -63 90 6
      vertex -48.25 90 6
    endloop
  endfacet
  facet normal 0 1 0
    outer loop
      vertex -63 90 6
      vertex -48.25 90 0
      vertex -63 90 0
    endloop
  endfacet
  facet normal 0 1 -0
    outer loop
      vertex -3 90 0
      vertex -17.75 90 6
      vertex -3 90 6
    endloop
  endfacet
  facet normal 0 1 0
    outer loop
      vertex -17.75 90 6
      vertex -3 90 0
      vertex -17.75 90 0
    endloop
  endfacet
  facet normal 0 1 0
    outer loop
      vertex -18.25 90 6
      vertex -32.75 90 5.5
      vertex -32.75 90 6
    endloop
  endfacet
  facet normal 0 1 0
    outer loop
      vertex -32.75 90 5.5
      vertex -18.25 90 0
      vertex -33.25 90 5.5
    endloop
  endfacet
  facet normal 0 1 -0
    outer loop
      vertex -18.25 90 0
      vertex -32.75 90 5.5
      vertex -18.25 90 6
    endloop
  endfacet
  facet normal 0 1 -0
    outer loop
      vertex -33.25 90 5.5
      vertex -47.75 90 6
      vertex -33.25 90 6
    endloop
  endfacet
  facet normal 0 1 0
    outer loop
      vertex -47.75 90 0
      vertex -33.25 90 5.5
      vertex -18.25 90 0
    endloop
  endfacet
  facet normal 0 1 0
    outer loop
      vertex -33.25 90 5.5
      vertex -47.75 90 0
      vertex -47.75 90 6
    endloop
  endfacet
  facet normal -0 0 1
    outer loop
      vertex -17.75 14.75 6
      vertex -3 0 6
      vertex -3 14.75 6
    endloop
  endfacet
  facet normal 0 0 1
    outer loop
      vertex -3 0 6
      vertex -17.75 14.75 6
      vertex -17.75 0 6
    endloop
  endfacet
  facet normal -0 0 1
    outer loop
      vertex -63 90 6
      vertex -48.25 75.25 6
      vertex -48.25 90 6
    endloop
  endfacet
  facet normal 0 0 1
    outer loop
      vertex -48.25 75.25 6
      vertex -63 90 6
      vertex -63 75.25 6
    endloop
  endfacet
  facet normal -0 0 1
    outer loop
      vertex -63 14.75 6
      vertex -48.25 0 6
      vertex -48.25 14.75 6
    endloop
  endfacet
  facet normal 0 0 1
    outer loop
      vertex -48.25 0 6
      vertex -63 14.75 6
      vertex -63 0 6
    endloop
  endfacet
  facet normal -0 0 1
    outer loop
      vertex -17.75 90 6
      vertex -3 75.25 6
      vertex -3 90 6
    endloop
  endfacet
  facet normal 0 0 1
    outer loop
      vertex -3 75.25 6
      vertex -17.75 90 6
      vertex -17.75 75.25 6
    endloop
  endfacet
  facet normal -0 0 1
    outer loop
      vertex -63 29.75 6
      vertex -48.25 15.25 6
      vertex -48.25 29.75 6
    endloop
  endfacet
  facet normal 0 0 1
    outer loop
      vertex -48.25 15.25 6
      vertex -63 29.75 6
      vertex -63 15.25 6
    endloop
  endfacet
  facet normal -0 0 1
    outer loop
      vertex -63 44.75 6
      vertex -48.25 30.25 6
      vertex -48.25 44.75 6
    endloop
  endfacet
  facet normal 0 0 1
    outer loop
      vertex -48.25 30.25 6
      vertex -63 44.75 6
      vertex -63 30.25 6
    endloop
  endfacet
  facet normal -0 0 1
    outer loop
      vertex -63 59.75 6
      vertex -48.25 45.25 6
      vertex -48.25 59.75 6
    endloop
  endfacet
  facet normal 0 0 1
    outer loop
      vertex -48.25 45.25 6
      vertex -63 59.75 6
      vertex -63 45.25 6
    endloop
  endfacet
  facet normal -0 0 1
    outer loop
      vertex -63 74.75 6
      vertex -48.25 60.25 6
      vertex -48.25 74.75 6
    endloop
  endfacet
  facet normal 0 0 1
    outer loop
      vertex -48.25 60.25 6
      vertex -63 74.75 6
      vertex -63 60.25 6
    endloop
  endfacet
  facet normal -0 0 1
    outer loop
      vertex -47.75 14.75 6
      vertex -33.25 0 6
      vertex -33.25 14.75 6
    endloop
  endfacet
  facet normal 0 0 1
    outer loop
      vertex -33.25 0 6
      vertex -47.75 14.75 6
      vertex -47.75 0 6
    endloop
  endfacet
  facet normal -0 0 1
    outer loop
      vertex -32.75 14.75 6
      vertex -18.25 0 6
      vertex -18.25 14.75 6
    endloop
  endfacet
  facet normal 0 0 1
    outer loop
      vertex -18.25 0 6
      vertex -32.75 14.75 6
      vertex -32.75 0 6
    endloop
  endfacet
  facet normal -0 0 1
    outer loop
      vertex -47.75 90 6
      vertex -33.25 75.25 6
      vertex -33.25 90 6
    endloop
  endfacet
  facet normal 0 0 1
    outer loop
      vertex -33.25 75.25 6
      vertex -47.75 90 6
      vertex -47.75 75.25 6
    endloop
  endfacet
  facet normal -0 0 1
    outer loop
      vertex -32.75 90 6
      vertex -18.25 75.25 6
      vertex -18.25 90 6
    endloop
  endfacet
  facet normal 0 0 1
    outer loop
      vertex -18.25 75.25 6
      vertex -32.75 90 6
      vertex -32.75 75.25 6
    endloop
  endfacet
  facet normal -0 0 1
    outer loop
      vertex -17.75 29.75 6
      vertex -3 15.25 6
      vertex -3 29.75 6
    endloop
  endfacet
  facet normal 0 0 1
    outer loop
      vertex -3 15.25 6
      vertex -17.75 29.75 6
      vertex -17.75 15.25 6
    endloop
  endfacet
  facet normal -0 0 1
    outer loop
      vertex -17.75 44.75 6
      vertex -3 30.25 6
      vertex -3 44.75 6
    endloop
  endfacet
  facet normal 0 0 1
    outer loop
      vertex -3 30.25 6
      vertex -17.75 44.75 6
      vertex -17.75 30.25 6
    endloop
  endfacet
  facet normal -0 0 1
    outer loop
      vertex -17.75 59.75 6
      vertex -3 45.25 6
      vertex -3 59.75 6
    endloop
  endfacet
  facet normal 0 0 1
    outer loop
      vertex -3 45.25 6
      vertex -17.75 59.75 6
      vertex -17.75 45.25 6
    endloop
  endfacet
  facet normal -0 0 1
    outer loop
      vertex -17.75 74.75 6
      vertex -3 60.25 6
      vertex -3 74.75 6
    endloop
  endfacet
  facet normal 0 0 1
    outer loop
      vertex -3 60.25 6
      vertex -17.75 74.75 6
      vertex -17.75 60.25 6
    endloop
  endfacet
  facet normal -0 0 1
    outer loop
      vertex -47.75 74.75 6
      vertex -33.25 60.25 6
      vertex -33.25 74.75 6
    endloop
  endfacet
  facet normal 0 0 1
    outer loop
      vertex -33.25 60.25 6
      vertex -47.75 74.75 6
      vertex -47.75 60.25 6
    endloop
  endfacet
  facet normal -0 0 1
    outer loop
      vertex -47.75 59.75 6
      vertex -33.25 45.25 6
      vertex -33.25 59.75 6
    endloop
  endfacet
  facet normal 0 0 1
    outer loop
      vertex -33.25 45.25 6
      vertex -47.75 59.75 6
      vertex -47.75 45.25 6
    endloop
  endfacet
  facet normal -0 0 1
    outer loop
      vertex -47.75 44.75 6
      vertex -33.25 30.25 6
      vertex -33.25 44.75 6
    endloop
  endfacet
  facet normal 0 0 1
    outer loop
      vertex -33.25 30.25 6
      vertex -47.75 44.75 6
      vertex -47.75 30.25 6
    endloop
  endfacet
  facet normal -0 0 1
    outer loop
      vertex -47.75 29.75 6
      vertex -33.25 15.25 6
      vertex -33.25 29.75 6
    endloop
  endfacet
  facet normal 0 0 1
    outer loop
      vertex -33.25 15.25 6
      vertex -47.75 29.75 6
      vertex -47.75 15.25 6
    endloop
  endfacet
  facet normal -0 0 1
    outer loop
      vertex -32.75 74.75 6
      vertex -18.25 60.25 6
      vertex -18.25 74.75 6
    endloop
  endfacet
  facet normal 0 0 1
    outer loop
      vertex -18.25 60.25 6
      vertex -32.75 74.75 6
      vertex -32.75 60.25 6
    endloop
  endfacet
  facet normal -0 0 1
    outer loop
      vertex -32.75 59.75 6
      vertex -18.25 45.25 6
      vertex -18.25 59.75 6
    endloop
  endfacet
  facet normal 0 0 1
    outer loop
      vertex -18.25 45.25 6
      vertex -32.75 59.75 6
      vertex -32.75 45.25 6
    endloop
  endfacet
  facet normal -0 0 1
    outer loop
      vertex -32.75 44.75 6
      vertex -18.25 30.25 6
      vertex -18.25 44.75 6
    endloop
  endfacet
  facet normal 0 0 1
    outer loop
      vertex -18.25 30.25 6
      vertex -32.75 44.75 6
      vertex -32.75 30.25 6
    endloop
  endfacet
  facet normal -0 0 1
    outer loop
      vertex -32.75 29.75 6
      vertex -18.25 15.25 6
      vertex -18.25 29.75 6
    endloop
  endfacet
  facet normal 0 0 1
    outer loop
      vertex -18.25 15.25 6
      vertex -32.75 29.75 6
      vertex -32.75 15.25 6
    endloop
  endfacet
  facet normal 0 0 -1
    outer loop
      vertex 69 0 0
      vertex 39 48 0
      vertex 69 96 0
    endloop
  endfacet
  facet normal 0 0 -1
    outer loop
      vertex 69 0 0
      vertex 38.4271 46.2366 0
      vertex 39 48 0
    endloop
  endfacet
  facet normal 0 0 -1
    outer loop
      vertex 69 0 0
      vertex 36.9271 45.1468 0
      vertex 38.4271 46.2366 0
    endloop
  endfacet
  facet normal 0 0 -1
    outer loop
      vertex 69 0 0
      vertex 35.0729 45.1468 0
      vertex 36.9271 45.1468 0
    endloop
  endfacet
  facet normal 0 0 -1
    outer loop
      vertex 3 0 0
      vertex 35.0729 45.1468 0
      vertex 69 0 0
    endloop
  endfacet
  facet normal -0 0 -1
    outer loop
      vertex 33.5729 46.2366 0
      vertex 3 0 0
      vertex 33 48 0
    endloop
  endfacet
  facet normal -0 0 -1
    outer loop
      vertex 35.0729 45.1468 0
      vertex 3 0 0
      vertex 33.5729 46.2366 0
    endloop
  endfacet
  facet normal 0 0 -1
    outer loop
      vertex 38.4271 49.7634 0
      vertex 69 96 0
      vertex 39 48 0
    endloop
  endfacet
  facet normal 0 0 -1
    outer loop
      vertex 36.9271 50.8532 0
      vertex 69 96 0
      vertex 38.4271 49.7634 0
    endloop
  endfacet
  facet normal 0 0 -1
    outer loop
      vertex 35.0729 50.8532 0
      vertex 69 96 0
      vertex 36.9271 50.8532 0
    endloop
  endfacet
  facet normal 0 0 -1
    outer loop
      vertex 3 96 0
      vertex 35.0729 50.8532 0
      vertex 33.5729 49.7634 0
    endloop
  endfacet
  facet normal 0 0 -1
    outer loop
      vertex 3 96 0
      vertex 33 48 0
      vertex 3 0 0
    endloop
  endfacet
  facet normal 0 0 -1
    outer loop
      vertex 35.0729 50.8532 0
      vertex 3 96 0
      vertex 69 96 0
    endloop
  endfacet
  facet normal 0 0 -1
    outer loop
      vertex 33 48 0
      vertex 3 96 0
      vertex 33.5729 49.7634 0
    endloop
  endfacet
  facet normal 1 -0 0
    outer loop
      vertex 69 0 4
      vertex 69 96 0
      vertex 69 96 4
    endloop
  endfacet
  facet normal 1 0 0
    outer loop
      vertex 69 96 0
      vertex 69 0 4
      vertex 69 0 0
    endloop
  endfacet
  facet normal -1 0 0
    outer loop
      vertex 3 0 0
      vertex 3 96 4
      vertex 3 96 0
    endloop
  endfacet
  facet normal -1 -0 0
    outer loop
      vertex 3 96 4
      vertex 3 0 0
      vertex 3 0 4
    endloop
  endfacet
  facet normal 0 -1 0
    outer loop
      vertex 3 0 0
      vertex 69 0 4
      vertex 3 0 4
    endloop
  endfacet
  facet normal 0 -1 -0
    outer loop
      vertex 69 0 4
      vertex 3 0 0
      vertex 69 0 0
    endloop
  endfacet
  facet normal 0 1 -0
    outer loop
      vertex 69 96 0
      vertex 3 96 4
      vertex 69 96 4
    endloop
  endfacet
  facet normal 0 1 0
    outer loop
      vertex 3 96 4
      vertex 69 96 0
      vertex 3 96 0
    endloop
  endfacet
  facet normal 0 0 1
    outer loop
      vertex 69 96 4
      vertex 66.25 93.25 4
      vertex 69 0 4
    endloop
  endfacet
  facet normal 0 0 1
    outer loop
      vertex 69 96 4
      vertex 5.75 93.25 4
      vertex 66.25 93.25 4
    endloop
  endfacet
  facet normal 0 0 1
    outer loop
      vertex 5.75 93.25 4
      vertex 3 96 4
      vertex 5.75 2.75 4
    endloop
  endfacet
  facet normal -0 0 1
    outer loop
      vertex 3 96 4
      vertex 5.75 93.25 4
      vertex 69 96 4
    endloop
  endfacet
  facet normal -0 0 1
    outer loop
      vertex 66.25 2.75 4
      vertex 69 0 4
      vertex 66.25 93.25 4
    endloop
  endfacet
  facet normal -0 0 1
    outer loop
      vertex 5.75 2.75 4
      vertex 69 0 4
      vertex 66.25 2.75 4
    endloop
  endfacet
  facet normal 0 0 1
    outer loop
      vertex 5.75 2.75 4
      vertex 3 0 4
      vertex 69 0 4
    endloop
  endfacet
  facet normal 0 0 1
    outer loop
      vertex 3 0 4
      vertex 5.75 2.75 4
      vertex 3 96 4
    endloop
  endfacet
  facet normal 0 0 1
    outer loop
      vertex 66.25 93.25 1.5
      vertex 39 48 1.5
      vertex 66.25 2.75 1.5
    endloop
  endfacet
  facet normal 0 0 1
    outer loop
      vertex 66.25 93.25 1.5
      vertex 38.4271 49.7634 1.5
      vertex 39 48 1.5
    endloop
  endfacet
  facet normal 0 0 1
    outer loop
      vertex 66.25 93.25 1.5
      vertex 36.9271 50.8532 1.5
      vertex 38.4271 49.7634 1.5
    endloop
  endfacet
  facet normal 0 0 1
    outer loop
      vertex 66.25 93.25 1.5
      vertex 35.0729 50.8532 1.5
      vertex 36.9271 50.8532 1.5
    endloop
  endfacet
  facet normal -0 0 1
    outer loop
      vertex 5.75 93.25 1.5
      vertex 35.0729 50.8532 1.5
      vertex 66.25 93.25 1.5
    endloop
  endfacet
  facet normal 0 0 1
    outer loop
      vertex 33.5729 49.7634 1.5
      vertex 5.75 93.25 1.5
      vertex 33 48 1.5
    endloop
  endfacet
  facet normal 0 0 1
    outer loop
      vertex 35.0729 50.8532 1.5
      vertex 5.75 93.25 1.5
      vertex 33.5729 49.7634 1.5
    endloop
  endfacet
  facet normal -0 0 1
    outer loop
      vertex 38.4271 46.2366 1.5
      vertex 66.25 2.75 1.5
      vertex 39 48 1.5
    endloop
  endfacet
  facet normal -0 0 1
    outer loop
      vertex 36.9271 45.1468 1.5
      vertex 66.25 2.75 1.5
      vertex 38.4271 46.2366 1.5
    endloop
  endfacet
  facet normal -0 0 1
    outer loop
      vertex 35.0729 45.1468 1.5
      vertex 66.25 2.75 1.5
      vertex 36.9271 45.1468 1.5
    endloop
  endfacet
  facet normal 0 0 1
    outer loop
      vertex 5.75 2.75 1.5
      vertex 35.0729 45.1468 1.5
      vertex 33.5729 46.2366 1.5
    endloop
  endfacet
  facet normal 0 0 1
    outer loop
      vertex 5.75 2.75 1.5
      vertex 33 48 1.5
      vertex 5.75 93.25 1.5
    endloop
  endfacet
  facet normal 0 0 1
    outer loop
      vertex 35.0729 45.1468 1.5
      vertex 5.75 2.75 1.5
      vertex 66.25 2.75 1.5
    endloop
  endfacet
  facet normal 0 0 1
    outer loop
      vertex 33 48 1.5
      vertex 5.75 2.75 1.5
      vertex 33.5729 46.2366 1.5
    endloop
  endfacet
  facet normal -1 0 0
    outer loop
      vertex 66.25 2.75 1.5
      vertex 66.25 93.25 4
      vertex 66.25 93.25 1.5
    endloop
  endfacet
  facet normal -1 -0 0
    outer loop
      vertex 66.25 93.25 4
      vertex 66.25 2.75 1.5
      vertex 66.25 2.75 4
    endloop
  endfacet
  facet normal 1 -0 0
    outer loop
      vertex 5.75 2.75 4
      vertex 5.75 93.25 1.5
      vertex 5.75 93.25 4
    endloop
  endfacet
  facet normal 1 0 0
    outer loop
      vertex 5.75 93.25 1.5
      vertex 5.75 2.75 4
      vertex 5.75 2.75 1.5
    endloop
  endfacet
  facet normal 0 1 -0
    outer loop
      vertex 66.25 2.75 1.5
      vertex 5.75 2.75 4
      vertex 66.25 2.75 4
    endloop
  endfacet
  facet normal 0 1 0
    outer loop
      vertex 5.75 2.75 4
      vertex 66.25 2.75 1.5
      vertex 5.75 2.75 1.5
    endloop
  endfacet
  facet normal 0 -1 0
    outer loop
      vertex 5.75 93.25 1.5
      vertex 66.25 93.25 4
      vertex 5.75 93.25 4
    endloop
  endfacet
  facet normal 0 -1 -0
    outer loop
      vertex 66.25 93.25 4
      vertex 5.75 93.25 1.5
      vertex 66.25 93.25 1.5
    endloop
  endfacet
  facet normal -0.587785 -0.809017 0
    outer loop
      vertex 36.9271 50.8532 0
      vertex 38.4271 49.7634 1.5
      vertex 36.9271 50.8532 1.5
    endloop
  endfacet
  facet normal -0.587785 -0.809017 -0
    outer loop
      vertex 38.4271 49.7634 1.5
      vertex 36.9271 50.8532 0
      vertex 38.4271 49.7634 0
    endloop
  endfacet
  facet normal -0.951057 -0.309017 0
    outer loop
      vertex 39 48 0
      vertex 38.4271 49.7634 1.5
      vertex 38.4271 49.7634 0
    endloop
  endfacet
  facet normal -0.951057 -0.309017 0
    outer loop
      vertex 38.4271 49.7634 1.5
      vertex 39 48 0
      vertex 39 48 1.5
    endloop
  endfacet
  facet normal 0.587785 -0.809017 0
    outer loop
      vertex 33.5729 49.7634 0
      vertex 35.0729 50.8532 1.5
      vertex 33.5729 49.7634 1.5
    endloop
  endfacet
  facet normal 0.587785 -0.809017 0
    outer loop
      vertex 35.0729 50.8532 1.5
      vertex 33.5729 49.7634 0
      vertex 35.0729 50.8532 0
    endloop
  endfacet
  facet normal 0.587786 0.809016 -0
    outer loop
      vertex 35.0729 45.1468 0
      vertex 33.5729 46.2366 1.5
      vertex 35.0729 45.1468 1.5
    endloop
  endfacet
  facet normal 0.587786 0.809016 0
    outer loop
      vertex 33.5729 46.2366 1.5
      vertex 35.0729 45.1468 0
      vertex 33.5729 46.2366 0
    endloop
  endfacet
  facet normal -0.587786 0.809016 0
    outer loop
      vertex 38.4271 46.2366 0
      vertex 36.9271 45.1468 1.5
      vertex 38.4271 46.2366 1.5
    endloop
  endfacet
  facet normal -0.587786 0.809016 0
    outer loop
      vertex 36.9271 45.1468 1.5
      vertex 38.4271 46.2366 0
      vertex 36.9271 45.1468 0
    endloop
  endfacet
  facet normal 0.951057 -0.309017 0
    outer loop
      vertex 33 48 1.5
      vertex 33.5729 49.7634 0
      vertex 33.5729 49.7634 1.5
    endloop
  endfacet
  facet normal 0.951057 -0.309017 0
    outer loop
      vertex 33.5729 49.7634 0
      vertex 33 48 1.5
      vertex 33 48 0
    endloop
  endfacet
  facet normal 0 -1 0
    outer loop
      vertex 35.0729 50.8532 0
      vertex 36.9271 50.8532 1.5
      vertex 35.0729 50.8532 1.5
    endloop
  endfacet
  facet normal 0 -1 -0
    outer loop
      vertex 36.9271 50.8532 1.5
      vertex 35.0729 50.8532 0
      vertex 36.9271 50.8532 0
    endloop
  endfacet
  facet normal 0 1 -0
    outer loop
      vertex 36.9271 45.1468 0
      vertex 35.0729 45.1468 1.5
      vertex 36.9271 45.1468 1.5
    endloop
  endfacet
  facet normal 0 1 0
    outer loop
      vertex 35.0729 45.1468 1.5
      vertex 36.9271 45.1468 0
      vertex 35.0729 45.1468 0
    endloop
  endfacet
  facet normal -0.951057 0.309017 0
    outer loop
      vertex 38.4271 46.2366 0
      vertex 39 48 1.5
      vertex 39 48 0
    endloop
  endfacet
  facet normal -0.951057 0.309017 0
    outer loop
      vertex 39 48 1.5
      vertex 38.4271 46.2366 0
      vertex 38.4271 46.2366 1.5
    endloop
  endfacet
  facet normal 0.951057 0.309017 0
    outer loop
      vertex 33.5729 46.2366 1.5
      vertex 33 48 0
      vertex 33 48 1.5
    endloop
  endfacet
  facet normal 0.951057 0.309017 0
    outer loop
      vertex 33 48 0
      vertex 33.5729 46.2366 1.5
      vertex 33.5729 46.2366 0
    endloop
  endfacet
endsolid OpenSCAD_Model
