solid OpenSCAD_Model
  facet normal 0.13052619222005235 0.9914448613738103 0
    outer loop
      vertex 36.98236190979496 7.443148347421864 1.99
      vertex 36.98236190979496 7.443148347421864 3
      vertex 37.5 7.375 1.99
    endloop
  endfacet
  facet normal 0.13052619222005235 0.9914448613738103 0
    outer loop
      vertex 37.5 7.375 1.99
      vertex 36.98236190979496 7.443148347421864 3
      vertex 37.5 7.375 3
    endloop
  endfacet
  facet normal 0.7933533402912345 0.6087614290087213 -1.4731644661718094e-17
    outer loop
      vertex 36.08578643762691 7.960786437626905 1.99
      vertex 35.767949192431125 8.375 1.99
      vertex 35.767949192431125 8.375 3
    endloop
  endfacet
  facet normal 0.9238795325112835 0.3826834323650976 4.546432537216774e-18
    outer loop
      vertex 35.767949192431125 8.375 1.99
      vertex 35.56814834742186 8.857361909794959 1.99
      vertex 35.56814834742186 8.857361909794959 3
    endloop
  endfacet
  facet normal 0.9238795325112835 0.3826834323650976 0
    outer loop
      vertex 35.767949192431125 8.375 1.99
      vertex 35.56814834742186 8.857361909794959 3
      vertex 35.767949192431125 8.375 3
    endloop
  endfacet
  facet normal 0.9914448613738112 0.1305261922200469 3.578927496092081e-18
    outer loop
      vertex 35.56814834742186 8.857361909794959 1.99
      vertex 35.5 9.375 1.99
      vertex 35.5 9.375 3
    endloop
  endfacet
  facet normal 0.9914448613738112 0.1305261922200469 0
    outer loop
      vertex 35.56814834742186 8.857361909794959 1.99
      vertex 35.5 9.375 3
      vertex 35.56814834742186 8.857361909794959 3
    endloop
  endfacet
  facet normal 0.6087614290087227 0.7933533402912335 0
    outer loop
      vertex 36.08578643762691 7.960786437626905 1.99
      vertex 36.08578643762691 7.960786437626905 3
      vertex 36.5 7.642949192431123 1.99
    endloop
  endfacet
  facet normal 0.38268343236508917 0.9238795325112871 -1.2090811068083303e-18
    outer loop
      vertex 36.98236190979496 7.443148347421864 1.99
      vertex 36.5 7.642949192431123 1.99
      vertex 36.5 7.642949192431123 3
    endloop
  endfacet
  facet normal 0.6087614290087227 0.7933533402912335 0
    outer loop
      vertex 36.5 7.642949192431123 1.99
      vertex 36.08578643762691 7.960786437626905 3
      vertex 36.5 7.642949192431123 3
    endloop
  endfacet
  facet normal 0.7933533402912345 0.6087614290087213 0
    outer loop
      vertex 36.08578643762691 7.960786437626905 1.99
      vertex 35.767949192431125 8.375 3
      vertex 36.08578643762691 7.960786437626905 3
    endloop
  endfacet
  facet normal 0.38268343236508917 0.9238795325112871 0
    outer loop
      vertex 36.98236190979496 7.443148347421864 1.99
      vertex 36.5 7.642949192431123 3
      vertex 36.98236190979496 7.443148347421864 3
    endloop
  endfacet
  facet normal 0.9914448613738112 -0.1305261922200469 -3.578927496092081e-18
    outer loop
      vertex 35.5 9.375 1.99
      vertex 35.56814834742186 9.892638090205041 1.99
      vertex 35.56814834742186 9.892638090205041 3
    endloop
  endfacet
  facet normal 0.9914448613738112 -0.1305261922200469 0
    outer loop
      vertex 35.5 9.375 1.99
      vertex 35.56814834742186 9.892638090205041 3
      vertex 35.5 9.375 3
    endloop
  endfacet
  facet normal 0.9238795325112835 -0.3826834323650976 -4.546432537216774e-18
    outer loop
      vertex 35.56814834742186 9.892638090205041 1.99
      vertex 35.767949192431125 10.375 1.99
      vertex 35.767949192431125 10.375 3
    endloop
  endfacet
  facet normal 0.9238795325112835 -0.3826834323650976 0
    outer loop
      vertex 35.56814834742186 9.892638090205041 1.99
      vertex 35.767949192431125 10.375 3
      vertex 35.56814834742186 9.892638090205041 3
    endloop
  endfacet
  facet normal 0.7933533402912353 -0.6087614290087205 0
    outer loop
      vertex 35.767949192431125 10.375 1.99
      vertex 36.08578643762691 10.789213562373096 3
      vertex 35.767949192431125 10.375 3
    endloop
  endfacet
  facet normal 0.7933533402912353 -0.6087614290087205 2.3721202643888312e-17
    outer loop
      vertex 35.767949192431125 10.375 1.99
      vertex 36.08578643762691 10.789213562373096 1.99
      vertex 36.08578643762691 10.789213562373096 3
    endloop
  endfacet
  facet normal 0.6087614290087217 -0.7933533402912345 1.357139256859679e-17
    outer loop
      vertex 36.08578643762691 10.789213562373096 1.99
      vertex 36.5 11.107050807568877 1.99
      vertex 36.5 11.107050807568877 3
    endloop
  endfacet
  facet normal 0.6087614290087217 -0.7933533402912345 0
    outer loop
      vertex 36.08578643762691 10.789213562373096 1.99
      vertex 36.5 11.107050807568877 3
      vertex 36.08578643762691 10.789213562373096 3
    endloop
  endfacet
  facet normal 0.3826834323650906 -0.9238795325112865 0
    outer loop
      vertex 36.5 11.107050807568877 1.99
      vertex 36.98236190979496 11.306851652578137 3
      vertex 36.5 11.107050807568877 3
    endloop
  endfacet
  facet normal 0.3826834323650906 -0.9238795325112865 -2.1815802658118987e-18
    outer loop
      vertex 36.5 11.107050807568877 1.99
      vertex 36.98236190979496 11.306851652578137 1.99
      vertex 36.98236190979496 11.306851652578137 3
    endloop
  endfacet
  facet normal 0.13052619222005069 -0.9914448613738105 -2.666057561220009e-18
    outer loop
      vertex 36.98236190979496 11.306851652578137 1.99
      vertex 37.5 11.375 1.99
      vertex 37.5 11.375 3
    endloop
  endfacet
  facet normal 0.13052619222005069 -0.9914448613738105 0
    outer loop
      vertex 36.98236190979496 11.306851652578137 1.99
      vertex 37.5 11.375 3
      vertex 36.98236190979496 11.306851652578137 3
    endloop
  endfacet
  facet normal -0.13052619222005235 0.9914448613738103 0
    outer loop
      vertex 37.5 7.375 1.99
      vertex 37.5 7.375 3
      vertex 38.01763809020504 7.443148347421864 1.99
    endloop
  endfacet
  facet normal -0.13052619222005235 0.9914448613738103 0
    outer loop
      vertex 38.01763809020504 7.443148347421864 1.99
      vertex 37.5 7.375 3
      vertex 38.01763809020504 7.443148347421864 3
    endloop
  endfacet
  facet normal -0.38268343236508917 0.9238795325112871 0
    outer loop
      vertex 38.01763809020504 7.443148347421864 1.99
      vertex 38.01763809020504 7.443148347421864 3
      vertex 38.5 7.642949192431123 1.99
    endloop
  endfacet
  facet normal -0.6087614290087227 0.7933533402912335 0
    outer loop
      vertex 38.5 7.642949192431123 1.99
      vertex 38.5 7.642949192431123 3
      vertex 38.91421356237309 7.960786437626905 1.99
    endloop
  endfacet
  facet normal -0.38268343236508917 0.9238795325112871 0
    outer loop
      vertex 38.5 7.642949192431123 1.99
      vertex 38.01763809020504 7.443148347421864 3
      vertex 38.5 7.642949192431123 3
    endloop
  endfacet
  facet normal -0.6087614290087227 0.7933533402912335 0
    outer loop
      vertex 38.91421356237309 7.960786437626905 1.99
      vertex 38.5 7.642949192431123 3
      vertex 38.91421356237309 7.960786437626905 3
    endloop
  endfacet
  facet normal -0.7933533402912345 0.6087614290087213 0
    outer loop
      vertex 38.91421356237309 7.960786437626905 1.99
      vertex 38.91421356237309 7.960786437626905 3
      vertex 39.232050807568875 8.375 1.99
    endloop
  endfacet
  facet normal -0.7933533402912345 0.6087614290087213 0
    outer loop
      vertex 39.232050807568875 8.375 1.99
      vertex 38.91421356237309 7.960786437626905 3
      vertex 39.232050807568875 8.375 3
    endloop
  endfacet
  facet normal -0.9238795325112835 0.3826834323650976 0
    outer loop
      vertex 39.232050807568875 8.375 1.99
      vertex 39.232050807568875 8.375 3
      vertex 39.43185165257814 8.857361909794959 1.99
    endloop
  endfacet
  facet normal -0.9238795325112835 0.3826834323650976 0
    outer loop
      vertex 39.43185165257814 8.857361909794959 1.99
      vertex 39.232050807568875 8.375 3
      vertex 39.43185165257814 8.857361909794959 3
    endloop
  endfacet
  facet normal -0.9914448613738112 0.1305261922200469 0
    outer loop
      vertex 39.43185165257814 8.857361909794959 1.99
      vertex 39.43185165257814 8.857361909794959 3
      vertex 39.5 9.375 1.99
    endloop
  endfacet
  facet normal -0.9914448613738112 0.1305261922200469 0
    outer loop
      vertex 39.5 9.375 1.99
      vertex 39.43185165257814 8.857361909794959 3
      vertex 39.5 9.375 3
    endloop
  endfacet
  facet normal -0.3826834323650906 -0.9238795325112865 0
    outer loop
      vertex 38.01763809020504 11.306851652578137 1.99
      vertex 38.5 11.107050807568877 3
      vertex 38.01763809020504 11.306851652578137 3
    endloop
  endfacet
  facet normal -0.7933533402912353 -0.6087614290087205 0
    outer loop
      vertex 38.91421356237309 10.789213562373096 1.99
      vertex 39.232050807568875 10.375 3
      vertex 38.91421356237309 10.789213562373096 3
    endloop
  endfacet
  facet normal -0.3826834323650906 -0.9238795325112865 2.1815802658118987e-18
    outer loop
      vertex 38.01763809020504 11.306851652578137 1.99
      vertex 38.5 11.107050807568877 1.99
      vertex 38.5 11.107050807568877 3
    endloop
  endfacet
  facet normal -0.6087614290087217 -0.7933533402912345 -1.357139256859679e-17
    outer loop
      vertex 38.5 11.107050807568877 1.99
      vertex 38.91421356237309 10.789213562373096 1.99
      vertex 38.91421356237309 10.789213562373096 3
    endloop
  endfacet
  facet normal -0.6087614290087217 -0.7933533402912345 0
    outer loop
      vertex 38.5 11.107050807568877 1.99
      vertex 38.91421356237309 10.789213562373096 3
      vertex 38.5 11.107050807568877 3
    endloop
  endfacet
  facet normal -0.9914448613738112 -0.1305261922200469 0
    outer loop
      vertex 39.5 9.375 1.99
      vertex 39.5 9.375 3
      vertex 39.43185165257814 9.892638090205041 1.99
    endloop
  endfacet
  facet normal -0.9914448613738112 -0.1305261922200469 0
    outer loop
      vertex 39.43185165257814 9.892638090205041 1.99
      vertex 39.5 9.375 3
      vertex 39.43185165257814 9.892638090205041 3
    endloop
  endfacet
  facet normal -0.9238795325112835 -0.3826834323650976 0
    outer loop
      vertex 39.43185165257814 9.892638090205041 1.99
      vertex 39.43185165257814 9.892638090205041 3
      vertex 39.232050807568875 10.375 1.99
    endloop
  endfacet
  facet normal -0.9238795325112835 -0.3826834323650976 0
    outer loop
      vertex 39.232050807568875 10.375 1.99
      vertex 39.43185165257814 9.892638090205041 3
      vertex 39.232050807568875 10.375 3
    endloop
  endfacet
  facet normal -0.7933533402912353 -0.6087614290087205 0
    outer loop
      vertex 39.232050807568875 10.375 1.99
      vertex 39.232050807568875 10.375 3
      vertex 38.91421356237309 10.789213562373096 1.99
    endloop
  endfacet
  facet normal -0.13052619222005069 -0.9914448613738105 2.666057561220009e-18
    outer loop
      vertex 37.5 11.375 1.99
      vertex 38.01763809020504 11.306851652578137 1.99
      vertex 38.01763809020504 11.306851652578137 3
    endloop
  endfacet
  facet normal -0.13052619222005069 -0.9914448613738105 0
    outer loop
      vertex 37.5 11.375 1.99
      vertex 38.01763809020504 11.306851652578137 3
      vertex 37.5 11.375 3
    endloop
  endfacet
  facet normal 0.5633902913547422 0.43230457532182476 -0.7040625922196374
    outer loop
      vertex 35.767949192431125 8.375 1.99
      vertex 34.67864394306567 6.553643943065675 0
      vertex 34.044558638900085 7.38 0
    endloop
  endfacet
  facet normal 0.4323045753218225 0.5633902913547445 -0.7040625922196371
    outer loop
      vertex 36.08578643762691 7.960786437626905 1.99
      vertex 35.505 5.91955863890009 0
      vertex 34.67864394306567 6.553643943065675 0
    endloop
  endfacet
  facet normal 0.27175801689781115 0.6560818900783155 -0.7040625922196363
    outer loop
      vertex 36.5 7.642949192431123 1.99
      vertex 36.46731201004095 5.5209559531066175 0
      vertex 35.505 5.91955863890009 0
    endloop
  endfacet
  facet normal 0.09269159872357213 0.7040625922196365 -0.7040625922196365
    outer loop
      vertex 36.98236190979496 7.443148347421864 1.99
      vertex 37.5 5.385 0
      vertex 36.46731201004095 5.5209559531066175 0
    endloop
  endfacet
  facet normal 0.27175801689781187 0.6560818900783155 -0.7040625922196363
    outer loop
      vertex 36.98236190979496 7.443148347421864 1.99
      vertex 36.46731201004095 5.5209559531066175 0
      vertex 36.5 7.642949192431123 1.99
    endloop
  endfacet
  facet normal 0.432304575321826 0.5633902913547427 -0.7040625922196363
    outer loop
      vertex 36.08578643762691 7.960786437626905 1.99
      vertex 36.5 7.642949192431123 1.99
      vertex 35.505 5.91955863890009 0
    endloop
  endfacet
  facet normal 0.09269159872357191 0.7040625922196365 -0.7040625922196366
    outer loop
      vertex 36.98236190979496 7.443148347421864 1.99
      vertex 37.5 7.375 1.99
      vertex 37.5 5.385 0
    endloop
  endfacet
  facet normal 0.7040625922196359 0.09269159872357567 -0.7040625922196366
    outer loop
      vertex 35.5 9.375 1.99
      vertex 33.64595595310662 8.342312010040942 0
      vertex 33.51 9.375 0
    endloop
  endfacet
  facet normal 0.7040625922196371 -0.0926915987235757 -0.7040625922196356
    outer loop
      vertex 35.56814834742186 9.892638090205041 1.99
      vertex 33.51 9.375 0
      vertex 33.64595595310662 10.407687989959058 0
    endloop
  endfacet
  facet normal 0.6560818900783177 0.27175801689780726 -0.7040625922196359
    outer loop
      vertex 35.56814834742186 8.857361909794959 1.99
      vertex 34.044558638900085 7.38 0
      vertex 33.64595595310662 8.342312010040942 0
    endloop
  endfacet
  facet normal 0.6560818900783113 0.27175801689781726 -0.7040625922196382
    outer loop
      vertex 35.767949192431125 8.375 1.99
      vertex 34.044558638900085 7.38 0
      vertex 35.56814834742186 8.857361909794959 1.99
    endloop
  endfacet
  facet normal 0.5633902913547425 0.4323045753218243 -0.7040625922196374
    outer loop
      vertex 36.08578643762691 7.960786437626905 1.99
      vertex 34.67864394306567 6.553643943065675 0
      vertex 35.767949192431125 8.375 1.99
    endloop
  endfacet
  facet normal 0.7040625922196384 0.09269159872356822 -0.7040625922196351
    outer loop
      vertex 35.56814834742186 8.857361909794959 1.99
      vertex 33.64595595310662 8.342312010040942 0
      vertex 35.5 9.375 1.99
    endloop
  endfacet
  facet normal 0.7040625922196365 -0.09269159872356797 -0.7040625922196372
    outer loop
      vertex 35.5 9.375 1.99
      vertex 33.51 9.375 0
      vertex 35.56814834742186 9.892638090205041 1.99
    endloop
  endfacet
  facet normal 0.6560818900783141 -0.27175801689781837 -0.704062592219635
    outer loop
      vertex 35.56814834742186 9.892638090205041 1.99
      vertex 33.64595595310662 10.407687989959058 0
      vertex 35.767949192431125 10.375 1.99
    endloop
  endfacet
  facet normal 0.6560818900783164 -0.27175801689780704 -0.7040625922196372
    outer loop
      vertex 35.767949192431125 10.375 1.99
      vertex 33.64595595310662 10.407687989959058 0
      vertex 34.044558638900085 11.37 0
    endloop
  endfacet
  facet normal 0.563390291354743 -0.4323045753218237 -0.7040625922196375
    outer loop
      vertex 35.767949192431125 10.375 1.99
      vertex 34.044558638900085 11.37 0
      vertex 36.08578643762691 10.789213562373096 1.99
    endloop
  endfacet
  facet normal 0.5633902913547424 -0.43230457532182487 -0.7040625922196372
    outer loop
      vertex 36.08578643762691 10.789213562373096 1.99
      vertex 34.044558638900085 11.37 0
      vertex 34.67864394306567 12.196356056934324 0
    endloop
  endfacet
  facet normal 0.43230457532182476 -0.5633902913547427 -0.704062592219637
    outer loop
      vertex 36.08578643762691 10.789213562373096 1.99
      vertex 34.67864394306567 12.196356056934324 0
      vertex 36.5 11.107050807568877 1.99
    endloop
  endfacet
  facet normal 0.43230457532182287 -0.5633902913547449 -0.7040625922196364
    outer loop
      vertex 36.5 11.107050807568877 1.99
      vertex 34.67864394306567 12.196356056934324 0
      vertex 35.505 12.83044136109991 0
    endloop
  endfacet
  facet normal 0.2717580168978128 -0.6560818900783149 -0.7040625922196364
    outer loop
      vertex 36.5 11.107050807568877 1.99
      vertex 35.505 12.83044136109991 0
      vertex 36.98236190979496 11.306851652578137 1.99
    endloop
  endfacet
  facet normal 0.09269159872357079 -0.7040625922196371 -0.7040625922196361
    outer loop
      vertex 36.98236190979496 11.306851652578137 1.99
      vertex 36.46731201004095 13.229044046893382 0
      vertex 37.5 11.375 1.99
    endloop
  endfacet
  facet normal 0.2717580168978112 -0.6560818900783159 -0.7040625922196361
    outer loop
      vertex 36.98236190979496 11.306851652578137 1.99
      vertex 35.505 12.83044136109991 0
      vertex 36.46731201004095 13.229044046893382 0
    endloop
  endfacet
  facet normal 0.09269159872357274 -0.7040625922196363 -0.7040625922196365
    outer loop
      vertex 37.5 11.375 1.99
      vertex 36.46731201004095 13.229044046893382 0
      vertex 37.5 13.365 0
    endloop
  endfacet
  facet normal -0.09269159872357213 0.7040625922196363 -0.7040625922196365
    outer loop
      vertex 37.5 7.375 1.99
      vertex 38.53268798995905 5.5209559531066175 0
      vertex 37.5 5.385 0
    endloop
  endfacet
  facet normal -0.2717580168978112 0.6560818900783157 -0.7040625922196364
    outer loop
      vertex 38.01763809020504 7.443148347421864 1.99
      vertex 39.495 5.91955863890009 0
      vertex 38.53268798995905 5.5209559531066175 0
    endloop
  endfacet
  facet normal -0.09269159872357191 0.7040625922196365 -0.7040625922196365
    outer loop
      vertex 37.5 7.375 1.99
      vertex 38.01763809020504 7.443148347421864 1.99
      vertex 38.53268798995905 5.5209559531066175 0
    endloop
  endfacet
  facet normal -0.2717580168978118 0.6560818900783153 -0.7040625922196365
    outer loop
      vertex 38.01763809020504 7.443148347421864 1.99
      vertex 38.5 7.642949192431123 1.99
      vertex 39.495 5.91955863890009 0
    endloop
  endfacet
  facet normal -0.4323045753218228 0.5633902913547449 -0.7040625922196365
    outer loop
      vertex 38.5 7.642949192431123 1.99
      vertex 40.32135605693433 6.553643943065675 0
      vertex 39.495 5.91955863890009 0
    endloop
  endfacet
  facet normal -0.4323045753218253 0.563390291354742 -0.7040625922196372
    outer loop
      vertex 38.5 7.642949192431123 1.99
      vertex 38.91421356237309 7.960786437626905 1.99
      vertex 40.32135605693433 6.553643943065675 0
    endloop
  endfacet
  facet normal -0.5633902913547422 0.43230457532182476 -0.7040625922196374
    outer loop
      vertex 38.91421356237309 7.960786437626905 1.99
      vertex 40.955441361099915 7.38 0
      vertex 40.32135605693433 6.553643943065675 0
    endloop
  endfacet
  facet normal -0.5633902913547425 0.4323045753218242 -0.7040625922196375
    outer loop
      vertex 38.91421356237309 7.960786437626905 1.99
      vertex 39.232050807568875 8.375 1.99
      vertex 40.955441361099915 7.38 0
    endloop
  endfacet
  facet normal -0.6560818900783165 0.2717580168978068 -0.7040625922196373
    outer loop
      vertex 39.232050807568875 8.375 1.99
      vertex 41.35404404689338 8.342312010040942 0
      vertex 40.955441361099915 7.38 0
    endloop
  endfacet
  facet normal -0.6560818900783141 0.27175801689781837 -0.704062592219635
    outer loop
      vertex 39.232050807568875 8.375 1.99
      vertex 39.43185165257814 8.857361909794959 1.99
      vertex 41.35404404689338 8.342312010040942 0
    endloop
  endfacet
  facet normal -0.7040625922196365 0.09269159872356797 -0.7040625922196371
    outer loop
      vertex 39.43185165257814 8.857361909794959 1.99
      vertex 39.5 9.375 1.99
      vertex 41.49 9.375 0
    endloop
  endfacet
  facet normal -0.7040625922196384 -0.09269159872356822 -0.7040625922196351
    outer loop
      vertex 39.5 9.375 1.99
      vertex 39.43185165257814 9.892638090205041 1.99
      vertex 41.35404404689338 10.407687989959058 0
    endloop
  endfacet
  facet normal -0.5633902913547433 -0.43230457532182387 -0.7040625922196372
    outer loop
      vertex 39.232050807568875 10.375 1.99
      vertex 38.91421356237309 10.789213562373096 1.99
      vertex 40.32135605693433 12.196356056934324 0
    endloop
  endfacet
  facet normal -0.6560818900783177 -0.2717580168978075 -0.7040625922196359
    outer loop
      vertex 39.43185165257814 9.892638090205041 1.99
      vertex 40.955441361099915 11.37 0
      vertex 41.35404404689338 10.407687989959058 0
    endloop
  endfacet
  facet normal -0.6560818900783113 -0.27175801689781726 -0.7040625922196382
    outer loop
      vertex 39.43185165257814 9.892638090205041 1.99
      vertex 39.232050807568875 10.375 1.99
      vertex 40.955441361099915 11.37 0
    endloop
  endfacet
  facet normal -0.7040625922196371 0.0926915987235757 -0.7040625922196356
    outer loop
      vertex 39.43185165257814 8.857361909794959 1.99
      vertex 41.49 9.375 0
      vertex 41.35404404689338 8.342312010040942 0
    endloop
  endfacet
  facet normal -0.7040625922196359 -0.09269159872357567 -0.7040625922196366
    outer loop
      vertex 39.5 9.375 1.99
      vertex 41.35404404689338 10.407687989959058 0
      vertex 41.49 9.375 0
    endloop
  endfacet
  facet normal -0.09269159872357072 -0.7040625922196365 -0.7040625922196366
    outer loop
      vertex 37.5 11.375 1.99
      vertex 37.5 13.365 0
      vertex 38.01763809020504 11.306851652578137 1.99
    endloop
  endfacet
  facet normal -0.4323045753218252 -0.5633902913547434 -0.7040625922196362
    outer loop
      vertex 38.5 11.107050807568877 1.99
      vertex 39.495 12.83044136109991 0
      vertex 38.91421356237309 10.789213562373096 1.99
    endloop
  endfacet
  facet normal -0.27175801689781304 -0.6560818900783154 -0.7040625922196359
    outer loop
      vertex 38.01763809020504 11.306851652578137 1.99
      vertex 38.53268798995905 13.229044046893382 0
      vertex 38.5 11.107050807568877 1.99
    endloop
  endfacet
  facet normal -0.09269159872357277 -0.7040625922196366 -0.7040625922196362
    outer loop
      vertex 38.01763809020504 11.306851652578137 1.99
      vertex 37.5 13.365 0
      vertex 38.53268798995905 13.229044046893382 0
    endloop
  endfacet
  facet normal -0.2717580168978112 -0.6560818900783157 -0.7040625922196362
    outer loop
      vertex 38.5 11.107050807568877 1.99
      vertex 38.53268798995905 13.229044046893382 0
      vertex 39.495 12.83044136109991 0
    endloop
  endfacet
  facet normal -0.4323045753218227 -0.5633902913547447 -0.7040625922196369
    outer loop
      vertex 38.91421356237309 10.789213562373096 1.99
      vertex 39.495 12.83044136109991 0
      vertex 40.32135605693433 12.196356056934324 0
    endloop
  endfacet
  facet normal -0.5633902913547423 -0.4323045753218248 -0.7040625922196374
    outer loop
      vertex 39.232050807568875 10.375 1.99
      vertex 40.32135605693433 12.196356056934324 0
      vertex 40.955441361099915 11.37 0
    endloop
  endfacet
  facet normal -7.24603811400245e-19 0.9914448613738103 0.13052619222005235
    outer loop
      vertex 1.99 7.443148347421864 36.98236190979496
      vertex 1.99 7.375 37.5
      vertex 3 7.375 37.5
    endloop
  endfacet
  facet normal 0 0.9914448613738103 0.13052619222005235
    outer loop
      vertex 1.99 7.443148347421864 36.98236190979496
      vertex 3 7.375 37.5
      vertex 3 7.443148347421864 36.98236190979496
    endloop
  endfacet
  facet normal 7.24603811400245e-19 0.9914448613738103 -0.13052619222005235
    outer loop
      vertex 1.99 7.375 37.5
      vertex 1.99 7.443148347421864 38.01763809020504
      vertex 3 7.443148347421864 38.01763809020504
    endloop
  endfacet
  facet normal 0 0.9914448613738103 -0.13052619222005235
    outer loop
      vertex 1.99 7.375 37.5
      vertex 3 7.443148347421864 38.01763809020504
      vertex 3 7.375 37.5
    endloop
  endfacet
  facet normal 0 0.6087614290087213 0.7933533402912345
    outer loop
      vertex 1.99 8.375 35.767949192431125
      vertex 3 7.960786437626905 36.08578643762691
      vertex 3 8.375 35.767949192431125
    endloop
  endfacet
  facet normal 2.5650110953611177e-17 0.7933533402912335 0.6087614290087227
    outer loop
      vertex 1.99 7.960786437626905 36.08578643762691
      vertex 1.99 7.642949192431123 36.5
      vertex 3 7.642949192431123 36.5
    endloop
  endfacet
  facet normal 0 0.9238795325112871 0.38268343236508917
    outer loop
      vertex 1.99 7.443148347421864 36.98236190979496
      vertex 3 7.443148347421864 36.98236190979496
      vertex 1.99 7.642949192431123 36.5
    endloop
  endfacet
  facet normal 0 0.6087614290087213 0.7933533402912345
    outer loop
      vertex 1.99 7.960786437626905 36.08578643762691
      vertex 3 7.960786437626905 36.08578643762691
      vertex 1.99 8.375 35.767949192431125
    endloop
  endfacet
  facet normal 0 0.9238795325112871 0.38268343236508917
    outer loop
      vertex 1.99 7.642949192431123 36.5
      vertex 3 7.443148347421864 36.98236190979496
      vertex 3 7.642949192431123 36.5
    endloop
  endfacet
  facet normal 0 0.7933533402912335 0.6087614290087227
    outer loop
      vertex 1.99 7.960786437626905 36.08578643762691
      vertex 3 7.642949192431123 36.5
      vertex 3 7.960786437626905 36.08578643762691
    endloop
  endfacet
  facet normal 0 0.3826834323650976 0.9238795325112835
    outer loop
      vertex 1.99 8.375 35.767949192431125
      vertex 3 8.375 35.767949192431125
      vertex 1.99 8.857361909794959 35.56814834742186
    endloop
  endfacet
  facet normal 0 0.1305261922200469 0.9914448613738112
    outer loop
      vertex 1.99 8.857361909794959 35.56814834742186
      vertex 3 8.857361909794959 35.56814834742186
      vertex 1.99 9.375 35.5
    endloop
  endfacet
  facet normal 0 0.3826834323650976 0.9238795325112835
    outer loop
      vertex 1.99 8.857361909794959 35.56814834742186
      vertex 3 8.375 35.767949192431125
      vertex 3 8.857361909794959 35.56814834742186
    endloop
  endfacet
  facet normal 0 0.1305261922200469 0.9914448613738112
    outer loop
      vertex 1.99 9.375 35.5
      vertex 3 8.857361909794959 35.56814834742186
      vertex 3 9.375 35.5
    endloop
  endfacet
  facet normal 0 -0.1305261922200469 0.9914448613738112
    outer loop
      vertex 1.99 9.375 35.5
      vertex 3 9.375 35.5
      vertex 1.99 9.892638090205041 35.56814834742186
    endloop
  endfacet
  facet normal 0 -0.3826834323650976 0.9238795325112835
    outer loop
      vertex 1.99 9.892638090205041 35.56814834742186
      vertex 3 9.892638090205041 35.56814834742186
      vertex 1.99 10.375 35.767949192431125
    endloop
  endfacet
  facet normal 0 -0.1305261922200469 0.9914448613738112
    outer loop
      vertex 1.99 9.892638090205041 35.56814834742186
      vertex 3 9.375 35.5
      vertex 3 9.892638090205041 35.56814834742186
    endloop
  endfacet
  facet normal 0 -0.3826834323650976 0.9238795325112835
    outer loop
      vertex 1.99 10.375 35.767949192431125
      vertex 3 9.892638090205041 35.56814834742186
      vertex 3 10.375 35.767949192431125
    endloop
  endfacet
  facet normal 0 -0.6087614290087205 0.7933533402912353
    outer loop
      vertex 1.99 10.375 35.767949192431125
      vertex 3 10.375 35.767949192431125
      vertex 1.99 10.789213562373096 36.08578643762691
    endloop
  endfacet
  facet normal 0 -0.7933533402912345 0.6087614290087217
    outer loop
      vertex 1.99 10.789213562373096 36.08578643762691
      vertex 3 10.789213562373096 36.08578643762691
      vertex 1.99 11.107050807568877 36.5
    endloop
  endfacet
  facet normal 0 -0.9238795325112865 0.3826834323650906
    outer loop
      vertex 1.99 11.107050807568877 36.5
      vertex 3 11.107050807568877 36.5
      vertex 1.99 11.306851652578137 36.98236190979496
    endloop
  endfacet
  facet normal 0 -0.6087614290087205 0.7933533402912353
    outer loop
      vertex 1.99 10.789213562373096 36.08578643762691
      vertex 3 10.375 35.767949192431125
      vertex 3 10.789213562373096 36.08578643762691
    endloop
  endfacet
  facet normal 0 -0.7933533402912345 0.6087614290087217
    outer loop
      vertex 1.99 11.107050807568877 36.5
      vertex 3 10.789213562373096 36.08578643762691
      vertex 3 11.107050807568877 36.5
    endloop
  endfacet
  facet normal 0 -0.9238795325112865 0.3826834323650906
    outer loop
      vertex 1.99 11.306851652578137 36.98236190979496
      vertex 3 11.107050807568877 36.5
      vertex 3 11.306851652578137 36.98236190979496
    endloop
  endfacet
  facet normal 0 -0.9914448613738105 0.13052619222005069
    outer loop
      vertex 1.99 11.306851652578137 36.98236190979496
      vertex 3 11.306851652578137 36.98236190979496
      vertex 1.99 11.375 37.5
    endloop
  endfacet
  facet normal 0 -0.9914448613738105 0.13052619222005069
    outer loop
      vertex 1.99 11.375 37.5
      vertex 3 11.306851652578137 36.98236190979496
      vertex 3 11.375 37.5
    endloop
  endfacet
  facet normal 1.2090811068083303e-18 0.9238795325112871 -0.38268343236508917
    outer loop
      vertex 1.99 7.443148347421864 38.01763809020504
      vertex 1.99 7.642949192431123 38.5
      vertex 3 7.642949192431123 38.5
    endloop
  endfacet
  facet normal -2.5650110953611177e-17 0.7933533402912335 -0.6087614290087227
    outer loop
      vertex 1.99 7.642949192431123 38.5
      vertex 1.99 7.960786437626905 38.91421356237309
      vertex 3 7.960786437626905 38.91421356237309
    endloop
  endfacet
  facet normal 0 0.9238795325112871 -0.38268343236508917
    outer loop
      vertex 1.99 7.443148347421864 38.01763809020504
      vertex 3 7.642949192431123 38.5
      vertex 3 7.443148347421864 38.01763809020504
    endloop
  endfacet
  facet normal 0 0.7933533402912335 -0.6087614290087227
    outer loop
      vertex 1.99 7.642949192431123 38.5
      vertex 3 7.960786437626905 38.91421356237309
      vertex 3 7.642949192431123 38.5
    endloop
  endfacet
  facet normal 0 0.6087614290087213 -0.7933533402912345
    outer loop
      vertex 1.99 7.960786437626905 38.91421356237309
      vertex 3 8.375 39.232050807568875
      vertex 3 7.960786437626905 38.91421356237309
    endloop
  endfacet
  facet normal 1.4731644661718094e-17 0.6087614290087213 -0.7933533402912345
    outer loop
      vertex 1.99 7.960786437626905 38.91421356237309
      vertex 1.99 8.375 39.232050807568875
      vertex 3 8.375 39.232050807568875
    endloop
  endfacet
  facet normal -4.546432537216774e-18 0.3826834323650976 -0.9238795325112835
    outer loop
      vertex 1.99 8.375 39.232050807568875
      vertex 1.99 8.857361909794959 39.43185165257814
      vertex 3 8.857361909794959 39.43185165257814
    endloop
  endfacet
  facet normal -3.578927496092081e-18 0.1305261922200469 -0.9914448613738112
    outer loop
      vertex 1.99 8.857361909794959 39.43185165257814
      vertex 1.99 9.375 39.5
      vertex 3 9.375 39.5
    endloop
  endfacet
  facet normal 0 0.3826834323650976 -0.9238795325112835
    outer loop
      vertex 1.99 8.375 39.232050807568875
      vertex 3 8.857361909794959 39.43185165257814
      vertex 3 8.375 39.232050807568875
    endloop
  endfacet
  facet normal 0 0.1305261922200469 -0.9914448613738112
    outer loop
      vertex 1.99 8.857361909794959 39.43185165257814
      vertex 3 9.375 39.5
      vertex 3 8.857361909794959 39.43185165257814
    endloop
  endfacet
  facet normal 3.578927496092081e-18 -0.1305261922200469 -0.9914448613738112
    outer loop
      vertex 1.99 9.375 39.5
      vertex 1.99 9.892638090205041 39.43185165257814
      vertex 3 9.892638090205041 39.43185165257814
    endloop
  endfacet
  facet normal 4.546432537216774e-18 -0.3826834323650976 -0.9238795325112835
    outer loop
      vertex 1.99 9.892638090205041 39.43185165257814
      vertex 1.99 10.375 39.232050807568875
      vertex 3 10.375 39.232050807568875
    endloop
  endfacet
  facet normal 0 -0.1305261922200469 -0.9914448613738112
    outer loop
      vertex 1.99 9.375 39.5
      vertex 3 9.892638090205041 39.43185165257814
      vertex 3 9.375 39.5
    endloop
  endfacet
  facet normal 0 -0.3826834323650976 -0.9238795325112835
    outer loop
      vertex 1.99 9.892638090205041 39.43185165257814
      vertex 3 10.375 39.232050807568875
      vertex 3 9.892638090205041 39.43185165257814
    endloop
  endfacet
  facet normal -2.3721202643888312e-17 -0.6087614290087205 -0.7933533402912353
    outer loop
      vertex 1.99 10.375 39.232050807568875
      vertex 1.99 10.789213562373096 38.91421356237309
      vertex 3 10.789213562373096 38.91421356237309
    endloop
  endfacet
  facet normal 0 -0.9238795325112865 -0.3826834323650906
    outer loop
      vertex 1.99 11.306851652578137 38.01763809020504
      vertex 3 11.306851652578137 38.01763809020504
      vertex 1.99 11.107050807568877 38.5
    endloop
  endfacet
  facet normal 0 -0.7933533402912345 -0.6087614290087217
    outer loop
      vertex 1.99 11.107050807568877 38.5
      vertex 3 11.107050807568877 38.5
      vertex 1.99 10.789213562373096 38.91421356237309
    endloop
  endfacet
  facet normal 0 -0.7933533402912345 -0.6087614290087217
    outer loop
      vertex 1.99 10.789213562373096 38.91421356237309
      vertex 3 11.107050807568877 38.5
      vertex 3 10.789213562373096 38.91421356237309
    endloop
  endfacet
  facet normal 0 -0.9238795325112865 -0.3826834323650906
    outer loop
      vertex 1.99 11.107050807568877 38.5
      vertex 3 11.306851652578137 38.01763809020504
      vertex 3 11.107050807568877 38.5
    endloop
  endfacet
  facet normal 0 -0.6087614290087205 -0.7933533402912353
    outer loop
      vertex 1.99 10.375 39.232050807568875
      vertex 3 10.789213562373096 38.91421356237309
      vertex 3 10.375 39.232050807568875
    endloop
  endfacet
  facet normal 0 -0.9914448613738105 -0.13052619222005069
    outer loop
      vertex 1.99 11.375 37.5
      vertex 3 11.375 37.5
      vertex 1.99 11.306851652578137 38.01763809020504
    endloop
  endfacet
  facet normal 0 -0.9914448613738105 -0.13052619222005069
    outer loop
      vertex 1.99 11.306851652578137 38.01763809020504
      vertex 3 11.375 37.5
      vertex 3 11.306851652578137 38.01763809020504
    endloop
  endfacet
  facet normal -0.7040625922196365 0.7040625922196363 0.09269159872357212
    outer loop
      vertex 1.99 7.375 37.5
      vertex 0 5.5209559531066175 36.46731201004095
      vertex 0 5.385 37.5
    endloop
  endfacet
  facet normal -0.7040625922196363 0.6560818900783157 0.27175801689781115
    outer loop
      vertex 1.99 7.443148347421864 36.98236190979496
      vertex 0 5.91955863890009 35.505
      vertex 0 5.5209559531066175 36.46731201004095
    endloop
  endfacet
  facet normal -0.7040625922196365 0.5633902913547449 0.4323045753218228
    outer loop
      vertex 1.99 7.642949192431123 36.5
      vertex 0 6.553643943065675 34.67864394306567
      vertex 0 5.91955863890009 35.505
    endloop
  endfacet
  facet normal -0.7040625922196374 0.43230457532182476 0.5633902913547423
    outer loop
      vertex 1.99 7.960786437626905 36.08578643762691
      vertex 0 7.38 34.044558638900085
      vertex 0 6.553643943065675 34.67864394306567
    endloop
  endfacet
  facet normal -0.7040625922196372 0.563390291354742 0.4323045753218253
    outer loop
      vertex 1.99 7.960786437626905 36.08578643762691
      vertex 0 6.553643943065675 34.67864394306567
      vertex 1.99 7.642949192431123 36.5
    endloop
  endfacet
  facet normal -0.7040625922196365 0.6560818900783153 0.2717580168978118
    outer loop
      vertex 1.99 7.443148347421864 36.98236190979496
      vertex 1.99 7.642949192431123 36.5
      vertex 0 5.91955863890009 35.505
    endloop
  endfacet
  facet normal -0.7040625922196365 0.7040625922196365 0.09269159872357191
    outer loop
      vertex 1.99 7.443148347421864 36.98236190979496
      vertex 0 5.5209559531066175 36.46731201004095
      vertex 1.99 7.375 37.5
    endloop
  endfacet
  facet normal -0.7040625922196365 0.7040625922196365 -0.09269159872357204
    outer loop
      vertex 1.99 7.443148347421864 38.01763809020504
      vertex 0 5.385 37.5
      vertex 0 5.5209559531066175 38.53268798995905
    endloop
  endfacet
  facet normal -0.7040625922196364 0.6560818900783155 -0.2717580168978112
    outer loop
      vertex 1.99 7.642949192431123 38.5
      vertex 0 5.5209559531066175 38.53268798995905
      vertex 0 5.91955863890009 39.495
    endloop
  endfacet
  facet normal -0.7040625922196365 0.7040625922196364 -0.0926915987235719
    outer loop
      vertex 1.99 7.375 37.5
      vertex 0 5.385 37.5
      vertex 1.99 7.443148347421864 38.01763809020504
    endloop
  endfacet
  facet normal -0.7040625922196363 0.6560818900783155 -0.27175801689781187
    outer loop
      vertex 1.99 7.443148347421864 38.01763809020504
      vertex 0 5.5209559531066175 38.53268798995905
      vertex 1.99 7.642949192431123 38.5
    endloop
  endfacet
  facet normal -0.7040625922196363 0.5633902913547427 -0.432304575321826
    outer loop
      vertex 1.99 7.642949192431123 38.5
      vertex 0 5.91955863890009 39.495
      vertex 1.99 7.960786437626905 38.91421356237309
    endloop
  endfacet
  facet normal -0.704062592219637 0.5633902913547445 -0.4323045753218224
    outer loop
      vertex 1.99 7.960786437626905 38.91421356237309
      vertex 0 5.91955863890009 39.495
      vertex 0 6.553643943065675 40.32135605693433
    endloop
  endfacet
  facet normal -0.7040625922196374 0.43230457532182476 -0.5633902913547422
    outer loop
      vertex 1.99 8.375 39.232050807568875
      vertex 0 6.553643943065675 40.32135605693433
      vertex 0 7.38 40.955441361099915
    endloop
  endfacet
  facet normal -0.7040625922196356 0.0926915987235758 0.7040625922196369
    outer loop
      vertex 1.99 8.857361909794959 35.56814834742186
      vertex 0 9.375 33.51
      vertex 0 8.342312010040942 33.64595595310662
    endloop
  endfacet
  facet normal -0.7040625922196373 0.27175801689780665 0.6560818900783165
    outer loop
      vertex 1.99 8.375 35.767949192431125
      vertex 0 8.342312010040942 33.64595595310662
      vertex 0 7.38 34.044558638900085
    endloop
  endfacet
  facet normal -0.7040625922196375 0.4323045753218242 0.5633902913547425
    outer loop
      vertex 1.99 7.960786437626905 36.08578643762691
      vertex 1.99 8.375 35.767949192431125
      vertex 0 7.38 34.044558638900085
    endloop
  endfacet
  facet normal -0.704062592219635 0.27175801689781837 0.6560818900783141
    outer loop
      vertex 1.99 8.375 35.767949192431125
      vertex 1.99 8.857361909794959 35.56814834742186
      vertex 0 8.342312010040942 33.64595595310662
    endloop
  endfacet
  facet normal -0.7040625922196372 0.09269159872356797 0.7040625922196365
    outer loop
      vertex 1.99 8.857361909794959 35.56814834742186
      vertex 1.99 9.375 35.5
      vertex 0 9.375 33.51
    endloop
  endfacet
  facet normal -0.7040625922196366 -0.09269159872357552 0.7040625922196359
    outer loop
      vertex 1.99 9.375 35.5
      vertex 0 10.407687989959058 33.64595595310662
      vertex 0 9.375 33.51
    endloop
  endfacet
  facet normal -0.7040625922196351 -0.09269159872356822 0.7040625922196384
    outer loop
      vertex 1.99 9.375 35.5
      vertex 1.99 9.892638090205041 35.56814834742186
      vertex 0 10.407687989959058 33.64595595310662
    endloop
  endfacet
  facet normal -0.7040625922196359 -0.27175801689780743 0.6560818900783179
    outer loop
      vertex 1.99 9.892638090205041 35.56814834742186
      vertex 0 11.37 34.044558638900085
      vertex 0 10.407687989959058 33.64595595310662
    endloop
  endfacet
  facet normal -0.7040625922196382 -0.27175801689781726 0.6560818900783113
    outer loop
      vertex 1.99 9.892638090205041 35.56814834742186
      vertex 1.99 10.375 35.767949192431125
      vertex 0 11.37 34.044558638900085
    endloop
  endfacet
  facet normal -0.7040625922196372 -0.43230457532182387 0.5633902913547433
    outer loop
      vertex 1.99 10.375 35.767949192431125
      vertex 1.99 10.789213562373096 36.08578643762691
      vertex 0 12.196356056934324 34.67864394306567
    endloop
  endfacet
  facet normal -0.7040625922196374 -0.4323045753218248 0.5633902913547423
    outer loop
      vertex 1.99 10.375 35.767949192431125
      vertex 0 12.196356056934324 34.67864394306567
      vertex 0 11.37 34.044558638900085
    endloop
  endfacet
  facet normal -0.7040625922196369 -0.5633902913547447 0.4323045753218226
    outer loop
      vertex 1.99 10.789213562373096 36.08578643762691
      vertex 0 12.83044136109991 35.505
      vertex 0 12.196356056934324 34.67864394306567
    endloop
  endfacet
  facet normal -0.7040625922196362 -0.5633902913547434 0.4323045753218252
    outer loop
      vertex 1.99 10.789213562373096 36.08578643762691
      vertex 1.99 11.107050807568877 36.5
      vertex 0 12.83044136109991 35.505
    endloop
  endfacet
  facet normal -0.7040625922196359 -0.6560818900783154 0.27175801689781304
    outer loop
      vertex 1.99 11.107050807568877 36.5
      vertex 1.99 11.306851652578137 36.98236190979496
      vertex 0 13.229044046893382 36.46731201004095
    endloop
  endfacet
  facet normal -0.7040625922196366 -0.7040625922196365 0.09269159872357072
    outer loop
      vertex 1.99 11.306851652578137 36.98236190979496
      vertex 1.99 11.375 37.5
      vertex 0 13.365 37.5
    endloop
  endfacet
  facet normal -0.7040625922196362 -0.6560818900783156 0.27175801689781126
    outer loop
      vertex 1.99 11.107050807568877 36.5
      vertex 0 13.229044046893382 36.46731201004095
      vertex 0 12.83044136109991 35.505
    endloop
  endfacet
  facet normal -0.7040625922196362 -0.7040625922196366 0.09269159872357266
    outer loop
      vertex 1.99 11.306851652578137 36.98236190979496
      vertex 0 13.365 37.5
      vertex 0 13.229044046893382 36.46731201004095
    endloop
  endfacet
  facet normal -0.7040625922196357 0.2717580168978072 -0.6560818900783179
    outer loop
      vertex 1.99 8.857361909794959 39.43185165257814
      vertex 0 7.38 40.955441361099915
      vertex 0 8.342312010040942 41.35404404689338
    endloop
  endfacet
  facet normal -0.7040625922196374 0.4323045753218243 -0.5633902913547425
    outer loop
      vertex 1.99 7.960786437626905 38.91421356237309
      vertex 0 6.553643943065675 40.32135605693433
      vertex 1.99 8.375 39.232050807568875
    endloop
  endfacet
  facet normal -0.7040625922196382 0.27175801689781726 -0.6560818900783113
    outer loop
      vertex 1.99 8.375 39.232050807568875
      vertex 0 7.38 40.955441361099915
      vertex 1.99 8.857361909794959 39.43185165257814
    endloop
  endfacet
  facet normal -0.7040625922196351 0.09269159872356822 -0.7040625922196384
    outer loop
      vertex 1.99 8.857361909794959 39.43185165257814
      vertex 0 8.342312010040942 41.35404404689338
      vertex 1.99 9.375 39.5
    endloop
  endfacet
  facet normal -0.7040625922196366 0.09269159872357552 -0.7040625922196359
    outer loop
      vertex 1.99 9.375 39.5
      vertex 0 8.342312010040942 41.35404404689338
      vertex 0 9.375 41.49
    endloop
  endfacet
  facet normal -0.7040625922196372 -0.09269159872356797 -0.7040625922196365
    outer loop
      vertex 1.99 9.375 39.5
      vertex 0 9.375 41.49
      vertex 1.99 9.892638090205041 39.43185165257814
    endloop
  endfacet
  facet normal -0.704062592219635 -0.27175801689781837 -0.6560818900783141
    outer loop
      vertex 1.99 9.892638090205041 39.43185165257814
      vertex 0 10.407687989959058 41.35404404689338
      vertex 1.99 10.375 39.232050807568875
    endloop
  endfacet
  facet normal -0.7040625922196372 -0.2717580168978069 -0.6560818900783164
    outer loop
      vertex 1.99 10.375 39.232050807568875
      vertex 0 10.407687989959058 41.35404404689338
      vertex 0 11.37 40.955441361099915
    endloop
  endfacet
  facet normal -0.7040625922196375 -0.4323045753218237 -0.563390291354743
    outer loop
      vertex 1.99 10.375 39.232050807568875
      vertex 0 11.37 40.955441361099915
      vertex 1.99 10.789213562373096 38.91421356237309
    endloop
  endfacet
  facet normal -0.7040625922196356 -0.0926915987235758 -0.7040625922196369
    outer loop
      vertex 1.99 9.892638090205041 39.43185165257814
      vertex 0 9.375 41.49
      vertex 0 10.407687989959058 41.35404404689338
    endloop
  endfacet
  facet normal -0.7040625922196361 -0.7040625922196371 -0.09269159872357079
    outer loop
      vertex 1.99 11.375 37.5
      vertex 1.99 11.306851652578137 38.01763809020504
      vertex 0 13.229044046893382 38.53268798995905
    endloop
  endfacet
  facet normal -0.7040625922196364 -0.6560818900783149 -0.2717580168978128
    outer loop
      vertex 1.99 11.306851652578137 38.01763809020504
      vertex 1.99 11.107050807568877 38.5
      vertex 0 12.83044136109991 39.495
    endloop
  endfacet
  facet normal -0.7040625922196372 -0.43230457532182487 -0.5633902913547424
    outer loop
      vertex 1.99 10.789213562373096 38.91421356237309
      vertex 0 11.37 40.955441361099915
      vertex 0 12.196356056934324 40.32135605693433
    endloop
  endfacet
  facet normal -0.7040625922196364 -0.5633902913547449 -0.43230457532182287
    outer loop
      vertex 1.99 11.107050807568877 38.5
      vertex 0 12.196356056934324 40.32135605693433
      vertex 0 12.83044136109991 39.495
    endloop
  endfacet
  facet normal -0.704062592219637 -0.5633902913547427 -0.43230457532182476
    outer loop
      vertex 1.99 11.107050807568877 38.5
      vertex 1.99 10.789213562373096 38.91421356237309
      vertex 0 12.196356056934324 40.32135605693433
    endloop
  endfacet
  facet normal -0.7040625922196361 -0.656081890078316 -0.27175801689781126
    outer loop
      vertex 1.99 11.306851652578137 38.01763809020504
      vertex 0 12.83044136109991 39.495
      vertex 0 13.229044046893382 38.53268798995905
    endloop
  endfacet
  facet normal -0.7040625922196365 -0.7040625922196363 -0.09269159872357273
    outer loop
      vertex 1.99 11.375 37.5
      vertex 0 13.229044046893382 38.53268798995905
      vertex 0 13.365 37.5
    endloop
  endfacet
  facet normal -1 0 0
    outer loop
      vertex 0 3 0
      vertex 0 3 3
      vertex 0 15.75 3
    endloop
  endfacet
  facet normal -1 0 0
    outer loop
      vertex 0 3 0
      vertex 0 15.75 3
      vertex 0 18.75 3
    endloop
  endfacet
  facet normal 0 0 -1
    outer loop
      vertex 0 3 0
      vertex 3 18.75 0
      vertex 3 15.75 0
    endloop
  endfacet
  facet normal 0 0 -1
    outer loop
      vertex 0 3 0
      vertex 34.67864394306567 6.553643943065675 0
      vertex 35.505 5.91955863890009 0
    endloop
  endfacet
  facet normal 0 0 -1
    outer loop
      vertex 0 3 0
      vertex 35.505 5.91955863890009 0
      vertex 36.46731201004095 5.5209559531066175 0
    endloop
  endfacet
  facet normal 0 0 1
    outer loop
      vertex 3 3 3
      vertex 36.08578643762691 7.960786437626905 3
      vertex 35.767949192431125 8.375 3
    endloop
  endfacet
  facet normal 0 0 1
    outer loop
      vertex 3 3 3
      vertex 35.767949192431125 8.375 3
      vertex 35.56814834742186 8.857361909794959 3
    endloop
  endfacet
  facet normal 0 0 1
    outer loop
      vertex 3 3 3
      vertex 35.56814834742186 8.857361909794959 3
      vertex 35.5 9.375 3
    endloop
  endfacet
  facet normal 0 0 1
    outer loop
      vertex 3 3 3
      vertex 35.5 9.375 3
      vertex 35.56814834742186 9.892638090205041 3
    endloop
  endfacet
  facet normal 0 0 -1
    outer loop
      vertex 0 3 0
      vertex 3 15.75 0
      vertex 34.67864394306567 6.553643943065675 0
    endloop
  endfacet
  facet normal 0 0 -1
    outer loop
      vertex 3 15.75 0
      vertex 13 15.75 0
      vertex 34.67864394306567 6.553643943065675 0
    endloop
  endfacet
  facet normal 0 0 1
    outer loop
      vertex 3 3 3
      vertex 50 15.75 3
      vertex 3 15.75 3
    endloop
  endfacet
  facet normal 0 0 1
    outer loop
      vertex 3 3 3
      vertex 35.56814834742186 9.892638090205041 3
      vertex 35.767949192431125 10.375 3
    endloop
  endfacet
  facet normal 0 0 1
    outer loop
      vertex 3 3 3
      vertex 35.767949192431125 10.375 3
      vertex 36.08578643762691 10.789213562373096 3
    endloop
  endfacet
  facet normal 0 0 -1
    outer loop
      vertex 13 15.75 0
      vertex 23.15299050387227 19.37481591082025 0
      vertex 33.64595595310662 8.342312010040942 0
    endloop
  endfacet
  facet normal 0 0 -1
    outer loop
      vertex 0 3 0
      vertex 0 30 0
      vertex 3 18.75 0
    endloop
  endfacet
  facet normal -1 0 0
    outer loop
      vertex 0 3 0
      vertex 0 18.75 3
      vertex 0 30 3
    endloop
  endfacet
  facet normal -1 0 0
    outer loop
      vertex 0 3 0
      vertex 0 30 3
      vertex 0 30 0
    endloop
  endfacet
  facet normal 0 0 -1
    outer loop
      vertex 3 18.75 0
      vertex 0 30 0
      vertex 13 18.75 0
    endloop
  endfacet
  facet normal 0 1 0
    outer loop
      vertex 0 30 0
      vertex 0 30 3
      vertex 15 30 0
    endloop
  endfacet
  facet normal 0 1 0
    outer loop
      vertex 0 30 3
      vertex 3 30 3
      vertex 15 30 0
    endloop
  endfacet
  facet normal 0 0 1
    outer loop
      vertex 3 18.75 3
      vertex 15.37481591082025 27.15299050387227 3
      vertex 3 30 3
    endloop
  endfacet
  facet normal 0 0 1
    outer loop
      vertex 3 18.75 3
      vertex 16.473720558371177 24.5 3
      vertex 15.37481591082025 27.15299050387227 3
    endloop
  endfacet
  facet normal 0 0 -1
    outer loop
      vertex 0 30 0
      vertex 16.473720558371177 24.5 0
      vertex 13 18.75 0
    endloop
  endfacet
  facet normal 0 0 -1
    outer loop
      vertex 0 30 0
      vertex 15.37481591082025 27.15299050387227 0
      vertex 16.473720558371177 24.5 0
    endloop
  endfacet
  facet normal 0 0 -1
    outer loop
      vertex 0 30 0
      vertex 15 30 0
      vertex 15.37481591082025 27.15299050387227 0
    endloop
  endfacet
  facet normal 0 0 1
    outer loop
      vertex 3 30 3
      vertex 15.37481591082025 27.15299050387227 3
      vertex 15 30 3
    endloop
  endfacet
  facet normal 0 1 0
    outer loop
      vertex 3 30 3
      vertex 15 30 3
      vertex 15 30 0
    endloop
  endfacet
  facet normal 0 0 -1
    outer loop
      vertex 13 15.75 0
      vertex 13 18.75 0
      vertex 23.15299050387227 19.37481591082025 0
    endloop
  endfacet
  facet normal 0 0 1
    outer loop
      vertex 3 18.75 3
      vertex 20.5 20.473720558371177 3
      vertex 18.22182540694798 22.22182540694798 3
    endloop
  endfacet
  facet normal 0 0 1
    outer loop
      vertex 3 18.75 3
      vertex 23.15299050387227 19.37481591082025 3
      vertex 20.5 20.473720558371177 3
    endloop
  endfacet
  facet normal 0 0 1
    outer loop
      vertex 3 18.75 3
      vertex 18.22182540694798 22.22182540694798 3
      vertex 16.473720558371177 24.5 3
    endloop
  endfacet
  facet normal 0 0 1
    outer loop
      vertex 3 18.75 3
      vertex 26 19 3
      vertex 23.15299050387227 19.37481591082025 3
    endloop
  endfacet
  facet normal 0 0 -1
    outer loop
      vertex 13 18.75 0
      vertex 18.22182540694798 22.22182540694798 0
      vertex 20.5 20.473720558371177 0
    endloop
  endfacet
  facet normal 0 0 -1
    outer loop
      vertex 13 18.75 0
      vertex 16.473720558371177 24.5 0
      vertex 18.22182540694798 22.22182540694798 0
    endloop
  endfacet
  facet normal 0 0 -1
    outer loop
      vertex 13 18.75 0
      vertex 20.5 20.473720558371177 0
      vertex 23.15299050387227 19.37481591082025 0
    endloop
  endfacet
  facet normal 0 0 1
    outer loop
      vertex 3 3 3
      vertex 36.98236190979496 7.443148347421864 3
      vertex 36.5 7.642949192431123 3
    endloop
  endfacet
  facet normal 0 0 1
    outer loop
      vertex 3 3 3
      vertex 36.5 7.642949192431123 3
      vertex 36.08578643762691 7.960786437626905 3
    endloop
  endfacet
  facet normal 0 0 1
    outer loop
      vertex 3 3 3
      vertex 37.5 7.375 3
      vertex 36.98236190979496 7.443148347421864 3
    endloop
  endfacet
  facet normal 0 0 -1
    outer loop
      vertex 0 3 0
      vertex 36.46731201004095 5.5209559531066175 0
      vertex 50 3 0
    endloop
  endfacet
  facet normal 0 0 1
    outer loop
      vertex 3 3 3
      vertex 50 3 3
      vertex 37.5 7.375 3
    endloop
  endfacet
  facet normal 0 0 1
    outer loop
      vertex 3 3 3
      vertex 36.08578643762691 10.789213562373096 3
      vertex 36.5 11.107050807568877 3
    endloop
  endfacet
  facet normal 0 0 1
    outer loop
      vertex 3 3 3
      vertex 36.5 11.107050807568877 3
      vertex 36.98236190979496 11.306851652578137 3
    endloop
  endfacet
  facet normal 0 0 -1
    outer loop
      vertex 13 15.75 0
      vertex 34.044558638900085 7.38 0
      vertex 34.67864394306567 6.553643943065675 0
    endloop
  endfacet
  facet normal 0 0 -1
    outer loop
      vertex 13 15.75 0
      vertex 33.64595595310662 8.342312010040942 0
      vertex 34.044558638900085 7.38 0
    endloop
  endfacet
  facet normal 0 0 1
    outer loop
      vertex 3 3 3
      vertex 36.98236190979496 11.306851652578137 3
      vertex 50 15.75 3
    endloop
  endfacet
  facet normal 0 0 -1
    outer loop
      vertex 26 19 0
      vertex 33.51 9.375 0
      vertex 33.64595595310662 8.342312010040942 0
    endloop
  endfacet
  facet normal 0 0 -1
    outer loop
      vertex 26 19 0
      vertex 33.64595595310662 10.407687989959058 0
      vertex 33.51 9.375 0
    endloop
  endfacet
  facet normal 0 0 -1
    outer loop
      vertex 28.84700949612773 19.37481591082025 0
      vertex 34.044558638900085 11.37 0
      vertex 33.64595595310662 10.407687989959058 0
    endloop
  endfacet
  facet normal 0 0 -1
    outer loop
      vertex 31.5 20.473720558371177 0
      vertex 34.67864394306567 12.196356056934324 0
      vertex 34.044558638900085 11.37 0
    endloop
  endfacet
  facet normal 0 0 -1
    outer loop
      vertex 50 3 0
      vertex 36.46731201004095 5.5209559531066175 0
      vertex 37.5 5.385 0
    endloop
  endfacet
  facet normal 0 0 -1
    outer loop
      vertex 50 3 0
      vertex 37.5 5.385 0
      vertex 38.53268798995905 5.5209559531066175 0
    endloop
  endfacet
  facet normal 0 0 -1
    outer loop
      vertex 50 3 0
      vertex 38.53268798995905 5.5209559531066175 0
      vertex 39.495 5.91955863890009 0
    endloop
  endfacet
  facet normal 0 0 -1
    outer loop
      vertex 50 3 0
      vertex 39.495 5.91955863890009 0
      vertex 40.32135605693433 6.553643943065675 0
    endloop
  endfacet
  facet normal 0 0 1
    outer loop
      vertex 50 3 3
      vertex 38.01763809020504 7.443148347421864 3
      vertex 37.5 7.375 3
    endloop
  endfacet
  facet normal 0 0 1
    outer loop
      vertex 50 3 3
      vertex 38.5 7.642949192431123 3
      vertex 38.01763809020504 7.443148347421864 3
    endloop
  endfacet
  facet normal 0 0 1
    outer loop
      vertex 50 3 3
      vertex 38.91421356237309 7.960786437626905 3
      vertex 38.5 7.642949192431123 3
    endloop
  endfacet
  facet normal 0 0 1
    outer loop
      vertex 50 3 3
      vertex 39.232050807568875 8.375 3
      vertex 38.91421356237309 7.960786437626905 3
    endloop
  endfacet
  facet normal 0 0 1
    outer loop
      vertex 50 3 3
      vertex 39.43185165257814 8.857361909794959 3
      vertex 39.232050807568875 8.375 3
    endloop
  endfacet
  facet normal 0 0 1
    outer loop
      vertex 50 3 3
      vertex 39.5 9.375 3
      vertex 39.43185165257814 8.857361909794959 3
    endloop
  endfacet
  facet normal 0 0 -1
    outer loop
      vertex 50 3 0
      vertex 40.32135605693433 6.553643943065675 0
      vertex 40.955441361099915 7.38 0
    endloop
  endfacet
  facet normal 0 0 -1
    outer loop
      vertex 50 3 0
      vertex 40.955441361099915 7.38 0
      vertex 41.35404404689338 8.342312010040942 0
    endloop
  endfacet
  facet normal 0 0 -1
    outer loop
      vertex 50 3 0
      vertex 41.35404404689338 8.342312010040942 0
      vertex 41.49 9.375 0
    endloop
  endfacet
  facet normal 0 0 1
    outer loop
      vertex 50 15.75 3
      vertex 36.98236190979496 11.306851652578137 3
      vertex 37.5 11.375 3
    endloop
  endfacet
  facet normal 0 0 1
    outer loop
      vertex 50 15.75 3
      vertex 37.5 11.375 3
      vertex 38.01763809020504 11.306851652578137 3
    endloop
  endfacet
  facet normal 0 0 1
    outer loop
      vertex 50 15.75 3
      vertex 38.01763809020504 11.306851652578137 3
      vertex 38.5 11.107050807568877 3
    endloop
  endfacet
  facet normal 0 0 1
    outer loop
      vertex 50 15.75 3
      vertex 39.232050807568875 10.375 3
      vertex 39.43185165257814 9.892638090205041 3
    endloop
  endfacet
  facet normal 0 0 1
    outer loop
      vertex 50 15.75 3
      vertex 39.43185165257814 9.892638090205041 3
      vertex 39.5 9.375 3
    endloop
  endfacet
  facet normal 0 0 1
    outer loop
      vertex 50 15.75 3
      vertex 38.5 11.107050807568877 3
      vertex 38.91421356237309 10.789213562373096 3
    endloop
  endfacet
  facet normal 0 0 1
    outer loop
      vertex 50 15.75 3
      vertex 38.91421356237309 10.789213562373096 3
      vertex 39.232050807568875 10.375 3
    endloop
  endfacet
  facet normal 0 0 1
    outer loop
      vertex 50 3 3
      vertex 50 15.75 3
      vertex 39.5 9.375 3
    endloop
  endfacet
  facet normal 1 0 0
    outer loop
      vertex 50 3 0
      vertex 50 30 0
      vertex 50 3 3
    endloop
  endfacet
  facet normal 0 0 -1
    outer loop
      vertex 50 3 0
      vertex 41.49 9.375 0
      vertex 50 30 0
    endloop
  endfacet
  facet normal 0 0 -1
    outer loop
      vertex 33.64595595310662 8.342312010040942 0
      vertex 23.15299050387227 19.37481591082025 0
      vertex 26 19 0
    endloop
  endfacet
  facet normal 0 0 -1
    outer loop
      vertex 26 19 0
      vertex 28.84700949612773 19.37481591082025 0
      vertex 33.64595595310662 10.407687989959058 0
    endloop
  endfacet
  facet normal 0 0 1
    outer loop
      vertex 3 18.75 3
      vertex 50 18.75 3
      vertex 26 19 3
    endloop
  endfacet
  facet normal 0 0 -1
    outer loop
      vertex 31.5 20.473720558371177 0
      vertex 35.505 12.83044136109991 0
      vertex 34.67864394306567 12.196356056934324 0
    endloop
  endfacet
  facet normal 0 0 -1
    outer loop
      vertex 28.84700949612773 19.37481591082025 0
      vertex 31.5 20.473720558371177 0
      vertex 34.044558638900085 11.37 0
    endloop
  endfacet
  facet normal 0 0 -1
    outer loop
      vertex 31.5 20.473720558371177 0
      vertex 33.77817459305202 22.22182540694798 0
      vertex 35.505 12.83044136109991 0
    endloop
  endfacet
  facet normal 0 0 -1
    outer loop
      vertex 35.505 12.83044136109991 0
      vertex 33.77817459305202 22.22182540694798 0
      vertex 36.46731201004095 13.229044046893382 0
    endloop
  endfacet
  facet normal 0 0 -1
    outer loop
      vertex 37.5 13.365 0
      vertex 36.46731201004095 13.229044046893382 0
      vertex 33.77817459305202 22.22182540694798 0
    endloop
  endfacet
  facet normal 0 0 -1
    outer loop
      vertex 37.5 13.365 0
      vertex 33.77817459305202 22.22182540694798 0
      vertex 38.53268798995905 13.229044046893382 0
    endloop
  endfacet
  facet normal 0 0 1
    outer loop
      vertex 50 18.75 3
      vertex 28.84700949612773 19.37481591082025 3
      vertex 26 19 3
    endloop
  endfacet
  facet normal 0 0 1
    outer loop
      vertex 50 18.75 3
      vertex 31.5 20.473720558371177 3
      vertex 28.84700949612773 19.37481591082025 3
    endloop
  endfacet
  facet normal 0 0 -1
    outer loop
      vertex 35.52627944162882 24.5 0
      vertex 38.53268798995905 13.229044046893382 0
      vertex 33.77817459305202 22.22182540694798 0
    endloop
  endfacet
  facet normal 0 0 -1
    outer loop
      vertex 50 30 0
      vertex 39.495 12.83044136109991 0
      vertex 38.53268798995905 13.229044046893382 0
    endloop
  endfacet
  facet normal 0 0 -1
    outer loop
      vertex 50 30 0
      vertex 40.32135605693433 12.196356056934324 0
      vertex 39.495 12.83044136109991 0
    endloop
  endfacet
  facet normal 0 0 1
    outer loop
      vertex 50 18.75 3
      vertex 33.77817459305202 22.22182540694798 3
      vertex 31.5 20.473720558371177 3
    endloop
  endfacet
  facet normal 0 0 1
    outer loop
      vertex 50 18.75 3
      vertex 35.52627944162882 24.5 3
      vertex 33.77817459305202 22.22182540694798 3
    endloop
  endfacet
  facet normal 0 0 -1
    outer loop
      vertex 50 30 0
      vertex 41.49 9.375 0
      vertex 41.35404404689338 10.407687989959058 0
    endloop
  endfacet
  facet normal 0 0 -1
    outer loop
      vertex 50 30 0
      vertex 41.35404404689338 10.407687989959058 0
      vertex 40.955441361099915 11.37 0
    endloop
  endfacet
  facet normal 0 0 -1
    outer loop
      vertex 50 30 0
      vertex 40.955441361099915 11.37 0
      vertex 40.32135605693433 12.196356056934324 0
    endloop
  endfacet
  facet normal 1 0 0
    outer loop
      vertex 50 3 3
      vertex 50 30 0
      vertex 50 15.75 3
    endloop
  endfacet
  facet normal 1 0 0
    outer loop
      vertex 50 15.75 3
      vertex 50 30 0
      vertex 50 18.75 3
    endloop
  endfacet
  facet normal 0 0 -1
    outer loop
      vertex 50 30 0
      vertex 38.53268798995905 13.229044046893382 0
      vertex 35.52627944162882 24.5 0
    endloop
  endfacet
  facet normal 0 0 -1
    outer loop
      vertex 50 30 0
      vertex 35.52627944162882 24.5 0
      vertex 36.625184089179754 27.15299050387227 0
    endloop
  endfacet
  facet normal 0 0 1
    outer loop
      vertex 50 30 3
      vertex 36.625184089179754 27.15299050387227 3
      vertex 35.52627944162882 24.5 3
    endloop
  endfacet
  facet normal 0 0 -1
    outer loop
      vertex 50 30 0
      vertex 36.625184089179754 27.15299050387227 0
      vertex 37 30 0
    endloop
  endfacet
  facet normal 0 0 1
    outer loop
      vertex 50 30 3
      vertex 37 30 3
      vertex 36.625184089179754 27.15299050387227 3
    endloop
  endfacet
  facet normal 0 1 0
    outer loop
      vertex 50 30 0
      vertex 37 30 0
      vertex 37 30 3
    endloop
  endfacet
  facet normal 0 0 1
    outer loop
      vertex 50 18.75 3
      vertex 50 30 3
      vertex 35.52627944162882 24.5 3
    endloop
  endfacet
  facet normal 0 1 0
    outer loop
      vertex 50 30 0
      vertex 37 30 3
      vertex 50 30 3
    endloop
  endfacet
  facet normal 1 0 0
    outer loop
      vertex 50 18.75 3
      vertex 50 30 0
      vertex 50 30 3
    endloop
  endfacet
  facet normal -1 0 0
    outer loop
      vertex 0 0 0
      vertex 0 3 3
      vertex 0 3 0
    endloop
  endfacet
  facet normal -1 0 0
    outer loop
      vertex 0 0 0
      vertex 0 3 13
      vertex 0 3 3
    endloop
  endfacet
  facet normal -1 0 0
    outer loop
      vertex 0 0 0
      vertex 0 0 13
      vertex 0 3 13
    endloop
  endfacet
  facet normal 0 -1 0
    outer loop
      vertex 0 0 0
      vertex 13 0 13
      vertex 0 0 13
    endloop
  endfacet
  facet normal 0 1 0
    outer loop
      vertex 3 3 3
      vertex 3 3 13
      vertex 13 3 13
    endloop
  endfacet
  facet normal 0 0 -1
    outer loop
      vertex 0 0 0
      vertex 0 3 0
      vertex 50 3 0
    endloop
  endfacet
  facet normal 0 -1 0
    outer loop
      vertex 0 0 0
      vertex 50 0 13
      vertex 13 0 13
    endloop
  endfacet
  facet normal 0 1 0
    outer loop
      vertex 3 3 3
      vertex 13 3 13
      vertex 50 3 13
    endloop
  endfacet
  facet normal 0 0 -1
    outer loop
      vertex 0 0 0
      vertex 50 3 0
      vertex 50 0 0
    endloop
  endfacet
  facet normal 0 -1 0
    outer loop
      vertex 0 0 0
      vertex 50 0 0
      vertex 50 0 13
    endloop
  endfacet
  facet normal 0 1 0
    outer loop
      vertex 3 3 3
      vertex 50 3 13
      vertex 50 3 3
    endloop
  endfacet
  facet normal 0 0 1
    outer loop
      vertex 13 0 13
      vertex 50 3 13
      vertex 13 3 13
    endloop
  endfacet
  facet normal 1 0 0
    outer loop
      vertex 50 0 0
      vertex 50 3 0
      vertex 50 0 13
    endloop
  endfacet
  facet normal 1 0 0
    outer loop
      vertex 50 3 0
      vertex 50 3 3
      vertex 50 0 13
    endloop
  endfacet
  facet normal 1 0 0
    outer loop
      vertex 50 3 3
      vertex 50 3 13
      vertex 50 0 13
    endloop
  endfacet
  facet normal 0 0 1
    outer loop
      vertex 13 0 13
      vertex 50 0 13
      vertex 50 3 13
    endloop
  endfacet
  facet normal -1 0 0
    outer loop
      vertex 0 0 13
      vertex 0 0 50
      vertex 0 3 13
    endloop
  endfacet
  facet normal 0 -1 0
    outer loop
      vertex 0 0 13
      vertex 13 0 13
      vertex 13 0 50
    endloop
  endfacet
  facet normal 0 1 0
    outer loop
      vertex 3 3 13
      vertex 3 3 50
      vertex 13 3 13
    endloop
  endfacet
  facet normal -1 0 0
    outer loop
      vertex 0 3 13
      vertex 0 0 50
      vertex 0 3 50
    endloop
  endfacet
  facet normal 0 -1 0
    outer loop
      vertex 0 0 13
      vertex 13 0 50
      vertex 0 0 50
    endloop
  endfacet
  facet normal 0 0 1
    outer loop
      vertex 0 0 50
      vertex 13 0 50
      vertex 0 3 50
    endloop
  endfacet
  facet normal 0 0 1
    outer loop
      vertex 0 3 50
      vertex 13 0 50
      vertex 3 3 50
    endloop
  endfacet
  facet normal 0 1 0
    outer loop
      vertex 13 3 13
      vertex 3 3 50
      vertex 13 3 50
    endloop
  endfacet
  facet normal 0 0 1
    outer loop
      vertex 3 3 50
      vertex 13 0 50
      vertex 13 3 50
    endloop
  endfacet
  facet normal 1 0 0
    outer loop
      vertex 13 0 13
      vertex 13 3 13
      vertex 13 3 50
    endloop
  endfacet
  facet normal 1 0 0
    outer loop
      vertex 13 0 13
      vertex 13 3 50
      vertex 13 0 50
    endloop
  endfacet
  facet normal -1 0 0
    outer loop
      vertex 0 3 3
      vertex 0 3 13
      vertex 0 15.75 3
    endloop
  endfacet
  facet normal 1 0 0
    outer loop
      vertex 3 3 3
      vertex 3 15.75 3
      vertex 3 3 13
    endloop
  endfacet
  facet normal -1 0 0
    outer loop
      vertex 0 3 13
      vertex 0 15.75 13
      vertex 0 15.75 3
    endloop
  endfacet
  facet normal 1 0 0
    outer loop
      vertex 3 3 13
      vertex 3 15.75 3
      vertex 3 15.75 13
    endloop
  endfacet
  facet normal 1 0 0
    outer loop
      vertex 3 3 13
      vertex 3 15.75 13
      vertex 3 7.642949192431123 36.5
    endloop
  endfacet
  facet normal -1 0 0
    outer loop
      vertex 0 3 13
      vertex 0 9.375 33.51
      vertex 0 15.75 13
    endloop
  endfacet
  facet normal -1 0 0
    outer loop
      vertex 0 15.75 13
      vertex 0 10.407687989959058 33.64595595310662
      vertex 0 18.75 13
    endloop
  endfacet
  facet normal -1 0 0
    outer loop
      vertex 0 3 13
      vertex 0 5.91955863890009 35.505
      vertex 0 6.553643943065675 34.67864394306567
    endloop
  endfacet
  facet normal -1 0 0
    outer loop
      vertex 0 3 13
      vertex 0 5.5209559531066175 36.46731201004095
      vertex 0 5.91955863890009 35.505
    endloop
  endfacet
  facet normal -1 0 0
    outer loop
      vertex 0 3 13
      vertex 0 6.553643943065675 34.67864394306567
      vertex 0 7.38 34.044558638900085
    endloop
  endfacet
  facet normal -1 0 0
    outer loop
      vertex 0 3 13
      vertex 0 7.38 34.044558638900085
      vertex 0 8.342312010040942 33.64595595310662
    endloop
  endfacet
  facet normal -1 0 0
    outer loop
      vertex 0 3 13
      vertex 0 8.342312010040942 33.64595595310662
      vertex 0 9.375 33.51
    endloop
  endfacet
  facet normal 1 0 0
    outer loop
      vertex 3 3 13
      vertex 3 7.642949192431123 36.5
      vertex 3 7.443148347421864 36.98236190979496
    endloop
  endfacet
  facet normal 1 0 0
    outer loop
      vertex 3 3 13
      vertex 3 7.443148347421864 36.98236190979496
      vertex 3 7.375 37.5
    endloop
  endfacet
  facet normal -1 0 0
    outer loop
      vertex 0 3 13
      vertex 0 3 50
      vertex 0 5.5209559531066175 36.46731201004095
    endloop
  endfacet
  facet normal 1 0 0
    outer loop
      vertex 3 3 13
      vertex 3 7.375 37.5
      vertex 3 3 50
    endloop
  endfacet
  facet normal -1 0 0
    outer loop
      vertex 0 3 50
      vertex 0 5.385 37.5
      vertex 0 5.5209559531066175 36.46731201004095
    endloop
  endfacet
  facet normal -1 0 0
    outer loop
      vertex 0 3 50
      vertex 0 5.5209559531066175 38.53268798995905
      vertex 0 5.385 37.5
    endloop
  endfacet
  facet normal -1 0 0
    outer loop
      vertex 0 3 50
      vertex 0 5.91955863890009 39.495
      vertex 0 5.5209559531066175 38.53268798995905
    endloop
  endfacet
  facet normal -1 0 0
    outer loop
      vertex 0 3 50
      vertex 0 6.553643943065675 40.32135605693433
      vertex 0 5.91955863890009 39.495
    endloop
  endfacet
  facet normal 1 0 0
    outer loop
      vertex 3 3 50
      vertex 3 7.375 37.5
      vertex 3 7.443148347421864 38.01763809020504
    endloop
  endfacet
  facet normal 1 0 0
    outer loop
      vertex 3 3 50
      vertex 3 7.443148347421864 38.01763809020504
      vertex 3 7.642949192431123 38.5
    endloop
  endfacet
  facet normal 1 0 0
    outer loop
      vertex 3 3 50
      vertex 3 7.642949192431123 38.5
      vertex 3 7.960786437626905 38.91421356237309
    endloop
  endfacet
  facet normal 1 0 0
    outer loop
      vertex 3 3 50
      vertex 3 7.960786437626905 38.91421356237309
      vertex 3 8.375 39.232050807568875
    endloop
  endfacet
  facet normal 1 0 0
    outer loop
      vertex 3 3 50
      vertex 3 8.375 39.232050807568875
      vertex 3 8.857361909794959 39.43185165257814
    endloop
  endfacet
  facet normal -1 0 0
    outer loop
      vertex 0 3 50
      vertex 0 7.38 40.955441361099915
      vertex 0 6.553643943065675 40.32135605693433
    endloop
  endfacet
  facet normal -1 0 0
    outer loop
      vertex 0 3 50
      vertex 0 8.342312010040942 41.35404404689338
      vertex 0 7.38 40.955441361099915
    endloop
  endfacet
  facet normal 0 0 1
    outer loop
      vertex 0 3 50
      vertex 3 3 50
      vertex 3 15.75 50
    endloop
  endfacet
  facet normal 1 0 0
    outer loop
      vertex 3 15.75 13
      vertex 3 8.857361909794959 35.56814834742186
      vertex 3 8.375 35.767949192431125
    endloop
  endfacet
  facet normal 1 0 0
    outer loop
      vertex 3 15.75 13
      vertex 3 7.960786437626905 36.08578643762691
      vertex 3 7.642949192431123 36.5
    endloop
  endfacet
  facet normal 1 0 0
    outer loop
      vertex 3 15.75 13
      vertex 3 8.375 35.767949192431125
      vertex 3 7.960786437626905 36.08578643762691
    endloop
  endfacet
  facet normal -1 0 0
    outer loop
      vertex 0 15.75 13
      vertex 0 9.375 33.51
      vertex 0 10.407687989959058 33.64595595310662
    endloop
  endfacet
  facet normal 1 0 0
    outer loop
      vertex 3 15.75 13
      vertex 3 9.375 35.5
      vertex 3 8.857361909794959 35.56814834742186
    endloop
  endfacet
  facet normal 1 0 0
    outer loop
      vertex 3 15.75 13
      vertex 3 9.892638090205041 35.56814834742186
      vertex 3 9.375 35.5
    endloop
  endfacet
  facet normal 1 0 0
    outer loop
      vertex 3 15.75 13
      vertex 3 10.375 35.767949192431125
      vertex 3 9.892638090205041 35.56814834742186
    endloop
  endfacet
  facet normal 1 0 0
    outer loop
      vertex 3 15.75 13
      vertex 3 10.789213562373096 36.08578643762691
      vertex 3 10.375 35.767949192431125
    endloop
  endfacet
  facet normal 1 0 0
    outer loop
      vertex 3 15.75 13
      vertex 3 11.107050807568877 36.5
      vertex 3 10.789213562373096 36.08578643762691
    endloop
  endfacet
  facet normal 1 0 0
    outer loop
      vertex 3 15.75 13
      vertex 3 11.306851652578137 36.98236190979496
      vertex 3 11.107050807568877 36.5
    endloop
  endfacet
  facet normal 1 0 0
    outer loop
      vertex 3 15.75 13
      vertex 3 11.375 37.5
      vertex 3 11.306851652578137 36.98236190979496
    endloop
  endfacet
  facet normal 1 0 0
    outer loop
      vertex 3 15.75 13
      vertex 3 11.306851652578137 38.01763809020504
      vertex 3 11.375 37.5
    endloop
  endfacet
  facet normal -1 0 0
    outer loop
      vertex 0 19.37481591082025 17.84700949612773
      vertex 0 10.407687989959058 33.64595595310662
      vertex 0 11.37 34.044558638900085
    endloop
  endfacet
  facet normal -1 0 0
    outer loop
      vertex 0 19.37481591082025 17.84700949612773
      vertex 0 11.37 34.044558638900085
      vertex 0 12.196356056934324 34.67864394306567
    endloop
  endfacet
  facet normal 1 0 0
    outer loop
      vertex 3 15.75 13
      vertex 3 15.75 50
      vertex 3 11.306851652578137 38.01763809020504
    endloop
  endfacet
  facet normal 1 0 0
    outer loop
      vertex 3 3 50
      vertex 3 8.857361909794959 39.43185165257814
      vertex 3 15.75 50
    endloop
  endfacet
  facet normal 1 0 0
    outer loop
      vertex 3 15.75 50
      vertex 3 8.857361909794959 39.43185165257814
      vertex 3 9.375 39.5
    endloop
  endfacet
  facet normal 1 0 0
    outer loop
      vertex 3 15.75 50
      vertex 3 9.375 39.5
      vertex 3 9.892638090205041 39.43185165257814
    endloop
  endfacet
  facet normal 1 0 0
    outer loop
      vertex 3 15.75 50
      vertex 3 9.892638090205041 39.43185165257814
      vertex 3 10.375 39.232050807568875
    endloop
  endfacet
  facet normal 1 0 0
    outer loop
      vertex 3 15.75 50
      vertex 3 11.107050807568877 38.5
      vertex 3 11.306851652578137 38.01763809020504
    endloop
  endfacet
  facet normal 1 0 0
    outer loop
      vertex 3 15.75 50
      vertex 3 10.375 39.232050807568875
      vertex 3 10.789213562373096 38.91421356237309
    endloop
  endfacet
  facet normal 1 0 0
    outer loop
      vertex 3 15.75 50
      vertex 3 10.789213562373096 38.91421356237309
      vertex 3 11.107050807568877 38.5
    endloop
  endfacet
  facet normal 0 0 1
    outer loop
      vertex 0 3 50
      vertex 3 15.75 50
      vertex 3 18.75 50
    endloop
  endfacet
  facet normal -1 0 0
    outer loop
      vertex 0 3 50
      vertex 0 30 50
      vertex 0 8.342312010040942 41.35404404689338
    endloop
  endfacet
  facet normal -1 0 0
    outer loop
      vertex 0 18.75 3
      vertex 0 22.22182540694798 7.221825406947977
      vertex 0 24.5 5.473720558371175
    endloop
  endfacet
  facet normal 1 0 0
    outer loop
      vertex 3 18.75 3
      vertex 3 24.5 5.473720558371175
      vertex 3 22.22182540694798 7.221825406947977
    endloop
  endfacet
  facet normal -1 0 0
    outer loop
      vertex 0 18.75 3
      vertex 0 19.37481591082025 12.152990503872271
      vertex 0 20.473720558371177 9.5
    endloop
  endfacet
  facet normal -1 0 0
    outer loop
      vertex 0 18.75 3
      vertex 0 20.473720558371177 9.5
      vertex 0 22.22182540694798 7.221825406947977
    endloop
  endfacet
  facet normal 1 0 0
    outer loop
      vertex 3 18.75 3
      vertex 3 20.473720558371177 9.5
      vertex 3 19.37481591082025 12.152990503872271
    endloop
  endfacet
  facet normal 1 0 0
    outer loop
      vertex 3 18.75 3
      vertex 3 22.22182540694798 7.221825406947977
      vertex 3 20.473720558371177 9.5
    endloop
  endfacet
  facet normal -1 0 0
    outer loop
      vertex 0 18.75 3
      vertex 0 18.75 13
      vertex 0 19.37481591082025 12.152990503872271
    endloop
  endfacet
  facet normal 1 0 0
    outer loop
      vertex 3 18.75 3
      vertex 3 19.37481591082025 12.152990503872271
      vertex 3 18.75 13
    endloop
  endfacet
  facet normal -1 0 0
    outer loop
      vertex 0 18.75 13
      vertex 0 10.407687989959058 33.64595595310662
      vertex 0 19 15
    endloop
  endfacet
  facet normal -1 0 0
    outer loop
      vertex 0 10.407687989959058 33.64595595310662
      vertex 0 19.37481591082025 17.84700949612773
      vertex 0 19 15
    endloop
  endfacet
  facet normal -1 0 0
    outer loop
      vertex 0 19.37481591082025 17.84700949612773
      vertex 0 12.196356056934324 34.67864394306567
      vertex 0 20.473720558371177 20.5
    endloop
  endfacet
  facet normal -1 0 0
    outer loop
      vertex 0 18.75 13
      vertex 0 19 15
      vertex 0 19.37481591082025 12.152990503872271
    endloop
  endfacet
  facet normal 1 0 0
    outer loop
      vertex 3 18.75 13
      vertex 3 19.37481591082025 12.152990503872271
      vertex 3 19 15
    endloop
  endfacet
  facet normal -1 0 0
    outer loop
      vertex 0 18.75 3
      vertex 0 24.5 5.473720558371175
      vertex 0 27.15299050387227 4.374815910820249
    endloop
  endfacet
  facet normal 1 0 0
    outer loop
      vertex 3 18.75 3
      vertex 3 27.15299050387227 4.374815910820249
      vertex 3 24.5 5.473720558371175
    endloop
  endfacet
  facet normal -1 0 0
    outer loop
      vertex 0 18.75 3
      vertex 0 27.15299050387227 4.374815910820249
      vertex 0 30 4
    endloop
  endfacet
  facet normal 1 0 0
    outer loop
      vertex 3 18.75 3
      vertex 3 30 3
      vertex 3 27.15299050387227 4.374815910820249
    endloop
  endfacet
  facet normal -1 0 0
    outer loop
      vertex 0 18.75 3
      vertex 0 30 4
      vertex 0 30 3
    endloop
  endfacet
  facet normal 0 1 0
    outer loop
      vertex 0 30 3
      vertex 0 30 4
      vertex 3 30 4
    endloop
  endfacet
  facet normal 1 0 0
    outer loop
      vertex 3 30 3
      vertex 3 30 4
      vertex 3 27.15299050387227 4.374815910820249
    endloop
  endfacet
  facet normal 0 1 0
    outer loop
      vertex 0 30 3
      vertex 3 30 4
      vertex 3 30 3
    endloop
  endfacet
  facet normal -1 0 0
    outer loop
      vertex 0 12.196356056934324 34.67864394306567
      vertex 0 12.83044136109991 35.505
      vertex 0 22.22182540694798 22.77817459305202
    endloop
  endfacet
  facet normal -1 0 0
    outer loop
      vertex 0 12.196356056934324 34.67864394306567
      vertex 0 22.22182540694798 22.77817459305202
      vertex 0 20.473720558371177 20.5
    endloop
  endfacet
  facet normal -1 0 0
    outer loop
      vertex 0 12.83044136109991 35.505
      vertex 0 13.229044046893382 36.46731201004095
      vertex 0 24.5 24.526279441628823
    endloop
  endfacet
  facet normal -1 0 0
    outer loop
      vertex 0 13.365 37.5
      vertex 0 27.15299050387227 25.62518408917975
      vertex 0 13.229044046893382 36.46731201004095
    endloop
  endfacet
  facet normal -1 0 0
    outer loop
      vertex 0 13.365 37.5
      vertex 0 13.229044046893382 38.53268798995905
      vertex 0 27.15299050387227 25.62518408917975
    endloop
  endfacet
  facet normal -1 0 0
    outer loop
      vertex 0 12.83044136109991 35.505
      vertex 0 24.5 24.526279441628823
      vertex 0 22.22182540694798 22.77817459305202
    endloop
  endfacet
  facet normal 1 0 0
    outer loop
      vertex 3 18.75 13
      vertex 3 19 15
      vertex 3 18.75 50
    endloop
  endfacet
  facet normal 1 0 0
    outer loop
      vertex 3 18.75 50
      vertex 3 19 15
      vertex 3 19.37481591082025 17.84700949612773
    endloop
  endfacet
  facet normal 1 0 0
    outer loop
      vertex 3 18.75 50
      vertex 3 19.37481591082025 17.84700949612773
      vertex 3 20.473720558371177 20.5
    endloop
  endfacet
  facet normal 1 0 0
    outer loop
      vertex 3 18.75 50
      vertex 3 20.473720558371177 20.5
      vertex 3 22.22182540694798 22.77817459305202
    endloop
  endfacet
  facet normal -1 0 0
    outer loop
      vertex 0 13.229044046893382 36.46731201004095
      vertex 0 27.15299050387227 25.62518408917975
      vertex 0 24.5 24.526279441628823
    endloop
  endfacet
  facet normal 1 0 0
    outer loop
      vertex 3 18.75 50
      vertex 3 22.22182540694798 22.77817459305202
      vertex 3 24.5 24.526279441628823
    endloop
  endfacet
  facet normal -1 0 0
    outer loop
      vertex 0 30 50
      vertex 0 13.229044046893382 38.53268798995905
      vertex 0 12.83044136109991 39.495
    endloop
  endfacet
  facet normal -1 0 0
    outer loop
      vertex 0 30 50
      vertex 0 12.83044136109991 39.495
      vertex 0 12.196356056934324 40.32135605693433
    endloop
  endfacet
  facet normal -1 0 0
    outer loop
      vertex 0 30 50
      vertex 0 9.375 41.49
      vertex 0 8.342312010040942 41.35404404689338
    endloop
  endfacet
  facet normal -1 0 0
    outer loop
      vertex 0 30 50
      vertex 0 10.407687989959058 41.35404404689338
      vertex 0 9.375 41.49
    endloop
  endfacet
  facet normal -1 0 0
    outer loop
      vertex 0 30 50
      vertex 0 11.37 40.955441361099915
      vertex 0 10.407687989959058 41.35404404689338
    endloop
  endfacet
  facet normal -1 0 0
    outer loop
      vertex 0 30 50
      vertex 0 12.196356056934324 40.32135605693433
      vertex 0 11.37 40.955441361099915
    endloop
  endfacet
  facet normal 0 0 1
    outer loop
      vertex 0 3 50
      vertex 3 18.75 50
      vertex 0 30 50
    endloop
  endfacet
  facet normal 1 0 0
    outer loop
      vertex 3 18.75 50
      vertex 3 24.5 24.526279441628823
      vertex 3 27.15299050387227 25.62518408917975
    endloop
  endfacet
  facet normal -1 0 0
    outer loop
      vertex 0 30 50
      vertex 0 30 26
      vertex 0 27.15299050387227 25.62518408917975
    endloop
  endfacet
  facet normal 1 0 0
    outer loop
      vertex 3 30 50
      vertex 3 27.15299050387227 25.62518408917975
      vertex 3 30 26
    endloop
  endfacet
  facet normal 0 1 0
    outer loop
      vertex 3 30 50
      vertex 3 30 26
      vertex 0 30 26
    endloop
  endfacet
  facet normal -1 0 0
    outer loop
      vertex 0 30 50
      vertex 0 27.15299050387227 25.62518408917975
      vertex 0 13.229044046893382 38.53268798995905
    endloop
  endfacet
  facet normal 1 0 0
    outer loop
      vertex 3 18.75 50
      vertex 3 27.15299050387227 25.62518408917975
      vertex 3 30 50
    endloop
  endfacet
  facet normal 0 1 0
    outer loop
      vertex 0 30 50
      vertex 3 30 50
      vertex 0 30 26
    endloop
  endfacet
  facet normal 0 0 1
    outer loop
      vertex 3 18.75 50
      vertex 3 30 50
      vertex 0 30 50
    endloop
  endfacet
  facet normal -1 0 0
    outer loop
      vertex 0 15.75 3
      vertex 0 15.75 13
      vertex 0 18.75 13
    endloop
  endfacet
  facet normal -1 0 0
    outer loop
      vertex 0 15.75 3
      vertex 0 18.75 13
      vertex 0 18.75 3
    endloop
  endfacet
  facet normal 0 -1 0
    outer loop
      vertex 3 15.75 3
      vertex 13 15.75 13
      vertex 3 15.75 13
    endloop
  endfacet
  facet normal 0 1 0
    outer loop
      vertex 3 18.75 3
      vertex 3 18.75 13
      vertex 50 18.75 3
    endloop
  endfacet
  facet normal 0 -1 0
    outer loop
      vertex 3 15.75 3
      vertex 50 15.75 13
      vertex 13 15.75 13
    endloop
  endfacet
  facet normal 0 1 0
    outer loop
      vertex 3 18.75 13
      vertex 13 18.75 13
      vertex 50 18.75 3
    endloop
  endfacet
  facet normal 0 -1 0
    outer loop
      vertex 3 15.75 3
      vertex 50 15.75 3
      vertex 50 15.75 13
    endloop
  endfacet
  facet normal 0 0 1
    outer loop
      vertex 13 15.75 13
      vertex 50 18.75 13
      vertex 13 18.75 13
    endloop
  endfacet
  facet normal 0 1 0
    outer loop
      vertex 13 18.75 13
      vertex 50 18.75 13
      vertex 50 18.75 3
    endloop
  endfacet
  facet normal 1 0 0
    outer loop
      vertex 50 15.75 3
      vertex 50 18.75 3
      vertex 50 15.75 13
    endloop
  endfacet
  facet normal 1 0 0
    outer loop
      vertex 50 18.75 3
      vertex 50 18.75 13
      vertex 50 15.75 13
    endloop
  endfacet
  facet normal 0 0 1
    outer loop
      vertex 13 15.75 13
      vertex 50 15.75 13
      vertex 50 18.75 13
    endloop
  endfacet
  facet normal 0 0 -1
    outer loop
      vertex 3 15.75 0
      vertex 3 18.75 0
      vertex 13 18.75 0
    endloop
  endfacet
  facet normal 0 0 -1
    outer loop
      vertex 3 15.75 0
      vertex 13 18.75 0
      vertex 13 15.75 0
    endloop
  endfacet
  facet normal 0 -1 0
    outer loop
      vertex 3 15.75 13
      vertex 13 15.75 13
      vertex 13 15.75 50
    endloop
  endfacet
  facet normal 0 1 0
    outer loop
      vertex 3 18.75 13
      vertex 3 18.75 50
      vertex 13 18.75 13
    endloop
  endfacet
  facet normal 0 -1 0
    outer loop
      vertex 3 15.75 13
      vertex 13 15.75 50
      vertex 3 15.75 50
    endloop
  endfacet
  facet normal 0 0 1
    outer loop
      vertex 3 15.75 50
      vertex 13 15.75 50
      vertex 3 18.75 50
    endloop
  endfacet
  facet normal 0 0 1
    outer loop
      vertex 3 18.75 50
      vertex 13 15.75 50
      vertex 13 18.75 50
    endloop
  endfacet
  facet normal 0 1 0
    outer loop
      vertex 13 18.75 13
      vertex 3 18.75 50
      vertex 13 18.75 50
    endloop
  endfacet
  facet normal 1 0 0
    outer loop
      vertex 13 15.75 13
      vertex 13 18.75 13
      vertex 13 18.75 50
    endloop
  endfacet
  facet normal 1 0 0
    outer loop
      vertex 13 15.75 13
      vertex 13 18.75 50
      vertex 13 15.75 50
    endloop
  endfacet
  facet normal 0.38268343236509034 0.9238795325112865 0
    outer loop
      vertex 20.5 20.473720558371177 0
      vertex 20.5 20.473720558371177 3
      vertex 23.15299050387227 19.37481591082025 0
    endloop
  endfacet
  facet normal 0.6087614290087205 0.7933533402912352 0
    outer loop
      vertex 20.5 20.473720558371177 0
      vertex 18.22182540694798 22.22182540694798 3
      vertex 20.5 20.473720558371177 3
    endloop
  endfacet
  facet normal 0.6087614290087205 0.7933533402912352 0
    outer loop
      vertex 18.22182540694798 22.22182540694798 0
      vertex 18.22182540694798 22.22182540694798 3
      vertex 20.5 20.473720558371177 0
    endloop
  endfacet
  facet normal 0.38268343236509034 0.9238795325112865 0
    outer loop
      vertex 23.15299050387227 19.37481591082025 0
      vertex 20.5 20.473720558371177 3
      vertex 23.15299050387227 19.37481591082025 3
    endloop
  endfacet
  facet normal 0.13052619222005174 0.9914448613738105 0
    outer loop
      vertex 23.15299050387227 19.37481591082025 3
      vertex 26 19 0
      vertex 23.15299050387227 19.37481591082025 0
    endloop
  endfacet
  facet normal 0.7933533402912352 0.6087614290087205 0
    outer loop
      vertex 16.473720558371177 24.5 3
      vertex 18.22182540694798 22.22182540694798 0
      vertex 16.473720558371177 24.5 0
    endloop
  endfacet
  facet normal 0.7933533402912352 0.6087614290087205 1.162934452770884e-17
    outer loop
      vertex 16.473720558371177 24.5 3
      vertex 18.22182540694798 22.22182540694798 3
      vertex 18.22182540694798 22.22182540694798 0
    endloop
  endfacet
  facet normal 0.9238795325112865 0.38268343236509034 -1.6677935775073816e-18
    outer loop
      vertex 15.37481591082025 27.15299050387227 3
      vertex 16.473720558371177 24.5 3
      vertex 16.473720558371177 24.5 0
    endloop
  endfacet
  facet normal 0.9914448613738105 0.13052619222005174 2.275931995052045e-18
    outer loop
      vertex 15 30 3
      vertex 15.37481591082025 27.15299050387227 3
      vertex 15.37481591082025 27.15299050387227 0
    endloop
  endfacet
  facet normal 0.9914448613738105 0.13052619222005174 0
    outer loop
      vertex 15 30 0
      vertex 15 30 3
      vertex 15.37481591082025 27.15299050387227 0
    endloop
  endfacet
  facet normal 0.9238795325112865 0.38268343236509034 0
    outer loop
      vertex 15.37481591082025 27.15299050387227 0
      vertex 15.37481591082025 27.15299050387227 3
      vertex 16.473720558371177 24.5 0
    endloop
  endfacet
  facet normal 0.13052619222005174 0.9914448613738105 0
    outer loop
      vertex 26 19 3
      vertex 26 19 0
      vertex 23.15299050387227 19.37481591082025 3
    endloop
  endfacet
  facet normal -0.13052619222005174 0.9914448613738105 0
    outer loop
      vertex 26 19 3
      vertex 28.84700949612773 19.37481591082025 0
      vertex 26 19 0
    endloop
  endfacet
  facet normal -0.13052619222005174 0.9914448613738105 0
    outer loop
      vertex 28.84700949612773 19.37481591082025 3
      vertex 28.84700949612773 19.37481591082025 0
      vertex 26 19 3
    endloop
  endfacet
  facet normal -0.38268343236509034 0.9238795325112865 0
    outer loop
      vertex 28.84700949612773 19.37481591082025 3
      vertex 31.5 20.473720558371177 0
      vertex 28.84700949612773 19.37481591082025 0
    endloop
  endfacet
  facet normal -0.38268343236509034 0.9238795325112865 0
    outer loop
      vertex 31.5 20.473720558371177 3
      vertex 31.5 20.473720558371177 0
      vertex 28.84700949612773 19.37481591082025 3
    endloop
  endfacet
  facet normal -0.6087614290087205 0.7933533402912352 0
    outer loop
      vertex 31.5 20.473720558371177 3
      vertex 33.77817459305202 22.22182540694798 0
      vertex 31.5 20.473720558371177 0
    endloop
  endfacet
  facet normal -0.6087614290087205 0.7933533402912352 0
    outer loop
      vertex 33.77817459305202 22.22182540694798 3
      vertex 33.77817459305202 22.22182540694798 0
      vertex 31.5 20.473720558371177 3
    endloop
  endfacet
  facet normal -0.7933533402912352 0.6087614290087205 -1.162934452770884e-17
    outer loop
      vertex 35.52627944162882 24.5 0
      vertex 33.77817459305202 22.22182540694798 0
      vertex 33.77817459305202 22.22182540694798 3
    endloop
  endfacet
  facet normal -0.7933533402912352 0.6087614290087205 0
    outer loop
      vertex 35.52627944162882 24.5 0
      vertex 33.77817459305202 22.22182540694798 3
      vertex 35.52627944162882 24.5 3
    endloop
  endfacet
  facet normal -0.923879532511286 0.38268343236509134 1.3211075972355123e-17
    outer loop
      vertex 36.625184089179754 27.15299050387227 0
      vertex 35.52627944162882 24.5 0
      vertex 35.52627944162882 24.5 3
    endloop
  endfacet
  facet normal -0.923879532511286 0.38268343236509134 1.3211075972355123e-17
    outer loop
      vertex 35.52627944162882 24.5 3
      vertex 36.625184089179754 27.15299050387227 3
      vertex 36.625184089179754 27.15299050387227 0
    endloop
  endfacet
  facet normal -0.9914448613738107 0.13052619222005052 0
    outer loop
      vertex 36.625184089179754 27.15299050387227 0
      vertex 36.625184089179754 27.15299050387227 3
      vertex 37 30 0
    endloop
  endfacet
  facet normal -0.9914448613738107 0.13052619222005052 0
    outer loop
      vertex 37 30 3
      vertex 37 30 0
      vertex 36.625184089179754 27.15299050387227 3
    endloop
  endfacet
  facet normal -1.6677935775073816e-18 0.9238795325112865 0.38268343236509034
    outer loop
      vertex 0 20.473720558371177 9.5
      vertex 0 19.37481591082025 12.152990503872271
      vertex 3 19.37481591082025 12.152990503872271
    endloop
  endfacet
  facet normal 0 0.9238795325112865 0.38268343236509034
    outer loop
      vertex 0 20.473720558371177 9.5
      vertex 3 19.37481591082025 12.152990503872271
      vertex 3 20.473720558371177 9.5
    endloop
  endfacet
  facet normal 1.2020124703707226e-17 0.7933533402912354 0.6087614290087203
    outer loop
      vertex 0 22.22182540694798 7.221825406947977
      vertex 0 20.473720558371177 9.5
      vertex 3 20.473720558371177 9.5
    endloop
  endfacet
  facet normal 0 0.7933533402912354 0.6087614290087203
    outer loop
      vertex 0 22.22182540694798 7.221825406947977
      vertex 3 20.473720558371177 9.5
      vertex 3 22.22182540694798 7.221825406947977
    endloop
  endfacet
  facet normal 2.275931995052045e-18 0.9914448613738105 0.13052619222005174
    outer loop
      vertex 0 19.37481591082025 12.152990503872271
      vertex 0 19 15
      vertex 3 19 15
    endloop
  endfacet
  facet normal 2.275931995052045e-18 0.9914448613738105 0.13052619222005174
    outer loop
      vertex 3 19 15
      vertex 3 19.37481591082025 12.152990503872271
      vertex 0 19.37481591082025 12.152990503872271
    endloop
  endfacet
  facet normal -2.275931995052045e-18 0.9914448613738105 -0.13052619222005174
    outer loop
      vertex 0 19 15
      vertex 0 19.37481591082025 17.84700949612773
      vertex 3 19.37481591082025 17.84700949612773
    endloop
  endfacet
  facet normal 0 0.9914448613738105 -0.13052619222005174
    outer loop
      vertex 0 19 15
      vertex 3 19.37481591082025 17.84700949612773
      vertex 3 19 15
    endloop
  endfacet
  facet normal 0 0.9238795325112865 -0.38268343236509034
    outer loop
      vertex 0 19.37481591082025 17.84700949612773
      vertex 3 20.473720558371177 20.5
      vertex 3 19.37481591082025 17.84700949612773
    endloop
  endfacet
  facet normal 1.6677935775073816e-18 0.9238795325112865 -0.38268343236509034
    outer loop
      vertex 0 19.37481591082025 17.84700949612773
      vertex 0 20.473720558371177 20.5
      vertex 3 20.473720558371177 20.5
    endloop
  endfacet
  facet normal -1.162934452770884e-17 0.7933533402912352 -0.6087614290087205
    outer loop
      vertex 3 22.22182540694798 22.77817459305202
      vertex 3 20.473720558371177 20.5
      vertex 0 20.473720558371177 20.5
    endloop
  endfacet
  facet normal 0 0.7933533402912352 -0.6087614290087205
    outer loop
      vertex 3 22.22182540694798 22.77817459305202
      vertex 0 20.473720558371177 20.5
      vertex 0 22.22182540694798 22.77817459305202
    endloop
  endfacet
  facet normal 1.162934452770884e-17 0.6087614290087205 0.7933533402912352
    outer loop
      vertex 3 22.22182540694798 7.221825406947977
      vertex 3 24.5 5.473720558371175
      vertex 0 24.5 5.473720558371175
    endloop
  endfacet
  facet normal -2.1671149249386026e-17 0.3826834323650898 0.9238795325112867
    outer loop
      vertex 0 27.15299050387227 4.374815910820249
      vertex 0 24.5 5.473720558371175
      vertex 3 24.5 5.473720558371175
    endloop
  endfacet
  facet normal 1.162934452770884e-17 0.6087614290087205 0.7933533402912352
    outer loop
      vertex 0 24.5 5.473720558371175
      vertex 0 22.22182540694798 7.221825406947977
      vertex 3 22.22182540694798 7.221825406947977
    endloop
  endfacet
  facet normal 0 0.13052619222005174 0.9914448613738105
    outer loop
      vertex 0 27.15299050387227 4.374815910820249
      vertex 3 27.15299050387227 4.374815910820249
      vertex 0 30 4
    endloop
  endfacet
  facet normal -2.1671149249386026e-17 0.3826834323650898 0.9238795325112867
    outer loop
      vertex 3 24.5 5.473720558371175
      vertex 3 27.15299050387227 4.374815910820249
      vertex 0 27.15299050387227 4.374815910820249
    endloop
  endfacet
  facet normal 0 0.13052619222005174 0.9914448613738105
    outer loop
      vertex 0 30 4
      vertex 3 27.15299050387227 4.374815910820249
      vertex 3 30 4
    endloop
  endfacet
  facet normal -1.162934452770884e-17 0.6087614290087205 -0.7933533402912352
    outer loop
      vertex 0 22.22182540694798 22.77817459305202
      vertex 0 24.5 24.526279441628823
      vertex 3 24.5 24.526279441628823
    endloop
  endfacet
  facet normal -1.162934452770884e-17 0.6087614290087205 -0.7933533402912352
    outer loop
      vertex 3 24.5 24.526279441628823
      vertex 3 22.22182540694798 22.77817459305202
      vertex 0 22.22182540694798 22.77817459305202
    endloop
  endfacet
  facet normal 1.6677935775073816e-18 0.38268343236509034 -0.9238795325112865
    outer loop
      vertex 3 27.15299050387227 25.62518408917975
      vertex 3 24.5 24.526279441628823
      vertex 0 24.5 24.526279441628823
    endloop
  endfacet
  facet normal 1.6677935775073816e-18 0.38268343236509034 -0.9238795325112865
    outer loop
      vertex 0 24.5 24.526279441628823
      vertex 0 27.15299050387227 25.62518408917975
      vertex 3 27.15299050387227 25.62518408917975
    endloop
  endfacet
  facet normal -2.275931995052045e-18 0.13052619222005174 -0.9914448613738105
    outer loop
      vertex 3 30 26
      vertex 3 27.15299050387227 25.62518408917975
      vertex 0 27.15299050387227 25.62518408917975
    endloop
  endfacet
  facet normal 0 0.13052619222005174 -0.9914448613738105
    outer loop
      vertex 0 30 26
      vertex 3 30 26
      vertex 0 27.15299050387227 25.62518408917975
    endloop
  endfacet
endsolid OpenSCAD_Model
